<?xml version="1.0" encoding="UTF-8"?>
<svg width="31px" height="34px" viewBox="0 0 31 34" version="1.1" xmlns="http://www.w3.org/2000/svg" xmlns:xlink="http://www.w3.org/1999/xlink">
    <!-- Generator: Sketch 59.1 (86144) - https://sketch.com -->
    <title>Group</title>
    <desc>Created with Sketch.</desc>
    <g id="Page-1" stroke="none" stroke-width="1" fill="none" fill-rule="evenodd">
        <g id="Artboard" transform="translate(-250.000000, -211.000000)" fill="#FFFFFF" fill-rule="nonzero">
            <g id="Group" transform="translate(250.000000, 211.000000)">
                <path d="M7.79861,15.1747 C4.36193,11.6709 3.83321,10.6171 3.83321,7.27132 C3.83321,4.74223 4.49411,3.63575 6.08027,3.63575 C7.53425,3.63575 8.32732,4.50513 8.32732,9.06276 L8.32732,11.6445 L11.9226,11.6445 L11.9226,7.74552 C11.9226,2.74003 9.83417,4.28062918e-10 6.08027,4.28062918e-10 C2.16775,-0.0261564 0,2.71369 0,7.69283 C0,12.7774 1.77121,14.6478 5.28719,18.3888 L5.34006,18.4415 C7.69286,20.8915 8.7503,22.1297 8.7503,25.6862 C8.7503,28.6368 7.95722,30.1122 6.42394,30.1122 C4.54698,30.1122 3.70103,28.5578 3.70103,25.1857 L3.70103,21.3394 L0,21.3394 L0,25.1857 C0,30.8498 2.19418,33.7214 6.52968,33.7214 C12.1605,33.7214 12.6099,27.3723 12.6099,25.4228 C12.6099,21.3921 11.7376,19.3108 8.7503,16.1495 L7.79861,15.1747 Z" id="Path"></path>
                <path d="M27.0827,13.426 L26.4668,14.9882 C26.68,15.0828 26.8932,15.2248 27.0827,15.3669 L28.2198,14.1361 C27.8644,13.8521 27.4854,13.6154 27.0827,13.426 Z" id="Path"></path>
                <path d="M26.4668,14.9882 L27.0827,13.426 C27.4854,13.6154 27.8881,13.8521 28.2198,14.1361 L27.0827,15.3669 C26.8932,15.2248 26.7037,15.1065 26.4668,14.9882 Z" id="Path"></path>
                <path d="M26.5614,13.3314 L26.6088,13.2367 C26.1824,13.0947 25.7323,13.0237 25.2822,13 L25.2822,14.6805 C25.5191,14.7041 25.756,14.7515 25.9929,14.8225 L26.5614,13.3314 Z" id="Path"></path>
                <path d="M25.2822,14.6805 L25.2822,13 C25.7323,13.0237 26.1824,13.0947 26.6088,13.2367 L26.5614,13.3314 L25.9929,14.7988 C25.756,14.7278 25.5191,14.6805 25.2822,14.6805 Z" id="Path"></path>
                <path d="M24.7612,14.6805 L24.7612,13.1184 L24.7612,13.0237 C24.3111,13.0474 23.861,13.1184 23.4346,13.2604 L24.0505,14.8225 C24.2874,14.7278 24.5243,14.6805 24.7612,14.6805 Z" id="Path"></path>
                <path d="M24.7612,13 L24.7612,13.0947 L24.7612,14.6568 C24.5243,14.6805 24.2874,14.7278 24.0505,14.7988 L23.4346,13.2367 C23.8847,13.0947 24.3111,13.0237 24.7612,13 Z" id="Path"></path>
                <path d="M23.5772,14.9882 L22.9613,13.426 C22.5586,13.6154 22.1559,13.8521 21.8242,14.1361 L22.9613,15.3669 C23.1508,15.2248 23.364,15.1065 23.5772,14.9882 Z" id="Path"></path>
                <path d="M22.9613,13.426 L23.5772,14.9882 C23.364,15.0828 23.1508,15.2248 22.9613,15.3669 L21.8242,14.1361 C22.1796,13.8521 22.5586,13.6154 22.9613,13.426 Z" id="Path"></path>
                <path d="M21.6817,17.9704 L20.0234,17.8047 C20.0234,17.8758 20.0234,17.9231 20.0234,17.9941 C20.0234,18.3728 20.0708,18.7752 20.1656,19.1302 L21.7764,18.6805 C21.729,18.4438 21.7053,18.2308 21.7053,17.9941 C21.6817,17.9941 21.6817,17.9704 21.6817,17.9704 Z" id="Path"></path>
                <path d="M21.753,18.6805 L20.1421,19.1302 C20.0474,18.7515 20,18.3728 20,17.9941 C20,17.9231 20,17.8758 20,17.8047 L21.6582,17.9704 L21.6582,17.9941 C21.6819,18.2308 21.7056,18.4675 21.753,18.6805 Z" id="Path"></path>
                <path d="M20.4266,16.0059 C20.2371,16.4083 20.1187,16.858 20.0713,17.284 L21.7295,17.4497 C21.7769,17.213 21.8243,16.9763 21.919,16.7633 L20.4266,16.0059 Z" id="Path"></path>
                <path d="M21.7295,17.4497 L20.0713,17.284 C20.1424,16.8343 20.2608,16.4083 20.4266,16.0059 L21.919,16.7633 C21.8243,16.9763 21.7769,17.213 21.7295,17.4497 Z" id="Path"></path>
                <path d="M29.4044,15.5562 C29.1912,15.1539 28.9069,14.7988 28.599,14.4911 L27.4619,15.7219 C27.6277,15.9113 27.7699,16.1006 27.8883,16.3136 L29.4044,15.5562 Z" id="Path"></path>
                <path d="M28.5987,14.4911 C28.9067,14.8225 29.1909,15.1775 29.4042,15.5562 L27.9117,16.3136 C27.7933,16.1006 27.6512,15.9113 27.4854,15.7219 L28.5987,14.4911 Z" id="Path"></path>
                <path d="M21.4451,14.4911 C21.1371,14.8225 20.8528,15.1775 20.6396,15.5562 L22.1321,16.3136 C22.2505,16.1006 22.3926,15.9113 22.5585,15.7219 L21.4451,14.4911 Z" id="Path"></path>
                <path d="M22.1555,16.3136 L20.6631,15.5562 C20.8763,15.1539 21.1606,14.7988 21.4685,14.4911 L22.6056,15.7219 C22.4161,15.8876 22.2739,16.1006 22.1555,16.3136 Z" id="Path"></path>
                <path d="M29.9971,17.3077 C29.9261,16.858 29.8076,16.432 29.6418,16.0296 L28.1494,16.787 C28.2442,17 28.3152,17.2367 28.3389,17.4734 L29.9971,17.3077 Z" id="Path"></path>
                <path d="M29.6174,16.0059 C29.8069,16.4083 29.9254,16.858 29.9727,17.284 L28.3145,17.4497 C28.2671,17.213 28.2198,16.9763 28.125,16.7633 L29.6174,16.0059 Z" id="Path"></path>
                <path d="M27.8645,22.1124 C28.2198,21.8521 28.5515,21.568 28.8595,21.213 L27.5329,20.1953 C27.367,20.3846 27.2012,20.5266 27.0117,20.6686 L27.8645,22.1124 Z" id="Path"></path>
                <path d="M27.5097,20.2189 L28.8363,21.2367 C28.552,21.568 28.2204,21.8757 27.8413,22.1361 L26.9648,20.716 C27.178,20.5503 27.3676,20.3846 27.5097,20.2189 Z" id="Path"></path>
                <path d="M20.2842,19.6272 C20.4263,20.0533 20.6395,20.4556 20.8764,20.8107 L22.203,19.7929 C22.0609,19.6036 21.9661,19.3669 21.8713,19.1539 L20.2842,19.6272 Z" id="Path"></path>
                <path d="M20.8998,20.8107 C20.6393,20.432 20.4498,20.0533 20.3076,19.6273 L21.9185,19.1776 C22.0132,19.3906 22.108,19.6273 22.2501,19.8166 L20.8998,20.8107 Z" id="Path"></path>
                <path d="M28.3621,17.9704 L28.3621,17.9941 C28.3621,18.2308 28.3384,18.4438 28.291,18.6805 L29.9019,19.1302 C29.9966,18.7515 30.044,18.3728 30.044,17.9941 C30.044,17.9231 30.044,17.8758 30.044,17.8047 L28.3621,17.9704 Z" id="Path"></path>
                <path d="M29.9019,19.1302 L28.291,18.6805 C28.3384,18.4438 28.3621,18.2308 28.3621,17.9941 L28.3621,17.9704 L30.0203,17.8047 C30.0203,17.8758 30.0203,17.9231 30.0203,17.9941 C30.044,18.3728 29.9966,18.7752 29.9019,19.1302 Z" id="Path"></path>
                <path d="M25.875,21.213 L26.183,22.8461 C26.6094,22.7515 27.0358,22.5858 27.4148,22.3728 L26.5383,20.9526 C26.3488,21.071 26.1119,21.1657 25.875,21.213 Z" id="Path"></path>
                <path d="M26.183,22.8698 L25.875,21.2367 C26.1119,21.1657 26.3251,21.0947 26.5383,20.9763 L27.4148,22.3964 C27.0358,22.6095 26.633,22.7515 26.183,22.8698 Z" id="Path"></path>
                <path d="M29.1676,20.8107 C29.4282,20.432 29.6177,20.0533 29.7599,19.6273 L28.149,19.1776 C28.0543,19.3906 27.9595,19.6273 27.8174,19.8166 L29.1676,20.8107 Z" id="Path"></path>
                <path d="M28.1488,19.1776 L29.7596,19.6273 C29.6175,20.0533 29.4043,20.4557 29.1674,20.8107 L27.8408,19.7929 C27.9593,19.6036 28.0777,19.3906 28.1488,19.1776 Z" id="Path"></path>
                <path d="M24.6664,21.3077 L24.3584,22.9408 C24.8085,22.9882 25.2349,22.9882 25.685,22.9408 L25.377,21.3077 C25.1401,21.3313 24.9032,21.3313 24.6664,21.3077 Z" id="Path"></path>
                <path d="M24.3584,22.9645 L24.6664,21.3314 C24.9032,21.355 25.1401,21.355 25.377,21.3314 L25.685,22.9645 C25.2586,23.0118 24.8085,23.0118 24.3584,22.9645 Z" id="Path"></path>
                <path d="M22.5346,20.2189 L21.208,21.2367 C21.4923,21.568 21.8239,21.8757 22.2029,22.1361 L23.0794,20.716 C22.8662,20.5503 22.7004,20.3846 22.5346,20.2189 Z" id="Path"></path>
                <path d="M22.1795,22.1124 C21.8242,21.8521 21.4925,21.568 21.1846,21.213 L22.5112,20.1953 C22.677,20.3846 22.8428,20.5266 23.0323,20.6686 L22.1795,22.1124 Z" id="Path"></path>
                <path d="M23.8607,22.8698 L24.1687,21.2367 C23.9318,21.1657 23.7186,21.0947 23.5054,20.9763 L22.6289,22.3964 C23.0079,22.6095 23.4343,22.7515 23.8607,22.8698 Z" id="Path"></path>
                <path d="M24.1687,21.213 L23.8607,22.8461 C23.4343,22.7515 23.0079,22.5858 22.6289,22.3728 L23.5054,20.9526 C23.7186,21.071 23.9318,21.1657 24.1687,21.213 Z" id="Path"></path>
            </g>
        </g>
    </g>
</svg>