<?xml version="1.0" standalone="no"?>
<!DOCTYPE svg PUBLIC "-//W3C//DTD SVG 1.1//EN" "http://www.w3.org/Graphics/SVG/1.1/DTD/svg11.dtd" >
<svg xmlns="http://www.w3.org/2000/svg" xmlns:xlink="http://www.w3.org/1999/xlink" version="1.1">
<metadata></metadata>
<defs>
<font id="garnett_mediumregular" horiz-adv-x="1644" >
<font-face units-per-em="2048" ascent="1638" descent="-410" />
<missing-glyph horiz-adv-x="387" />
<glyph unicode="&#xfb01;" horiz-adv-x="1368" d="M18 0zM18 973v196h232v140q0 180 93 277t267 97q39 0 79 -3t81 -11v-190q-23 2 -41 3t-51 1q-98 0 -135 -44t-37 -159v-111h264v-196h-258v-973h-262v973h-232zM952 1405v264h277v-264h-277zM958 0v1169h263v-1169h-263z" />
<glyph unicode="&#xfb02;" horiz-adv-x="1363" d="M18 0zM18 973v196h232v140q0 180 93 277t267 97q39 0 79 -3t81 -11v-190q-23 2 -41 3t-51 1q-98 0 -135 -44t-37 -159v-111h264v-196h-258v-973h-262v973h-232zM956 0v1669h261v-1669h-261z" />
<glyph horiz-adv-x="0" />
<glyph unicode="&#xd;" horiz-adv-x="681" />
<glyph unicode=" "  horiz-adv-x="387" />
<glyph unicode="&#x09;" horiz-adv-x="387" />
<glyph unicode="&#xa0;" horiz-adv-x="387" />
<glyph unicode="!" horiz-adv-x="581" d="M154 0v285h272v-285h-272zM156 1104v481h270v-481l-61 -680h-148z" />
<glyph unicode="&#x22;" horiz-adv-x="864" d="M143 1030zM143 1585h224l-37 -555h-146zM497 1585h224l-37 -555h-146z" />
<glyph unicode="#" horiz-adv-x="1323" d="M27 481v164h252l73 348h-243v164h278l72 344h184l-72 -344h355l71 344h185l-72 -344h201v-164h-236l-74 -348h228v-164h-262l-80 -381h-185l80 381h-354l-80 -381h-184l80 381h-217zM451 637h374l76 364h-373z" />
<glyph unicode="$" horiz-adv-x="1363" d="M18 436l258 74q25 -131 104 -208t208 -99v487q-39 8 -80 18.5t-86 24.5q-78 23 -130 49.5t-87 61.5q-51 51 -77 120.5t-26 155.5q0 201 127 330t349 156v192h223v-192q190 -25 313 -136.5t174 -304.5l-254 -57q-27 113 -87 181.5t-156 90.5v-481q47 -10 96 -22.5 t96 -26.5q82 -25 131 -49.5t84 -57.5q51 -49 76.5 -117.5t25.5 -158.5q0 -205 -131.5 -334t-367.5 -156v-249h-223v249q-236 25 -377.5 140.5t-182.5 318.5zM365 1147q0 -86 45 -132t178 -75v446q-106 -20 -164.5 -82.5t-58.5 -156.5zM791 199q121 16 184 80.5t63 166.5 q0 84 -48 128t-199 75v-450z" />
<glyph unicode="%" horiz-adv-x="1984" d="M158 1188q0 188 101 302t263 114q160 0 262.5 -113t102.5 -299q0 -178 -103.5 -289.5t-263.5 -111.5q-162 0 -262 107.5t-100 289.5zM293 0l1153 1585h227l-1145 -1585h-235zM346 1192q0 -111 47 -175.5t127 -64.5q84 0 129 62.5t45 177.5q0 119 -45 184.5t-127 65.5 t-129 -65.5t-47 -184.5zM1100 379q0 188 101.5 302t262.5 114q162 0 263.5 -113t101.5 -299q0 -178 -103.5 -288.5t-263.5 -110.5q-164 0 -263 106.5t-99 288.5zM1288 383q0 -111 47 -174.5t127 -63.5q84 0 129 62.5t45 175.5q0 119 -45 184.5t-127 65.5t-129 -66.5 t-47 -183.5z" />
<glyph unicode="&#x26;" horiz-adv-x="1701" d="M96 426q0 168 88 291t262 198q-39 82 -56 153t-17 140q0 184 112.5 294t305.5 110q182 0 289.5 -95.5t107.5 -252.5q0 -152 -101.5 -255.5t-314.5 -170.5q27 -45 61.5 -93.5t77.5 -99.5q49 -61 104.5 -116.5t119.5 -106.5q74 113 117.5 263.5t54.5 324.5l241 -47 q-12 -170 -77.5 -356.5t-153.5 -303.5q94 -49 194.5 -73.5t202.5 -24.5h29.5t21.5 2l-26 -221q-16 -4 -36 -6.5t-36 -2.5q-139 0 -266 36t-264 116q-92 -76 -217 -117t-267 -41q-266 0 -411.5 119t-145.5 336zM371 479q0 -133 88 -205.5t250 -72.5q68 0 126 13t107 42 q-66 55 -123 111.5t-106 115.5q-53 63 -100.5 130t-92.5 143q-76 -47 -112.5 -115t-36.5 -162zM637 1217q0 -55 13.5 -114t39.5 -118q133 47 194.5 112.5t61.5 159.5q0 76 -38.5 118t-110.5 42q-74 0 -117 -55t-43 -145z" />
<glyph unicode="'" horiz-adv-x="509" d="M143 1585h224l-37 -555h-146z" />
<glyph unicode="(" horiz-adv-x="675" d="M117 602q0 311 114.5 606t290.5 461h234q-184 -217 -276.5 -484t-92.5 -583q0 -311 92 -579.5t277 -495.5h-234q-180 182 -292.5 474t-112.5 601z" />
<glyph unicode=")" horiz-adv-x="675" d="M-80 -473q184 217 276.5 484.5t92.5 582.5q0 311 -92.5 579.5t-276.5 495.5h234q180 -182 292.5 -474t112.5 -601q0 -311 -114.5 -606t-290.5 -461h-234z" />
<glyph unicode="*" horiz-adv-x="909" d="M41 1217l55 176l289 -119l-23 311h185l-23 -311l289 119l55 -176l-303 -74l203 -238l-150 -108l-163 266l-164 -266l-150 108l203 240z" />
<glyph unicode="+" horiz-adv-x="1185" d="M156 707v184h336v364h202v-364h334v-184h-334v-359h-202v359h-336z" />
<glyph unicode="," horiz-adv-x="401" d="M29 -164q98 4 128.5 31t30.5 106v27h-122v285h272v-291q0 -150 -63.5 -215.5t-213.5 -73.5z" />
<glyph unicode="-" horiz-adv-x="833" d="M92 571v195h649v-195h-649z" />
<glyph unicode="." horiz-adv-x="401" d="M66 0v285h272v-285h-272z" />
<glyph unicode="/" horiz-adv-x="886" d="M53 -473l559 2142h232l-563 -2142h-228z" />
<glyph unicode="0" horiz-adv-x="1499" d="M102 788q0 385 177.5 604.5t480.5 219.5q299 0 469 -218t170 -603t-174 -602.5t-477 -217.5q-311 0 -478.5 210t-167.5 607zM377 782q0 -281 95.5 -427t277.5 -146q184 0 278 144.5t94 428.5q0 291 -93 442.5t-271 151.5q-184 0 -282.5 -151.5t-98.5 -442.5z" />
<glyph unicode="1" horiz-adv-x="833" d="M25 1192v194h241q94 0 123 24t33 108l4 67h215v-1585h-270v1192h-346z" />
<glyph unicode="2" horiz-adv-x="1374" d="M129 0v193l498 376q188 145 273 268.5t85 256.5q0 131 -71.5 206.5t-196.5 75.5q-162 0 -245 -112.5t-75 -323.5l-260 47q2 293 161 459t427 166q244 0 388 -135.5t144 -362.5q0 -176 -98 -324.5t-325 -320.5l-328 -246h792v-223h-1169z" />
<glyph unicode="3" horiz-adv-x="1318" d="M76 475l258 62q16 -170 106 -254t254 -84q145 0 226 72.5t81 203.5q0 123 -82.5 182.5t-261.5 59.5h-202v211h168q154 0 232.5 58t78.5 173q0 111 -65.5 170.5t-188.5 59.5q-131 0 -209 -77t-92 -225l-248 58q39 221 187.5 342t375.5 121q229 0 366.5 -111t137.5 -295 q0 -133 -78 -227t-217 -135v-4q180 -35 270.5 -132.5t90.5 -254.5q0 -215 -156 -345.5t-410 -130.5q-270 0 -428.5 127t-193.5 375z" />
<glyph unicode="4" horiz-adv-x="1363" d="M61 346v242l736 997h266v-1018h262v-221h-262v-346h-262v346h-740zM287 567h520v725z" />
<glyph unicode="5" horiz-adv-x="1366" d="M72 463l266 69q27 -162 117 -242.5t239 -80.5q152 0 237 93t85 257q0 150 -83 234t-228 84q-106 0 -188.5 -42t-139.5 -126l-234 28l125 848h916l-2 -229h-705l-69 -467h4q70 80 168 121t221 41q221 0 352 -134.5t131 -359.5q0 -268 -157.5 -425t-428.5 -157 q-258 0 -420.5 126t-205.5 362z" />
<glyph unicode="6" horiz-adv-x="1406" d="M98 762q0 387 191.5 618.5t515.5 231.5q168 0 304 -74t228 -215l-231 -143q-57 96 -135 143t-183 47q-203 0 -313 -166t-110 -469v-4h4q59 143 182 220t291 77q219 0 355 -137t136 -361q0 -252 -158.5 -404.5t-418.5 -152.5q-315 0 -486.5 206t-171.5 583zM414 520 q0 -139 93 -226t243 -87q145 0 230 87t85 236q0 145 -83 228.5t-228 83.5q-152 0 -246 -89t-94 -233z" />
<glyph unicode="7" horiz-adv-x="1196" d="M51 1350v235h1120v-172q-250 -166 -361.5 -462.5t-111.5 -833.5v-117h-278v117q0 420 125 731t368 502h-862z" />
<glyph unicode="8" horiz-adv-x="1435" d="M96 416q0 154 90 259t260 152v9q-129 43 -200.5 132t-71.5 208q0 193 153.5 312.5t393.5 119.5q244 0 392.5 -113t148.5 -303q0 -121 -72 -214t-201 -140v-7q170 -45 261 -144.5t91 -244.5q0 -215 -171 -343t-457 -128q-287 0 -452 119t-165 326zM362 467 q0 -129 95.5 -199.5t267.5 -70.5q162 0 255 76.5t93 207.5q0 123 -94 195t-254 72q-166 0 -264.5 -76t-98.5 -205zM430 1143q0 -115 78 -179.5t213 -64.5q131 0 208 67.5t77 184.5q0 111 -78 174.5t-207 63.5q-133 0 -212 -66t-79 -180z" />
<glyph unicode="9" horiz-adv-x="1415" d="M66 270l227 140q57 -100 148 -152.5t206 -52.5q201 0 300.5 161.5t99.5 487.5v14h-3q-57 -141 -182 -221t-284 -80q-225 0 -360.5 134.5t-135.5 359.5q0 244 165 398.5t423 154.5q301 0 472 -212t171 -579q0 -406 -174 -628t-496 -222q-195 0 -348.5 79t-228.5 218z M350 1065q0 -147 87 -230t241 -83q131 0 224 90t93 227q0 141 -87 226t-238 85q-141 0 -230.5 -88t-89.5 -227z" />
<glyph unicode=":" horiz-adv-x="401" d="M66 0v285h272v-285h-272zM66 0zM66 793v285h272v-285h-272z" />
<glyph unicode=";" horiz-adv-x="401" d="M29 0zM29 -164q98 4 128.5 31t30.5 106v27h-122v285h272v-291q0 -150 -63.5 -215.5t-213.5 -73.5zM66 793v285h272v-285h-272z" />
<glyph unicode="&#x3c;" horiz-adv-x="1185" d="M131 664v122l889 465v-204l-629 -318l629 -321v-211z" />
<glyph unicode="=" horiz-adv-x="1185" d="M156 426v184h872v-184h-872zM156 823v187h872v-187h-872z" />
<glyph unicode="&#x3e;" horiz-adv-x="1185" d="M164 197v204l629 318l-629 321v211l891 -467v-122z" />
<glyph unicode="?" horiz-adv-x="1136" d="M-2 1090q41 248 197.5 385t398.5 137q236 0 380 -121t144 -317q0 -119 -54 -210.5t-196 -199.5q-141 -106 -168.5 -155.5t-27.5 -143.5v-47h-240v69q0 117 42 195t173 182q111 88 150 150.5t39 140.5q0 106 -68.5 167.5t-187.5 61.5q-143 0 -221 -81.5t-107 -260.5z M416 0v285h272v-285h-272z" />
<glyph unicode="@" horiz-adv-x="1925" d="M61 467q0 207 68 386t195 314q131 135 308 208t380 73q385 0 624.5 -234.5t239.5 -613.5q0 -260 -104.5 -398.5t-305.5 -138.5q-133 0 -214 56.5t-81 150.5h-4q-47 -111 -132 -168t-204 -57q-141 0 -223 74t-82 200q0 66 24.5 120.5t76.5 97.5q43 33 105.5 54t148.5 34 l135 18q82 12 118.5 39t36.5 78q0 59 -42 94t-113 35q-86 0 -138.5 -46t-74.5 -141l-234 41q47 164 164 252t289 88q193 0 296 -97t105 -281v-359q0 -80 24 -110.5t79 -30.5q90 0 138 97t50 282q0 338 -188.5 529.5t-519.5 191.5q-336 0 -557.5 -235.5t-221.5 -600.5 q0 -338 204 -524.5t570 -186.5q125 0 242 26t236 79v-158q-94 -45 -220 -69.5t-260 -24.5q-436 0 -687 227.5t-251 628.5zM786 352q0 -63 41 -98t115 -35q106 0 170 79t64 212v51q-12 -10 -35 -18t-76 -19l-113 -18q-86 -14 -126 -51t-40 -103z" />
<glyph unicode="A" horiz-adv-x="1511" d="M39 0l539 1585h325l570 -1585h-289l-123 371h-633l-119 -371h-270zM496 584h495l-252 759z" />
<glyph unicode="B" horiz-adv-x="1478" d="M160 0v1585h624q283 0 425.5 -98t142.5 -295q0 -129 -78 -226.5t-217 -138.5v-2q170 -33 263 -132t93 -244q0 -223 -144 -336t-433 -113h-676zM428 223h387q168 0 247 59.5t79 186.5q0 119 -85 176t-263 57h-365v-479zM428 913h342q160 0 236.5 57.5t76.5 174.5 q0 111 -74.5 164t-228.5 53h-352v-449z" />
<glyph unicode="C" horiz-adv-x="1570" d="M88 774q0 377 209 607.5t545 230.5q272 0 449 -151.5t233 -432.5l-269 -53q-39 197 -144 297t-273 100q-223 0 -348 -155.5t-125 -436.5q0 -264 125.5 -415.5t347.5 -151.5q172 0 276.5 90t157.5 285l260 -64q-66 -266 -247.5 -408.5t-455.5 -142.5q-344 0 -542.5 214 t-198.5 587z" />
<glyph unicode="D" horiz-adv-x="1617" d="M160 0v1585h506q416 0 641 -205.5t225 -582.5q0 -371 -229.5 -584t-634.5 -213h-508zM428 227h227q299 0 449.5 143.5t150.5 430.5q0 274 -148.5 415.5t-434.5 141.5h-244v-1131z" />
<glyph unicode="E" horiz-adv-x="1353" d="M160 0v1585h1071v-223h-803v-434h754v-217h-754v-488h844v-223h-1112z" />
<glyph unicode="F" horiz-adv-x="1286" d="M160 0v1585h1046v-223h-778v-494h707v-219h-707v-649h-268z" />
<glyph unicode="G" horiz-adv-x="1632" d="M88 768q0 381 210 612.5t544 231.5q264 0 441 -145.5t243 -413.5l-260 -64q-43 188 -152.5 285.5t-275.5 97.5q-217 0 -345 -159.5t-128 -434.5q0 -279 125.5 -430t361.5 -151q203 0 317.5 100t114.5 278v15h-453v209h697v-799h-207l-23 283h-6q-74 -150 -209 -230 t-313 -80q-322 0 -502 211t-180 584z" />
<glyph unicode="H" horiz-adv-x="1628" d="M160 0v1585h268v-649h772v649h268v-1585h-268v700h-772v-700h-268z" />
<glyph unicode="I" horiz-adv-x="600" d="M166 0v1585h268v-1585h-268z" />
<glyph unicode="J" horiz-adv-x="1193" d="M74 442v211l252 60v-221q0 -147 55 -216t174 -69q117 0 172 71.5t55 219.5v1087h269v-1081q0 -139 -32 -240.5t-95 -165.5q-63 -63 -154.5 -94t-210.5 -31q-240 0 -362.5 119t-122.5 350z" />
<glyph unicode="K" horiz-adv-x="1464" d="M160 0v1585h268v-823l659 823h299l-473 -602l535 -983h-293l-440 819l-287 -348v-471h-268z" />
<glyph unicode="L" horiz-adv-x="1306" d="M160 0v1585h268v-1362h829v-223h-1097z" />
<glyph unicode="M" horiz-adv-x="1906" d="M160 0v1585h364l447 -1270l440 1270h338v-1585h-254v1229l-412 -1229h-258l-419 1227v-1227h-246z" />
<glyph unicode="N" horiz-adv-x="1593" d="M160 0v1585h329l701 -1182v1182h246v-1585h-283l-747 1245v-1245h-246z" />
<glyph unicode="O" d="M88 782q0 375 203 602.5t538 227.5q334 0 530.5 -222.5t196.5 -596.5q0 -377 -196.5 -598.5t-530.5 -221.5q-348 0 -544.5 215t-196.5 594zM365 784q0 -268 121.5 -419.5t338.5 -151.5q115 0 203.5 42t147.5 124q53 72 78.5 173t25.5 232q0 276 -119 432t-330 156 q-117 0 -208 -44t-152 -130q-53 -76 -79.5 -180.5t-26.5 -233.5z" />
<glyph unicode="P" horiz-adv-x="1388" d="M160 0v1585h585q287 0 437.5 -118.5t150.5 -346.5q0 -248 -156.5 -381t-451.5 -133h-297v-606h-268zM428 821h289q178 0 259 68.5t81 218.5q0 131 -81 194.5t-247 63.5h-301v-545z" />
<glyph unicode="Q" d="M88 782q0 375 203 602.5t538 227.5q334 0 530.5 -222.5t196.5 -596.5q0 -236 -83.5 -417t-241.5 -284q27 -78 67.5 -113.5t102.5 -35.5q53 0 84 35.5t45 117.5l170 -47q-27 -152 -108 -227.5t-214 -75.5q-131 0 -219 60.5t-141 189.5q-41 -10 -88 -15.5t-99 -5.5 q-346 0 -544.5 216.5t-198.5 590.5zM365 784q0 -186 52 -313t154 -192l4 4q-14 25 -22 56.5t-8 68.5q0 113 71.5 181t190.5 68q125 0 209 -74.5t135 -234.5q63 74 96 185.5t33 250.5q0 276 -119 432t-330 156q-117 0 -208 -44t-152 -130q-53 -76 -79.5 -180.5t-26.5 -233.5z M664 350q0 -66 47 -101.5t131 -35.5q25 0 52.5 4t57.5 10q-27 125 -68.5 179.5t-111.5 54.5q-53 0 -80.5 -29t-27.5 -82z" />
<glyph unicode="R" horiz-adv-x="1445" d="M160 0v1585h657q268 0 413.5 -110.5t145.5 -315.5q0 -176 -107.5 -290.5t-303.5 -149.5v-4q131 -29 192.5 -99.5t104.5 -232.5q37 -145 64.5 -232.5t51.5 -140.5v-10h-291q-20 47 -38.5 120t-42.5 199q-18 102 -35.5 150.5t-46.5 79.5q-29 33 -72 46t-133 13h-291v-608 h-268zM428 815h311q180 0 271.5 74t91.5 219q0 133 -83 197.5t-251 64.5h-340v-555z" />
<glyph unicode="S" horiz-adv-x="1363" d="M18 436l258 74q31 -154 138.5 -233.5t287.5 -79.5q160 0 246 64.5t86 184.5q0 66 -32.5 107t-108.5 65q-23 8 -53.5 15.5t-182.5 38.5q-76 14 -131 27.5t-106 27.5q-72 20 -124 49t-91 68q-51 51 -77 120.5t-26 155.5q0 225 159 358.5t421 133.5q240 0 393.5 -114 t212.5 -333l-254 -57q-33 141 -122 211t-238 70q-141 0 -223 -64.5t-82 -177.5q0 -86 55 -135t199 -78q16 -4 146 -27.5t214 -50.5q78 -25 127 -50t84 -58q53 -51 79.5 -120t26.5 -161q0 -229 -162.5 -361.5t-445.5 -132.5q-285 0 -457 118t-217 345z" />
<glyph unicode="T" horiz-adv-x="1376" d="M35 1362v223h1304v-223h-516v-1362h-270v1362h-518z" />
<glyph unicode="U" horiz-adv-x="1585" d="M141 602v983h269v-950q0 -213 97 -315.5t302 -102.5q188 0 279.5 104.5t91.5 321.5v942h266v-952q0 -322 -166 -491t-477 -169q-328 0 -495 159t-167 470z" />
<glyph unicode="V" horiz-adv-x="1517" d="M37 1585h276l459 -1311l432 1311h277l-561 -1585h-299z" />
<glyph unicode="W" horiz-adv-x="2144" d="M43 1585h266l309 -1233l320 1233h270l336 -1245l291 1245h266l-403 -1585h-289l-336 1266l-321 -1266h-289z" />
<glyph unicode="X" horiz-adv-x="1435" d="M31 0l526 813l-498 772h293l383 -598l377 598h272l-495 -784l514 -801h-291l-395 623l-393 -623h-293z" />
<glyph unicode="Y" horiz-adv-x="1333" d="M0 1585h285l397 -715l385 715h264l-518 -950v-635h-270v639z" />
<glyph unicode="Z" horiz-adv-x="1366" d="M76 0v231l925 1131h-888v223h1177v-229l-911 -1133h934v-223h-1237z" />
<glyph unicode="[" horiz-adv-x="872" d="M186 -473v2142h668v-192h-416v-1758h422v-192h-674z" />
<glyph unicode="\" horiz-adv-x="886" d="M45 1669h227l564 -2142h-230z" />
<glyph unicode="]" horiz-adv-x="872" d="M16 1477v192h674v-2142h-667v192h415v1758h-422z" />
<glyph unicode="^" horiz-adv-x="786" d="M57 999l254 586h162l256 -586h-199l-135 357l-141 -357h-197z" />
<glyph unicode="_" horiz-adv-x="1093" d="M94 -125h905v-172h-905v172z" />
<glyph unicode="`" horiz-adv-x="1024" d="M315 1667h252l144 -377h-189z" />
<glyph unicode="a" horiz-adv-x="1280" d="M76 297q0 86 30.5 150.5t94.5 111.5q49 37 120.5 61.5t170.5 38.5l163 23q98 14 140.5 47t42.5 96q0 76 -53.5 119t-147.5 43q-111 0 -177.5 -56.5t-92.5 -172.5l-242 43q51 190 185 292.5t331 102.5q217 0 333 -112.5t116 -325.5v-445q0 -76 27.5 -106.5t99.5 -30.5 q14 0 25 1t26 3v-178q-23 -8 -66 -14t-86 -6q-133 0 -204.5 60t-77.5 179h-5q-57 -121 -158.5 -184.5t-238.5 -63.5q-164 0 -260 87t-96 237zM344 332q0 -82 50 -127t143 -45q137 0 219 101t82 269v64q-20 -16 -55 -28.5t-95 -22.5l-141 -25q-106 -18 -154.5 -62t-48.5 -124 z" />
<glyph unicode="b" horiz-adv-x="1339" d="M145 0v1669h261v-733h8q55 127 153.5 193.5t229.5 66.5q215 0 341 -165t126 -445q0 -279 -129 -446t-342 -167q-137 0 -234.5 63.5t-150.5 186.5h-7v-223h-256zM403 584q0 -180 82 -287t222 -107q137 0 213.5 105t76.5 291q0 182 -78.5 288.5t-211.5 106.5 q-141 0 -222.5 -105.5t-81.5 -291.5z" />
<glyph unicode="c" horiz-adv-x="1243" d="M76 580q0 274 159.5 445t413.5 171q211 0 346 -115.5t185 -335.5l-256 -45q-27 135 -97.5 205t-179.5 70q-141 0 -223 -103.5t-82 -285.5t82 -287.5t225 -105.5q113 0 183.5 60t107.5 187l246 -53q-45 -195 -187.5 -304.5t-353.5 -109.5q-268 0 -418.5 160t-150.5 447z " />
<glyph unicode="d" horiz-adv-x="1339" d="M76 575q0 276 141 448.5t358 172.5q121 0 210 -59.5t141 -173.5h8v706h260v-1669h-256v233h-6q-57 -127 -154.5 -193.5t-228.5 -66.5q-211 0 -342 165t-131 437zM342 580q0 -182 79 -286t216 -104q141 0 220 104.5t79 289.5q0 184 -79 290.5t-214 106.5 q-141 0 -221 -106.5t-80 -294.5z" />
<glyph unicode="e" horiz-adv-x="1239" d="M76 580q0 270 159.5 443t409.5 173q156 0 270.5 -67.5t180.5 -194.5q42 -84 62 -184q19 -92 18 -199v-21h-838q10 -162 96 -254t230 -92q115 0 189.5 53.5t115.5 163.5l221 -69q-63 -172 -201.5 -265.5t-331.5 -93.5q-268 0 -424.5 164t-156.5 443zM342 696h571 q-2 43 -11 78t-23 70q-31 68 -92.5 105.5t-143.5 37.5q-123 0 -203 -76.5t-98 -214.5z" />
<glyph unicode="f" horiz-adv-x="825" d="M18 973v196h232v111q0 197 95 301.5t276 104.5q57 0 113.5 -9.5t96.5 -25.5l-38 -197q-29 10 -62 16.5t-63 6.5q-84 0 -123 -49.5t-39 -157.5v-101h293v-196h-287v-973h-262v973h-232z" />
<glyph unicode="g" horiz-adv-x="1247" d="M23 -145q0 80 61 134t176 74v5q-80 20 -121 66t-41 112q0 72 48.5 126t142.5 87v4q-82 51 -124 131t-42 180q0 188 133 305t346 117q92 0 174 -24.5t146 -69.5l141 237l176 -143l-244 -166q41 -51 61.5 -112.5t20.5 -131.5q0 -184 -127 -292.5t-342 -108.5 q-66 0 -126 10.5t-113 28.5q-33 -14 -50.5 -35.5t-17.5 -50.5q0 -45 40 -65.5t124 -20.5h436q176 0 264 -64.5t88 -193.5q0 -193 -172 -296.5t-489 -103.5q-285 0 -427 65t-142 196zM260 -88q0 -70 89 -104.5t265 -34.5q186 0 292 45t106 125q0 49 -36 69.5t-122 20.5h-371 q-115 0 -169 -30t-54 -91zM379 780q0 -96 60.5 -152.5t166.5 -56.5q104 0 159.5 58.5t55.5 169.5q0 96 -59.5 153.5t-159.5 57.5q-102 0 -162.5 -62t-60.5 -168z" />
<glyph unicode="h" horiz-adv-x="1339" d="M145 0v1669h261v-731h6q61 123 164.5 189.5t232.5 66.5q193 0 295 -122t102 -355v-717h-260v647q0 176 -58.5 256t-185.5 80q-139 0 -217.5 -104.5t-78.5 -286.5v-592h-261z" />
<glyph unicode="i" horiz-adv-x="557" d="M141 1405v264h277v-264h-277zM147 0v1169h263v-1169h-263z" />
<glyph unicode="j" horiz-adv-x="557" d="M-104 -174q31 -6 55 -9t49 -3q80 0 113.5 37.5t33.5 128.5v1189h263v-1200q0 -190 -82 -279t-258 -89q-37 0 -76 6t-72 16zM141 1405v264h277v-264h-277z" />
<glyph unicode="k" horiz-adv-x="1228" d="M145 0v1669h263v-1026l493 526h303l-407 -440l442 -729h-289l-348 596l-194 -199v-397h-263z" />
<glyph unicode="l" horiz-adv-x="550" d="M145 0v1669h261v-1669h-261z" />
<glyph unicode="m" horiz-adv-x="2035" d="M145 0v1169h256v-241h5q59 129 157.5 197.5t220.5 68.5q143 0 231.5 -78t114.5 -229h7q55 145 158.5 226t236.5 81q178 0 273.5 -121t95.5 -350v-723h-261v668q0 162 -51 238.5t-159 76.5q-131 0 -204 -104.5t-73 -290.5v-588h-260v668q0 162 -51 238.5t-162 76.5 q-129 0 -201.5 -104.5t-72.5 -290.5v-588h-261z" />
<glyph unicode="n" horiz-adv-x="1339" d="M145 0v1169h256v-241h5q61 127 165.5 196.5t237.5 69.5q193 0 295 -122t102 -355v-717h-260v647q0 176 -58.5 256t-185.5 80q-139 0 -217.5 -104.5t-78.5 -286.5v-592h-261z" />
<glyph unicode="o" horiz-adv-x="1290" d="M76 582q2 281 158.5 447.5t414.5 166.5t411.5 -163t153.5 -443q0 -289 -153.5 -453t-417.5 -164q-262 0 -414.5 162t-152.5 447zM342 586q0 -188 80 -292t225 -104q147 0 224 100.5t77 293.5q0 188 -78.5 291.5t-222.5 103.5q-147 0 -226 -101.5t-79 -291.5z" />
<glyph unicode="p" horiz-adv-x="1339" d="M145 -379v1548h256v-245h7q57 133 156.5 202.5t232.5 69.5q215 0 341 -165t126 -445q0 -279 -129 -446t-342 -167q-133 0 -229.5 60.5t-149.5 179.5h-8v-592h-261zM403 584q0 -180 82 -287t222 -107q137 0 213.5 105t76.5 291q0 182 -78.5 288.5t-211.5 106.5 q-141 0 -222.5 -105.5t-81.5 -291.5z" />
<glyph unicode="q" horiz-adv-x="1339" d="M76 575q0 279 142 450t362 171q123 0 212 -62.5t140 -185.5h6v221h256v-1550l-260 2v600h-8q-55 -121 -151.5 -184.5t-225.5 -63.5q-211 0 -342 165t-131 437zM342 580q0 -182 79 -286t216 -104q141 0 220 105t79 289t-79 290.5t-214 106.5q-141 0 -221 -106.5 t-80 -294.5z" />
<glyph unicode="r" horiz-adv-x="1064" d="M145 0v1169h258v-225h5q51 121 134.5 184.5t194.5 63.5q137 0 212 -90t75 -256q0 -39 -5 -86t-13 -86l-242 -27q8 35 13 80t5 80q0 98 -38.5 150.5t-112.5 52.5q-104 0 -164.5 -107.5t-60.5 -298.5v-604h-261z" />
<glyph unicode="s" horiz-adv-x="1142" d="M41 338l242 51q25 -109 103.5 -162t213.5 -53q109 0 169 42t60 120q0 41 -24.5 65.5t-81.5 40.5q-31 8 -96.5 19.5t-69.5 11.5q-184 33 -259 59.5t-118 67.5q-39 39 -59.5 94.5t-20.5 124.5q0 168 126 271.5t331 103.5q197 0 329 -94t167 -260l-228 -43q-20 98 -88.5 150 t-179.5 52q-98 0 -154.5 -42t-56.5 -117q0 -59 45 -90t223 -60q236 -41 292.5 -64.5t94.5 -60.5q37 -37 56.5 -89t19.5 -122q0 -172 -132 -275.5t-351 -103.5q-233 0 -373.5 92.5t-179.5 270.5z" />
<glyph unicode="t" horiz-adv-x="866" d="M-10 973v196h239v234l256 108v-342h328v-196h-328v-592q0 -109 42.5 -152t148.5 -43q43 0 75.5 3.5t61.5 11.5v-193q-53 -16 -107.5 -24.5t-117.5 -8.5q-186 0 -274.5 89.5t-88.5 277.5v631h-235z" />
<glyph unicode="u" horiz-adv-x="1331" d="M131 432v737h260v-657q0 -170 58.5 -248t185.5 -78q137 0 214 101.5t77 285.5v596h262v-1169h-256v240h-4q-61 -127 -165 -196t-235 -69q-195 0 -296 117t-101 340z" />
<glyph unicode="v" horiz-adv-x="1191" d="M16 1169h271l321 -927l303 927h265l-422 -1169h-301z" />
<glyph unicode="w" horiz-adv-x="1710" d="M18 1169h267l215 -884l252 884h219l266 -890l207 890h248l-320 -1169h-268l-246 868l-237 -868h-277z" />
<glyph unicode="x" horiz-adv-x="1179" d="M18 0l408 602l-389 567h278l279 -407l264 407h262l-381 -583l418 -586h-278l-306 428l-276 -428h-279z" />
<glyph unicode="y" horiz-adv-x="1189" d="M-49 -346l65 221q61 -27 119 -39t117 -12t104 22.5t78 71.5q12 16 21.5 31.5t15.5 32.5l-459 1187h273l323 -899l299 899h264l-413 -1124q-94 -256 -201.5 -352t-298.5 -96q-84 0 -169 15t-138 42z" />
<glyph unicode="z" horiz-adv-x="1124" d="M63 0v215l695 750h-652v204h947v-215l-680 -749h696v-205h-1006z" />
<glyph unicode="{" horiz-adv-x="845" d="M10 492v213h137q96 0 132 33.5t32 121.5l-20 510q-6 156 69.5 227.5t247.5 71.5h223v-211h-163q-76 0 -103.5 -24.5t-27.5 -92.5v-475q0 -127 -54.5 -188.5t-181.5 -77.5v-4q127 -16 181.5 -77.5t54.5 -190.5v-473q0 -68 28.5 -92.5t102.5 -24.5h163v-211h-223 q-170 0 -246.5 71.5t-70.5 227.5l20 508q4 90 -30.5 124t-133.5 34h-137z" />
<glyph unicode="|" horiz-adv-x="479" d="M131 -473v2142h217v-2142h-217z" />
<glyph unicode="}" horiz-adv-x="845" d="M16 -260h164q76 0 103.5 24.5t27.5 92.5v475q0 127 54.5 188.5t181.5 77.5v4q-127 16 -181.5 77.5t-54.5 190.5v473q0 68 -28.5 92.5t-102.5 24.5h-164v211h224q170 0 246.5 -71.5t70.5 -227.5l-20 -508q-4 -90 30.5 -123.5t132.5 -33.5h138v-213h-138q-96 0 -132 -34 t-31 -122l20 -510q6 -156 -69.5 -227.5t-247.5 -71.5h-224v211z" />
<glyph unicode="~" horiz-adv-x="1030" d="M74 569v82q0 166 60.5 250t178.5 84q51 0 100.5 -19.5t96.5 -58.5l74 -65q57 -49 82.5 -62.5t50.5 -13.5q37 0 49 30.5t12 112.5v78l176 -26v-91q0 -166 -53 -245.5t-164 -79.5q-57 0 -105 20.5t-106 69.5l-80 70q-45 37 -68.5 48t-49.5 11q-41 0 -58.5 -33t-17.5 -115 v-73z" />
<glyph unicode="&#xa1;" horiz-adv-x="581" d="M158 66l61 679h148l61 -679v-482h-270v482zM158 885v284h272v-284h-272z" />
<glyph unicode="&#xa2;" horiz-adv-x="1243" d="M76 580q0 240 124 403.5t332 202.5v266h224v-264q166 -27 273.5 -139.5t150.5 -303.5l-256 -45q-20 102 -65.5 167t-113.5 91v-753q72 23 120 80t75 155l246 -53q-39 -166 -151.5 -272t-278.5 -133v-312h-224v312q-217 33 -336.5 189.5t-119.5 408.5zM342 586 q0 -143 52 -241.5t149 -133.5v747q-96 -35 -148.5 -132t-52.5 -240z" />
<glyph unicode="&#xa3;" horiz-adv-x="1503" d="M74 209q0 109 78.5 176.5t205.5 67.5q25 0 49.5 -3.5t47.5 -9.5q-10 33 -29 74t-74 143h-274v166h190q-27 68 -40 129.5t-13 118.5q0 244 160 392.5t424 148.5q250 0 395 -142.5t170 -412.5l-277 -49q-12 176 -87.5 265t-213.5 89q-143 0 -222 -82t-79 -229 q0 -55 9.5 -106.5t33.5 -121.5h609v-166h-545q49 -133 61.5 -186t12.5 -102v-33q123 -80 196.5 -105.5t151.5 -25.5q104 0 146 51t40 166v51h225q6 -41 9.5 -76t3.5 -57q0 -174 -96.5 -269.5t-268.5 -95.5q-111 0 -209 40t-239 159q-43 -88 -120 -137t-173 -49 q-119 0 -188.5 60.5t-69.5 160.5zM233 221q0 -43 27 -66.5t74 -23.5q59 0 94 40t43 114q-31 16 -62.5 24t-62.5 8q-53 0 -83 -25.5t-30 -70.5z" />
<glyph unicode="&#xa4;" horiz-adv-x="1323" d="M131 397l133 133q-33 57 -50 122t-17 134q0 70 18 134.5t53 121.5l-137 136l125 127l131 -129q57 43 126 64.5t144 21.5q78 0 149 -24t126 -69l135 136l127 -127l-145 -144q31 -55 46 -117.5t15 -130.5q0 -66 -15.5 -128t-45.5 -115l145 -146l-127 -127l-135 138 q-57 -47 -128 -71t-151 -24q-78 0 -146.5 21.5t-125.5 62.5l-125 -127zM403 784q0 -119 70.5 -200.5t179.5 -81.5q115 0 182.5 77.5t67.5 206.5q0 125 -67.5 205t-178.5 80q-115 0 -184.5 -80t-69.5 -207z" />
<glyph unicode="&#xa5;" horiz-adv-x="1333" d="M0 1585h285l397 -715l385 715h264l-446 -819h334v-180h-406v-140h406v-180h-406v-266h-270v266h-406v180h406v140h-406v180h332z" />
<glyph unicode="&#xa6;" horiz-adv-x="479" d="M131 -473v971h217v-971h-217zM131 733v936h217v-936h-217z" />
<glyph unicode="&#xa7;" horiz-adv-x="1267" d="M55 737q0 94 53.5 167t153.5 116q-43 45 -65.5 102.5t-22.5 118.5q0 174 121 274.5t323 100.5q190 0 317.5 -95.5t162.5 -265.5l-217 -43q-23 102 -90.5 157.5t-172.5 55.5q-100 0 -156 -48t-56 -134q0 -63 40.5 -108t131.5 -78l374 -137q133 -49 195.5 -126t62.5 -190 q0 -96 -53.5 -170t-155.5 -119q41 -39 63.5 -92t22.5 -117q0 -176 -128 -277t-347 -101q-211 0 -354 97t-174 265l244 45q20 -102 96 -156.5t197 -54.5q109 0 170 45t61 125q0 66 -40 106t-142 79l-357 141q-137 57 -197.5 132t-60.5 185zM262 776q0 -59 41 -102t133 -80 l455 -180q53 27 79.5 63.5t26.5 87.5q0 59 -41 103.5t-129 76.5l-467 179q-49 -25 -73.5 -62t-24.5 -86z" />
<glyph unicode="&#xa8;" horiz-adv-x="1024" d="M188 1350v239h242v-239h-242zM592 1350v239h244v-239h-244z" />
<glyph unicode="&#xa9;" horiz-adv-x="1798" d="M98 786q0 356 226.5 590t584.5 234q350 0 570.5 -233.5t220.5 -590.5q0 -356 -223.5 -587.5t-577.5 -231.5t-577.5 231.5t-223.5 587.5zM242 786q0 -305 183 -497.5t476 -192.5q297 0 476 189.5t179 500.5q0 315 -175 505t-472 190q-307 0 -487 -188.5t-180 -506.5z M485 776q0 219 121 353.5t318 134.5q162 0 268 -90.5t137 -253.5l-190 -39q-18 100 -72.5 152t-140.5 52q-113 0 -175.5 -79.5t-62.5 -223.5q0 -135 63.5 -212.5t174.5 -77.5q88 0 141 47t80 147l186 -45q-35 -154 -142 -240t-267 -86q-203 0 -321 123t-118 338z" />
<glyph unicode="&#xaa;" horiz-adv-x="882" d="M49 508v151h828v-151h-828zM51 993q0 109 67.5 168.5t213.5 77.5l110 14q66 8 93.5 29t27.5 61q0 47 -32.5 74t-90.5 27q-66 0 -105.5 -36t-55.5 -108l-189 31q35 131 128 202t231 71q152 0 233.5 -79t81.5 -225v-288q0 -43 17.5 -61.5t58.5 -18.5q8 0 19 1t20 3v-137 q-18 -8 -51 -13.5t-64 -5.5q-94 0 -145.5 40t-57.5 118h-6q-39 -78 -107.5 -121t-154.5 -43q-111 0 -176.5 59.5t-65.5 159.5zM262 1022q0 -51 31 -77.5t88 -26.5q82 0 132 62t50 165v41q-12 -10 -31.5 -17.5t-56.5 -15.5l-88 -14q-66 -10 -95.5 -39t-29.5 -78z" />
<glyph unicode="&#xab;" horiz-adv-x="925" d="M2 174zM2 598l285 426h231l-285 -418l289 -432h-233zM403 598l285 426h231l-285 -418l289 -432h-233z" />
<glyph unicode="&#xac;" horiz-adv-x="1132" d="M137 750v176h860v-566h-190v390h-670z" />
<glyph unicode="&#xad;" horiz-adv-x="833" d="M92 571v195h649v-195h-649zM92 571z" />
<glyph unicode="&#xae;" horiz-adv-x="1040" d="M82 1214q0 190 122 315.5t316 125.5q195 0 316.5 -124t121.5 -314t-121.5 -314.5t-314.5 -124.5q-197 0 -318.5 123t-121.5 313zM162 1214q0 -164 99 -264t261 -100q164 0 261.5 99.5t97.5 267.5t-97.5 267t-263.5 99t-262 -99.5t-96 -269.5zM340 979v496h219 q94 0 144.5 -36t50.5 -102q0 -53 -36 -89t-100 -44v-2q39 -8 58.5 -29.5t34.5 -70.5q16 -53 24 -78t17 -41v-4h-121q-8 16 -13.5 38.5t-13.5 69.5q-10 51 -25.5 64.5t-62.5 13.5h-67v-186h-109zM449 1241h94q49 0 73.5 18.5t24.5 57.5q0 37 -24.5 53t-77.5 16h-90v-145z" />
<glyph unicode="&#xaf;" horiz-adv-x="1024" d="M186 1348v161h652v-161h-652z" />
<glyph unicode="&#xb0;" horiz-adv-x="987" d="M180 1286q0 135 88 225.5t228 90.5q137 0 223 -90.5t86 -225.5q0 -137 -87 -227t-226 -90t-225.5 88t-86.5 229zM315 1286q0 -82 48.5 -133t128.5 -51q82 0 130 51t48 133t-47 133t-127 51t-130.5 -51t-50.5 -133z" />
<glyph unicode="&#xb1;" horiz-adv-x="1185" d="M156 -4v186h872v-186h-872zM156 731v184h336v365h202v-365h334v-184h-334v-358h-202v358h-336z" />
<glyph unicode="&#xb2;" horiz-adv-x="716" d="M57 954zM57 956v115l252 182q92 70 131 124t39 111q0 55 -29.5 85t-82.5 30q-68 0 -103 -50t-33 -144l-170 28q2 150 86 236t230 86q131 0 208 -68.5t77 -185.5q0 -88 -48.5 -160t-164.5 -160l-117 -86h344v-143h-619z" />
<glyph unicode="&#xb3;" horiz-adv-x="681" d="M31 940zM31 1198l166 37q10 -74 50 -111t109 -37q61 0 93 28.5t32 82.5q0 51 -35.5 74.5t-113.5 23.5h-101v131h91q63 0 95 24.5t32 71.5q0 43 -26 65.5t-75 22.5q-57 0 -90 -31.5t-41 -95.5l-160 33q25 115 106 178.5t202 63.5q119 0 190.5 -55.5t71.5 -147.5 q0 -63 -35 -109.5t-100 -72.5v-2q84 -20 124.5 -67.5t40.5 -123.5q0 -109 -80.5 -174t-216.5 -65q-141 0 -227 66.5t-102 189.5z" />
<glyph unicode="&#xb4;" horiz-adv-x="1024" d="M315 1290l144 377h252l-207 -377h-189z" />
<glyph unicode="&#xb5;" horiz-adv-x="1378" d="M131 -379v1548h260v-694q0 -147 63.5 -219t194.5 -72t205 109.5t74 314.5v561h260v-856q0 -78 27.5 -107.5t99.5 -29.5q16 0 28.5 1t22.5 3v-178q-20 -8 -62 -14t-90 -6q-141 0 -211.5 67.5t-70.5 202.5v6h-6q-51 -137 -143.5 -210t-213.5 -73q-53 0 -100 10.5t-88 30.5 v-395h-250z" />
<glyph unicode="&#xb6;" horiz-adv-x="1179" d="M84 1184q0 190 124 295.5t351 105.5h490v-1851h-150v1734h-137v-1734h-148v1036h-57q-221 0 -347 110.5t-126 303.5z" />
<glyph unicode="&#xb7;" horiz-adv-x="403" d="M66 520v287h272v-287h-272z" />
<glyph unicode="&#xb8;" horiz-adv-x="1024" d="M238 -418l59 133q43 -23 100.5 -36t110.5 -13q61 0 92 19.5t31 56.5q0 31 -18.5 47t-53.5 16q-27 0 -49.5 -11t-32.5 -32l-100 21l74 242h139l-43 -144q14 4 30.5 6t38.5 2q74 0 122 -44t48 -117q0 -92 -72.5 -148.5t-195.5 -56.5q-78 0 -153.5 16.5t-126.5 42.5z" />
<glyph unicode="&#xb9;" horiz-adv-x="448" d="M12 954zM12 1517v133h129q47 0 61.5 11.5t16.5 50.5l2 35h141v-791h-180v561h-170z" />
<glyph unicode="&#xba;" horiz-adv-x="882" d="M35 508v151h813v-151h-813zM47 1188q2 188 110.5 302t286.5 114t285 -112t107 -300q0 -197 -107 -307.5t-289 -110.5t-287.5 110.5t-105.5 303.5zM258 1190q0 -117 48 -181.5t136 -64.5q90 0 137.5 62.5t47.5 183.5q0 117 -48.5 181.5t-134.5 64.5q-88 0 -137 -64.5 t-49 -181.5z" />
<glyph unicode="&#xbb;" horiz-adv-x="925" d="M2 174zM2 1024h231l289 -426l-286 -424h-232l285 418zM403 1024h231l289 -426l-286 -424h-232l285 418z" />
<glyph unicode="&#xbc;" horiz-adv-x="1472" d="M12 0l1153 1585h227l-1144 -1585h-236zM12 0zM41 795zM41 1356v133h129q47 0 61.5 11.5t16.5 50.5l2 35h141v-791h-180v561h-170zM795 158v155l364 478h172v-492h125v-141h-125v-158h-180v158h-356zM936 299h227v307z" />
<glyph unicode="&#xbd;" horiz-adv-x="1540" d="M12 0l1153 1585h227l-1144 -1585h-236zM12 0zM41 795zM41 1356v133h129q47 0 61.5 11.5t16.5 50.5l2 35h141v-791h-180v561h-170zM880 0v115l252 182q92 70 131 124t39 111q0 55 -29.5 85t-82.5 30q-68 0 -103 -50t-33 -144l-170 28q2 150 86 236t230 86q131 0 208 -68.5 t77 -185.5q0 -88 -48.5 -160t-164.5 -160l-117 -86h344v-143h-619z" />
<glyph unicode="&#xbe;" horiz-adv-x="1679" d="M80 0zM82 780zM82 1037l166 37q10 -74 50 -111t109 -37q61 0 93 28.5t32 82.5q0 51 -35.5 74.5t-113.5 23.5h-101v131h91q63 0 95 24.5t32 71.5q0 43 -26 65.5t-75 22.5q-57 0 -90 -31.5t-41 -95.5l-160 33q25 115 106 178.5t202 63.5q119 0 190.5 -55.5t71.5 -147.5 q0 -63 -35 -109.5t-100 -72.5v-2q84 -20 124.5 -67.5t40.5 -123.5q0 -109 -80.5 -174t-216.5 -65q-141 0 -227 66.5t-102 189.5zM219 0l1153 1585h227l-1144 -1585h-236zM1002 158v155l364 478h172v-492h125v-141h-125v-158h-180v158h-356zM1143 299h227v307z" />
<glyph unicode="&#xbf;" horiz-adv-x="1136" d="M20 -4q0 119 54.5 210t195.5 200q141 106 169 155t28 144v47h240v-70q0 -117 -42 -194.5t-173 -182.5q-111 -88 -150 -150.5t-39 -140.5q0 -106 68.5 -167.5t187.5 -61.5q143 0 221 82t107 260l254 -47q-41 -248 -198 -385t-398 -137q-236 0 -380.5 120.5t-144.5 317.5z M451 885v284h272v-284h-272z" />
<glyph unicode="&#xc0;" horiz-adv-x="1511" d="M39 0l539 1585h325l570 -1585h-289l-123 371h-633l-119 -371h-270zM39 0zM494 1997h252l104 -301h-209zM496 584h495l-252 759z" />
<glyph unicode="&#xc1;" horiz-adv-x="1511" d="M39 0l539 1585h325l570 -1585h-289l-123 371h-633l-119 -371h-270zM39 0zM496 584h495l-252 759zM641 1696l106 301h250l-147 -301h-209z" />
<glyph unicode="&#xc2;" horiz-adv-x="1511" d="M39 0l539 1585h325l570 -1585h-289l-123 371h-633l-119 -371h-270zM39 0zM404 1688l262 303h162l264 -303h-201l-147 137l-143 -137h-197zM496 584h495l-252 759z" />
<glyph unicode="&#xc3;" horiz-adv-x="1511" d="M39 0l539 1585h325l570 -1585h-289l-123 371h-633l-119 -371h-270zM39 0zM379 1700q-4 137 51.5 215t159.5 78q43 0 87 -15.5t114 -64.5q51 -35 75.5 -45t47.5 -10q39 0 55.5 31.5t14.5 101.5l143 -19q4 -139 -45 -214t-148 -75q-43 0 -86 15.5t-116 62.5 q-51 35 -77 45.5t-46 10.5q-43 0 -62.5 -32t-19.5 -104zM496 584h495l-252 759z" />
<glyph unicode="&#xc4;" horiz-adv-x="1511" d="M39 0l539 1585h325l570 -1585h-289l-123 371h-633l-119 -371h-270zM39 0zM422 1698v239h242v-239h-242zM496 584h495l-252 759zM830 1698v239h244v-239h-244z" />
<glyph unicode="&#xc5;" horiz-adv-x="1511" d="M39 0l539 1585h325l570 -1585h-289l-123 371h-633l-119 -371h-270zM39 0zM496 584h495l-252 759zM529 1891q0 98 62.5 161.5t158.5 63.5t156.5 -61.5t60.5 -159.5q0 -100 -61.5 -162.5t-157.5 -62.5q-98 0 -158.5 61t-60.5 160zM644 1891q0 -53 29.5 -84t78.5 -31t77 31 t28 86q0 57 -29 89t-78 32q-47 0 -76.5 -34t-29.5 -89z" />
<glyph unicode="&#xc6;" horiz-adv-x="2154" d="M12 0l785 1585h1235v-223h-858l61 -434h747v-217h-716l69 -488h738v-223h-971l-51 371h-582l-174 -371h-283zM569 584h453l-104 745z" />
<glyph unicode="&#xc7;" horiz-adv-x="1570" d="M88 774q0 377 209 607.5t545 230.5q272 0 449 -151.5t233 -432.5l-269 -53q-39 197 -144 297t-273 100q-223 0 -348 -155.5t-125 -436.5q0 -264 125.5 -415.5t347.5 -151.5q172 0 276.5 90t157.5 285l260 -64q-63 -254 -231 -395t-422 -154l-27 -94q14 4 30.5 6t39.5 2 q74 0 122 -44t48 -117q0 -92 -73 -148.5t-196 -56.5q-78 0 -153.5 16.5t-126.5 42.5l59 133q43 -23 100.5 -36t110.5 -13q61 0 92 19.5t31 56.5q0 31 -18.5 47t-53.5 16q-27 0 -49 -11t-33 -32l-100 21l59 194q-305 29 -479 240t-174 557z" />
<glyph unicode="&#xc8;" horiz-adv-x="1353" d="M160 0v1585h1071v-223h-803v-434h754v-217h-754v-488h844v-223h-1112zM160 0zM475 1997h252l104 -301h-209z" />
<glyph unicode="&#xc9;" horiz-adv-x="1353" d="M160 0v1585h1071v-223h-803v-434h754v-217h-754v-488h844v-223h-1112zM160 0zM623 1696l106 301h250l-147 -301h-209z" />
<glyph unicode="&#xca;" horiz-adv-x="1353" d="M160 0v1585h1071v-223h-803v-434h754v-217h-754v-488h844v-223h-1112zM160 0zM383 1688l262 303h162l264 -303h-201l-147 137l-143 -137h-197z" />
<glyph unicode="&#xcb;" horiz-adv-x="1353" d="M160 0v1585h1071v-223h-803v-434h754v-217h-754v-488h844v-223h-1112zM160 0zM401 1698v239h242v-239h-242zM809 1698v239h244v-239h-244z" />
<glyph unicode="&#xcc;" horiz-adv-x="600" d="M45 0zM47 1997h252l104 -301h-209zM166 0v1585h268v-1585h-268z" />
<glyph unicode="&#xcd;" horiz-adv-x="600" d="M166 0v1585h268v-1585h-268zM166 0zM195 1696l106 301h250l-147 -301h-209z" />
<glyph unicode="&#xce;" horiz-adv-x="600" d="M-45 1688l262 303h162l264 -303h-201l-147 137l-143 -137h-197zM0 0zM166 0v1585h268v-1585h-268z" />
<glyph unicode="&#xcf;" horiz-adv-x="600" d="M-27 1698v239h242v-239h-242zM0 0zM166 0v1585h268v-1585h-268zM381 1698v239h244v-239h-244z" />
<glyph unicode="&#xd0;" horiz-adv-x="1638" d="M-20 711v188h200v686h506q416 0 641 -205.5t225 -582.5q0 -371 -229 -584t-635 -213h-508v711h-200zM449 227h227q299 0 449.5 143.5t150.5 430.5q0 274 -148.5 415.5t-435.5 141.5h-243v-459h352v-188h-352v-484z" />
<glyph unicode="&#xd1;" horiz-adv-x="1593" d="M160 0v1585h329l701 -1182v1182h246v-1585h-283l-747 1245v-1245h-246zM160 0zM448 1686q-4 137 51.5 215t159.5 78q43 0 87 -15.5t114 -64.5q51 -35 75.5 -45t47.5 -10q39 0 55.5 31.5t14.5 101.5l143 -19q4 -139 -45 -214t-148 -75q-43 0 -86 15.5t-116 62.5 q-51 35 -77 45.5t-46 10.5q-43 0 -62.5 -32t-19.5 -104z" />
<glyph unicode="&#xd2;" d="M88 0zM88 782q0 375 203 602.5t538 227.5q334 0 530.5 -222.5t196.5 -596.5q0 -377 -196.5 -598.5t-530.5 -221.5q-348 0 -544.5 215t-196.5 594zM365 784q0 -268 121.5 -419.5t338.5 -151.5q115 0 203.5 42t147.5 124q53 72 78.5 173t25.5 232q0 276 -119 432t-330 156 q-117 0 -208 -44t-152 -130q-53 -76 -79.5 -180.5t-26.5 -233.5zM580 1997h252l104 -301h-209z" />
<glyph unicode="&#xd3;" d="M88 0zM88 782q0 375 203 602.5t538 227.5q334 0 530.5 -222.5t196.5 -596.5q0 -377 -196.5 -598.5t-530.5 -221.5q-348 0 -544.5 215t-196.5 594zM365 784q0 -268 121.5 -419.5t338.5 -151.5q115 0 203.5 42t147.5 124q53 72 78.5 173t25.5 232q0 276 -119 432t-330 156 q-117 0 -208 -44t-152 -130q-53 -76 -79.5 -180.5t-26.5 -233.5zM727 1696l106 301h250l-147 -301h-209z" />
<glyph unicode="&#xd4;" d="M88 0zM88 782q0 375 203 602.5t538 227.5q334 0 530.5 -222.5t196.5 -596.5q0 -377 -196.5 -598.5t-530.5 -221.5q-348 0 -544.5 215t-196.5 594zM365 784q0 -268 121.5 -419.5t338.5 -151.5q115 0 203.5 42t147.5 124q53 72 78.5 173t25.5 232q0 276 -119 432t-330 156 q-117 0 -208 -44t-152 -130q-53 -76 -79.5 -180.5t-26.5 -233.5zM490 1688l262 303h162l264 -303h-201l-147 137l-143 -137h-197z" />
<glyph unicode="&#xd5;" d="M88 0zM88 782q0 375 203 602.5t538 227.5q334 0 530.5 -222.5t196.5 -596.5q0 -377 -196.5 -598.5t-530.5 -221.5q-348 0 -544.5 215t-196.5 594zM365 784q0 -268 121.5 -419.5t338.5 -151.5q115 0 203.5 42t147.5 124q53 72 78.5 173t25.5 232q0 276 -119 432t-330 156 q-117 0 -208 -44t-152 -130q-53 -76 -79.5 -180.5t-26.5 -233.5zM465 1700q-4 137 51.5 215t159.5 78q43 0 87 -15.5t114 -64.5q51 -35 75.5 -45t47.5 -10q39 0 55.5 31.5t14.5 101.5l143 -19q4 -139 -45 -214t-148 -75q-43 0 -86 15.5t-116 62.5q-51 35 -77 45.5t-46 10.5 q-43 0 -62.5 -32t-19.5 -104z" />
<glyph unicode="&#xd6;" d="M88 0zM88 782q0 375 203 602.5t538 227.5q334 0 530.5 -222.5t196.5 -596.5q0 -377 -196.5 -598.5t-530.5 -221.5q-348 0 -544.5 215t-196.5 594zM365 784q0 -268 121.5 -419.5t338.5 -151.5q115 0 203.5 42t147.5 124q53 72 78.5 173t25.5 232q0 276 -119 432t-330 156 q-117 0 -208 -44t-152 -130q-53 -76 -79.5 -180.5t-26.5 -233.5zM508 1698v239h242v-239h-242zM916 1698v239h244v-239h-244z" />
<glyph unicode="&#xd7;" horiz-adv-x="1185" d="M164 1040l141 144l297 -299l281 293l137 -138l-281 -292l281 -283l-141 -141l-289 290l-285 -290l-139 137l287 291z" />
<glyph unicode="&#xd8;" d="M88 782q0 375 203 602.5t538 227.5q133 0 247 -37t204 -109l119 140l137 -111l-133 -158q76 -106 114.5 -244.5t38.5 -299.5q0 -377 -196.5 -598.5t-530.5 -221.5q-137 0 -251.5 35t-206.5 103l-133 -156l-138 123l140 166q-76 102 -114 238t-38 300zM365 784 q0 -100 17 -185t50 -150l676 827q-53 47 -123 71.5t-154 24.5q-117 0 -208 -44t-152 -130q-53 -76 -79.5 -180.5t-26.5 -233.5zM543 305q55 -45 125.5 -68.5t156.5 -23.5q115 0 203.5 42t147.5 124q53 72 78.5 173t25.5 232q0 104 -16.5 192.5t-49.5 158.5z" />
<glyph unicode="&#xd9;" horiz-adv-x="1585" d="M141 0zM141 602v983h269v-950q0 -213 97 -315.5t302 -102.5q188 0 279.5 104.5t91.5 321.5v942h266v-952q0 -322 -166 -491t-477 -169q-328 0 -495 159t-167 470zM541 1983h252l104 -301h-209z" />
<glyph unicode="&#xda;" horiz-adv-x="1585" d="M141 0zM141 602v983h269v-950q0 -213 97 -315.5t302 -102.5q188 0 279.5 104.5t91.5 321.5v942h266v-952q0 -322 -166 -491t-477 -169q-328 0 -495 159t-167 470zM688 1682l106 301h250l-147 -301h-209z" />
<glyph unicode="&#xdb;" horiz-adv-x="1585" d="M141 0zM141 602v983h269v-950q0 -213 97 -315.5t302 -102.5q188 0 279.5 104.5t91.5 321.5v942h266v-952q0 -322 -166 -491t-477 -169q-328 0 -495 159t-167 470zM449 1674l262 303h162l264 -303h-201l-147 137l-143 -137h-197z" />
<glyph unicode="&#xdc;" horiz-adv-x="1585" d="M141 0zM141 602v983h269v-950q0 -213 97 -315.5t302 -102.5q188 0 279.5 104.5t91.5 321.5v942h266v-952q0 -322 -166 -491t-477 -169q-328 0 -495 159t-167 470zM467 1684v239h242v-239h-242zM875 1684v239h244v-239h-244z" />
<glyph unicode="&#xdd;" horiz-adv-x="1333" d="M0 0zM0 1585h285l397 -715l385 715h264l-518 -950v-635h-270v639zM584 1696l106 301h250l-147 -301h-209z" />
<glyph unicode="&#xde;" horiz-adv-x="1388" d="M160 0v1585h268v-301h334q279 0 425 -122t146 -353q0 -246 -150.5 -376t-434.5 -130h-320v-303h-268zM428 526h274q193 0 274 63.5t81 213.5q0 131 -84 195.5t-256 64.5h-289v-537z" />
<glyph unicode="&#xdf;" horiz-adv-x="1378" d="M154 0v1063q0 297 149.5 458.5t419.5 161.5q213 0 341 -105t128 -280q0 -129 -78 -225t-213 -135v-4q199 -45 302.5 -162t103.5 -293q0 -236 -138.5 -367.5t-386.5 -131.5q-57 0 -112.5 6t-108.5 18v215q51 -10 94 -15t84 -5q147 0 227.5 80.5t80.5 230.5t-99.5 224.5 t-300.5 74.5h-61v205h80q133 0 202.5 60t69.5 175q0 102 -60.5 159.5t-170.5 57.5q-143 0 -218 -94t-75 -276v-1096h-260z" />
<glyph unicode="&#xe0;" horiz-adv-x="1280" d="M76 0zM76 297q0 86 30.5 150.5t94.5 111.5q49 37 120.5 61.5t170.5 38.5l163 23q98 14 140.5 47t42.5 96q0 76 -53.5 119t-147.5 43q-111 0 -177.5 -56.5t-92.5 -172.5l-242 43q51 190 185 292.5t331 102.5q217 0 333 -112.5t116 -325.5v-445q0 -76 27.5 -106.5 t99.5 -30.5q14 0 25 1t26 3v-178q-23 -8 -66 -14t-86 -6q-133 0 -204.5 60t-77.5 179h-5q-57 -121 -158.5 -184.5t-238.5 -63.5q-164 0 -260 87t-96 237zM344 332q0 -82 50 -127t143 -45q137 0 219 101t82 269v64q-20 -16 -55 -28.5t-95 -22.5l-141 -25q-106 -18 -154.5 -62 t-48.5 -124zM344 1667h252l144 -377h-189z" />
<glyph unicode="&#xe1;" horiz-adv-x="1280" d="M76 0zM76 297q0 86 30.5 150.5t94.5 111.5q49 37 120.5 61.5t170.5 38.5l163 23q98 14 140.5 47t42.5 96q0 76 -53.5 119t-147.5 43q-111 0 -177.5 -56.5t-92.5 -172.5l-242 43q51 190 185 292.5t331 102.5q217 0 333 -112.5t116 -325.5v-445q0 -76 27.5 -106.5 t99.5 -30.5q14 0 25 1t26 3v-178q-23 -8 -66 -14t-86 -6q-133 0 -204.5 60t-77.5 179h-5q-57 -121 -158.5 -184.5t-238.5 -63.5q-164 0 -260 87t-96 237zM344 332q0 -82 50 -127t143 -45q137 0 219 101t82 269v64q-20 -16 -55 -28.5t-95 -22.5l-141 -25q-106 -18 -154.5 -62 t-48.5 -124zM551 1290l144 377h252l-207 -377h-189z" />
<glyph unicode="&#xe2;" horiz-adv-x="1280" d="M76 0zM76 297q0 86 30.5 150.5t94.5 111.5q49 37 120.5 61.5t170.5 38.5l163 23q98 14 140.5 47t42.5 96q0 76 -53.5 119t-147.5 43q-111 0 -177.5 -56.5t-92.5 -172.5l-242 43q51 190 185 292.5t331 102.5q217 0 333 -112.5t116 -325.5v-445q0 -76 27.5 -106.5 t99.5 -30.5q14 0 25 1t26 3v-178q-23 -8 -66 -14t-86 -6q-133 0 -204.5 60t-77.5 179h-5q-57 -121 -158.5 -184.5t-238.5 -63.5q-164 0 -260 87t-96 237zM303 1290l258 377h162l264 -377h-192l-156 191l-148 -191h-188zM344 332q0 -82 50 -127t143 -45q137 0 219 101t82 269 v64q-20 -16 -55 -28.5t-95 -22.5l-141 -25q-106 -18 -154.5 -62t-48.5 -124z" />
<glyph unicode="&#xe3;" horiz-adv-x="1280" d="M76 0zM76 297q0 86 30.5 150.5t94.5 111.5q49 37 120.5 61.5t170.5 38.5l163 23q98 14 140.5 47t42.5 96q0 76 -53.5 119t-147.5 43q-111 0 -177.5 -56.5t-92.5 -172.5l-242 43q51 190 185 292.5t331 102.5q217 0 333 -112.5t116 -325.5v-445q0 -76 27.5 -106.5 t99.5 -30.5q14 0 25 1t26 3v-178q-23 -8 -66 -14t-86 -6q-133 0 -204.5 60t-77.5 179h-5q-57 -121 -158.5 -184.5t-238.5 -63.5q-164 0 -260 87t-96 237zM268 1325q-4 147 51.5 229t159.5 82q43 0 87 -17t114 -73q51 -41 75.5 -52t47.5 -11q39 0 55.5 35.5t14.5 115.5 l143 -18q4 -147 -46 -227t-147 -80q-43 0 -86 17t-116 73q-51 41 -77 52t-46 11q-43 0 -62.5 -36.5t-19.5 -118.5zM344 332q0 -82 50 -127t143 -45q137 0 219 101t82 269v64q-20 -16 -55 -28.5t-95 -22.5l-141 -25q-106 -18 -154.5 -62t-48.5 -124z" />
<glyph unicode="&#xe4;" horiz-adv-x="1280" d="M76 0zM76 297q0 86 30.5 150.5t94.5 111.5q49 37 120.5 61.5t170.5 38.5l163 23q98 14 140.5 47t42.5 96q0 76 -53.5 119t-147.5 43q-111 0 -177.5 -56.5t-92.5 -172.5l-242 43q51 190 185 292.5t331 102.5q217 0 333 -112.5t116 -325.5v-445q0 -76 27.5 -106.5 t99.5 -30.5q14 0 25 1t26 3v-178q-23 -8 -66 -14t-86 -6q-133 0 -204.5 60t-77.5 179h-5q-57 -121 -158.5 -184.5t-238.5 -63.5q-164 0 -260 87t-96 237zM321 1350v239h242v-239h-242zM344 332q0 -82 50 -127t143 -45q137 0 219 101t82 269v64q-20 -16 -55 -28.5t-95 -22.5 l-141 -25q-106 -18 -154.5 -62t-48.5 -124zM725 1350v239h244v-239h-244z" />
<glyph unicode="&#xe5;" horiz-adv-x="1280" d="M76 0zM76 297q0 86 30.5 150.5t94.5 111.5q49 37 120.5 61.5t170.5 38.5l163 23q98 14 140.5 47t42.5 96q0 76 -53.5 119t-147.5 43q-111 0 -177.5 -56.5t-92.5 -172.5l-242 43q51 190 185 292.5t331 102.5q217 0 333 -112.5t116 -325.5v-445q0 -76 27.5 -106.5 t99.5 -30.5q14 0 25 1t26 3v-178q-23 -8 -66 -14t-86 -6q-133 0 -204.5 60t-77.5 179h-5q-57 -121 -158.5 -184.5t-238.5 -63.5q-164 0 -260 87t-96 237zM344 332q0 -82 50 -127t143 -45q137 0 219 101t82 269v64q-20 -16 -55 -28.5t-95 -22.5l-141 -25q-106 -18 -154.5 -62 t-48.5 -124zM403 1542q0 109 70 178.5t176 69.5q104 0 171 -68.5t67 -177.5t-68 -178.5t-174 -69.5q-109 0 -175.5 68t-66.5 178zM524 1542q0 -61 34 -98t87 -37q57 0 90 36t33 99q0 66 -32 101.5t-89 35.5q-55 0 -89 -38t-34 -99z" />
<glyph unicode="&#xe6;" horiz-adv-x="1986" d="M76 297q0 86 30.5 150.5t94.5 111.5q49 37 120.5 61.5t170.5 38.5l163 23q98 14 140.5 47t42.5 96q0 76 -53.5 119t-145.5 43q-111 0 -178.5 -56.5t-93.5 -172.5l-242 43q51 193 180 294t320 101q125 0 217 -47t149 -137q68 88 173.5 136t228.5 48q139 0 250.5 -59.5 t179.5 -169.5q51 -84 76.5 -193.5t23.5 -243.5h-829q10 -162 96 -254t227 -92q111 0 184.5 53.5t114.5 163.5l221 -69q-63 -174 -198 -266.5t-328 -92.5q-176 0 -303 70t-188 201q-70 -135 -184.5 -203t-270.5 -68q-184 0 -286.5 85t-102.5 239zM344 330q0 -82 50 -126 t143 -44q137 0 219 103.5t82 275.5v53q-20 -16 -53 -26.5t-97 -22.5l-141 -25q-106 -18 -154.5 -63t-48.5 -125zM1098 696h563q-4 43 -12.5 78t-22.5 66q-33 72 -94.5 109.5t-142.5 37.5q-123 0 -199 -75.5t-92 -215.5z" />
<glyph unicode="&#xe7;" horiz-adv-x="1243" d="M76 580q0 274 159.5 445t413.5 171q211 0 346 -115.5t185 -335.5l-256 -45q-27 135 -97.5 205t-179.5 70q-141 0 -223 -103.5t-82 -285.5t82 -287.5t225 -105.5q113 0 183.5 60t107.5 187l246 -53q-43 -178 -168 -286.5t-309 -125.5l-29 -96q14 4 30.5 6t39.5 2 q74 0 122 -44t48 -117q0 -92 -73 -148.5t-196 -56.5q-78 0 -153.5 16.5t-126.5 42.5l59 133q43 -23 100.5 -36t110.5 -13q61 0 92 19.5t31 56.5q0 31 -18.5 47t-53.5 16q-27 0 -49 -11t-33 -32l-100 21l59 196q-236 23 -364.5 180.5t-128.5 422.5z" />
<glyph unicode="&#xe8;" horiz-adv-x="1239" d="M76 0zM76 580q0 270 159.5 443t409.5 173q156 0 270.5 -67.5t180.5 -194.5q41 -84 61.5 -184.5t18.5 -219.5h-838q10 -162 96 -254t230 -92q115 0 189.5 53.5t115.5 163.5l221 -69q-63 -172 -201.5 -265.5t-331.5 -93.5q-268 0 -424.5 164t-156.5 443zM340 1667h252 l144 -377h-189zM342 696h571q-2 43 -11 78t-23 70q-31 68 -92.5 105.5t-143.5 37.5q-123 0 -203 -76.5t-98 -214.5z" />
<glyph unicode="&#xe9;" horiz-adv-x="1239" d="M76 0zM76 580q0 270 159.5 443t409.5 173q156 0 270.5 -67.5t180.5 -194.5q41 -84 61.5 -184.5t18.5 -219.5h-838q10 -162 96 -254t230 -92q115 0 189.5 53.5t115.5 163.5l221 -69q-63 -172 -201.5 -265.5t-331.5 -93.5q-268 0 -424.5 164t-156.5 443zM342 696h571 q-2 43 -11 78t-23 70q-31 68 -92.5 105.5t-143.5 37.5q-123 0 -203 -76.5t-98 -214.5zM546 1290l144 377h252l-207 -377h-189z" />
<glyph unicode="&#xea;" horiz-adv-x="1239" d="M76 0zM76 580q0 270 159.5 443t409.5 173q156 0 270.5 -67.5t180.5 -194.5q41 -84 61.5 -184.5t18.5 -219.5h-838q10 -162 96 -254t230 -92q115 0 189.5 53.5t115.5 163.5l221 -69q-63 -172 -201.5 -265.5t-331.5 -93.5q-268 0 -424.5 164t-156.5 443zM299 1290l258 377 h162l264 -377h-192l-156 191l-148 -191h-188zM342 696h571q-2 43 -11 78t-23 70q-31 68 -92.5 105.5t-143.5 37.5q-123 0 -203 -76.5t-98 -214.5z" />
<glyph unicode="&#xeb;" horiz-adv-x="1239" d="M76 0zM76 580q0 270 159.5 443t409.5 173q156 0 270.5 -67.5t180.5 -194.5q41 -84 61.5 -184.5t18.5 -219.5h-838q10 -162 96 -254t230 -92q115 0 189.5 53.5t115.5 163.5l221 -69q-63 -172 -201.5 -265.5t-331.5 -93.5q-268 0 -424.5 164t-156.5 443zM317 1350v239h242 v-239h-242zM342 696h571q-2 43 -11 78t-23 70q-31 68 -92.5 105.5t-143.5 37.5q-123 0 -203 -76.5t-98 -214.5zM721 1350v239h244v-239h-244z" />
<glyph unicode="&#xec;" horiz-adv-x="557" d="M-21 1667h252l144 -377h-189zM0 0zM147 0v1169h263v-1169h-263z" />
<glyph unicode="&#xed;" horiz-adv-x="557" d="M147 0v1169h263v-1169h-263zM147 0zM186 1290l144 377h252l-207 -377h-189z" />
<glyph unicode="&#xee;" horiz-adv-x="557" d="M-61 1290l258 377h162l264 -377h-192l-156 191l-148 -191h-188zM0 0zM147 0v1169h263v-1169h-263z" />
<glyph unicode="&#xef;" horiz-adv-x="557" d="M-43 1350v239h242v-239h-242zM0 0zM147 0v1169h263v-1169h-263zM361 1350v239h244v-239h-244z" />
<glyph unicode="&#xf0;" horiz-adv-x="1286" d="M76 508q0 236 140 383t364 147q98 0 181 -38.5t140 -112.5l8 2q-18 47 -48 100t-95 146l-74 104l-182 -119l-84 127l180 115l-143 203l201 123l153 -213l195 122l86 -127l-193 -118l66 -88q121 -168 181 -331t60 -323q0 -133 -28.5 -239.5t-85.5 -182.5 q-72 -106 -191 -160.5t-274 -54.5q-254 0 -405.5 145.5t-151.5 389.5zM342 520q0 -156 81 -243t224 -87q141 0 220 88.5t79 243.5q0 160 -79 250t-220 90q-147 0 -226 -89t-79 -253z" />
<glyph unicode="&#xf1;" horiz-adv-x="1339" d="M145 0v1169h256v-241h5q61 127 165.5 196.5t237.5 69.5q193 0 295 -122t102 -355v-717h-260v647q0 176 -58.5 256t-185.5 80q-139 0 -217.5 -104.5t-78.5 -286.5v-592h-261zM145 0zM305 1325q-4 147 51.5 229t159.5 82q43 0 87 -17t114 -73q51 -41 75.5 -52t47.5 -11 q39 0 55.5 35.5t14.5 115.5l143 -18q4 -147 -46 -227t-147 -80q-43 0 -86 17t-116 73q-51 41 -77 52t-46 11q-43 0 -62.5 -36.5t-19.5 -118.5z" />
<glyph unicode="&#xf2;" horiz-adv-x="1290" d="M76 0zM76 582q2 281 158.5 447.5t414.5 166.5t411.5 -163t153.5 -443q0 -289 -153.5 -453t-417.5 -164q-262 0 -414.5 162t-152.5 447zM342 586q0 -188 80 -292t225 -104q147 0 224 100.5t77 293.5q0 188 -78.5 291.5t-222.5 103.5q-147 0 -226 -101.5t-79 -291.5z M344 1667h252l144 -377h-189z" />
<glyph unicode="&#xf3;" horiz-adv-x="1290" d="M76 0zM76 582q2 281 158.5 447.5t414.5 166.5t411.5 -163t153.5 -443q0 -289 -153.5 -453t-417.5 -164q-262 0 -414.5 162t-152.5 447zM342 586q0 -188 80 -292t225 -104q147 0 224 100.5t77 293.5q0 188 -78.5 291.5t-222.5 103.5q-147 0 -226 -101.5t-79 -291.5z M551 1290l144 377h252l-207 -377h-189z" />
<glyph unicode="&#xf4;" horiz-adv-x="1290" d="M76 0zM76 582q2 281 158.5 447.5t414.5 166.5t411.5 -163t153.5 -443q0 -289 -153.5 -453t-417.5 -164q-262 0 -414.5 162t-152.5 447zM303 1290l258 377h162l264 -377h-192l-156 191l-148 -191h-188zM342 586q0 -188 80 -292t225 -104q147 0 224 100.5t77 293.5 q0 188 -78.5 291.5t-222.5 103.5q-147 0 -226 -101.5t-79 -291.5z" />
<glyph unicode="&#xf5;" horiz-adv-x="1290" d="M76 0zM76 582q2 281 158.5 447.5t414.5 166.5t411.5 -163t153.5 -443q0 -289 -153.5 -453t-417.5 -164q-262 0 -414.5 162t-152.5 447zM268 1325q-4 147 51.5 229t159.5 82q43 0 87 -17t114 -73q51 -41 75.5 -52t47.5 -11q39 0 55.5 35.5t14.5 115.5l143 -18 q4 -147 -46 -227t-147 -80q-43 0 -86 17t-116 73q-51 41 -77 52t-46 11q-43 0 -62.5 -36.5t-19.5 -118.5zM342 586q0 -188 80 -292t225 -104q147 0 224 100.5t77 293.5q0 188 -78.5 291.5t-222.5 103.5q-147 0 -226 -101.5t-79 -291.5z" />
<glyph unicode="&#xf6;" horiz-adv-x="1290" d="M76 0zM76 582q2 281 158.5 447.5t414.5 166.5t411.5 -163t153.5 -443q0 -289 -153.5 -453t-417.5 -164q-262 0 -414.5 162t-152.5 447zM321 1350v239h242v-239h-242zM342 586q0 -188 80 -292t225 -104q147 0 224 100.5t77 293.5q0 188 -78.5 291.5t-222.5 103.5 q-147 0 -226 -101.5t-79 -291.5zM725 1350v239h244v-239h-244z" />
<glyph unicode="&#xf7;" horiz-adv-x="1185" d="M156 717v184h872v-184h-872zM479 279v251h228v-251h-228zM479 1075v252h228v-252h-228z" />
<glyph unicode="&#xf8;" horiz-adv-x="1290" d="M41 74l129 137q-47 76 -70.5 169t-23.5 202q2 281 158.5 447.5t414.5 166.5q102 0 191.5 -28.5t160.5 -84.5l117 127l125 -116l-127 -138q49 -76 73.5 -169t24.5 -197q0 -289 -153.5 -453t-417.5 -164q-104 0 -194.5 28t-161.5 83l-117 -127zM338 586q0 -57 6 -104.5 t21 -86.5l475 518q-37 35 -86.5 52.5t-106.5 17.5q-150 0 -229.5 -102.5t-79.5 -294.5zM451 256q37 -35 87 -52.5t109 -17.5q147 0 226 102.5t79 295.5q0 57 -7 106t-21 92z" />
<glyph unicode="&#xf9;" horiz-adv-x="1331" d="M131 0zM131 432v737h260v-657q0 -170 58.5 -248t185.5 -78q137 0 214 101.5t77 285.5v596h262v-1169h-256v240h-4q-61 -127 -165 -196t-235 -69q-195 0 -296 117t-101 340zM358 1653h252l144 -377h-189z" />
<glyph unicode="&#xfa;" horiz-adv-x="1331" d="M131 0zM131 432v737h260v-657q0 -170 58.5 -248t185.5 -78q137 0 214 101.5t77 285.5v596h262v-1169h-256v240h-4q-61 -127 -165 -196t-235 -69q-195 0 -296 117t-101 340zM565 1276l144 377h252l-207 -377h-189z" />
<glyph unicode="&#xfb;" horiz-adv-x="1331" d="M131 0zM131 432v737h260v-657q0 -170 58.5 -248t185.5 -78q137 0 214 101.5t77 285.5v596h262v-1169h-256v240h-4q-61 -127 -165 -196t-235 -69q-195 0 -296 117t-101 340zM317 1276l258 377h162l264 -377h-192l-156 191l-148 -191h-188z" />
<glyph unicode="&#xfc;" horiz-adv-x="1331" d="M131 0zM131 432v737h260v-657q0 -170 58.5 -248t185.5 -78q137 0 214 101.5t77 285.5v596h262v-1169h-256v240h-4q-61 -127 -165 -196t-235 -69q-195 0 -296 117t-101 340zM335 1336v239h242v-239h-242zM739 1336v239h244v-239h-244z" />
<glyph unicode="&#xfd;" horiz-adv-x="1189" d="M-49 -346l65 221q61 -27 119 -39t117 -12t104 22.5t78 71.5q12 16 21.5 31.5t15.5 32.5l-459 1187h273l323 -899l299 899h264l-413 -1124q-94 -256 -201.5 -352t-298.5 -96q-84 0 -169 15t-138 42zM0 0zM497 1290l144 377h252l-207 -377h-189z" />
<glyph unicode="&#xfe;" horiz-adv-x="1339" d="M145 -379v2048h261v-733h8q55 127 153.5 193.5t229.5 66.5q215 0 341 -165t126 -445q0 -279 -129 -446t-342 -167q-133 0 -229.5 60.5t-149.5 179.5h-8v-592h-261zM403 584q0 -182 82.5 -290t221.5 -108q137 0 213.5 105.5t76.5 294.5q0 184 -78.5 290.5t-211.5 106.5 q-141 0 -222.5 -105.5t-81.5 -293.5z" />
<glyph unicode="&#xff;" horiz-adv-x="1189" d="M-49 -346l65 221q61 -27 119 -39t117 -12t104 22.5t78 71.5q12 16 21.5 31.5t15.5 32.5l-459 1187h273l323 -899l299 899h264l-413 -1124q-94 -256 -201.5 -352t-298.5 -96q-84 0 -169 15t-138 42zM0 0zM268 1350v239h242v-239h-242zM672 1350v239h244v-239h-244z" />
<glyph unicode="&#x152;" horiz-adv-x="2361" d="M88 782q0 240 91 416t265 272q104 59 240.5 87t319.5 28h1234v-223h-802v-434h753v-217h-753v-488h843v-223h-1282q-193 0 -327.5 27.5t-243.5 87.5q-166 92 -252 262t-86 405zM365 784q0 -279 150.5 -418t453.5 -139h196v1131h-190q-309 0 -459.5 -141.5t-150.5 -432.5z " />
<glyph unicode="&#x153;" horiz-adv-x="2105" d="M76 582q2 279 156.5 446.5t406.5 167.5q147 0 257 -59.5t181 -175.5q72 117 181.5 176t248.5 59q141 0 251 -58.5t177 -170.5q51 -84 77 -192.5t24 -244.5h-838q10 -160 97.5 -253t230.5 -93q113 0 187.5 53.5t115.5 163.5l221 -69q-66 -176 -197 -267.5t-321 -91.5 q-147 0 -266 60.5t-191 171.5q-74 -115 -183.5 -173.5t-250.5 -58.5q-264 0 -414.5 161t-150.5 448zM342 586q0 -188 80 -292t225 -104q147 0 224 100.5t77 293.5q0 188 -78.5 291.5t-222.5 103.5q-147 0 -226 -101.5t-79 -291.5zM1202 696h572q-4 47 -13.5 82t-21.5 62 q-33 72 -95.5 109.5t-146.5 37.5q-121 0 -198.5 -76.5t-96.5 -214.5z" />
<glyph unicode="&#x178;" horiz-adv-x="1333" d="M0 0zM0 1585h285l397 -715l385 715h264l-518 -950v-635h-270v639zM362 1698v239h242v-239h-242zM770 1698v239h244v-239h-244z" />
<glyph unicode="&#x2c6;" horiz-adv-x="1024" d="M170 1290l258 377h162l264 -377h-192l-156 191l-148 -191h-188z" />
<glyph unicode="&#x2dc;" horiz-adv-x="1024" d="M143 1325q-4 147 51.5 229t159.5 82q43 0 87 -17t114 -73q51 -41 75.5 -52t47.5 -11q39 0 55.5 35.5t14.5 115.5l143 -18q4 -147 -46 -227t-147 -80q-43 0 -86 17t-116 73q-51 41 -77 52t-46 11q-43 0 -62.5 -36.5t-19.5 -118.5z" />
<glyph unicode="&#x2000;" horiz-adv-x="1058" />
<glyph unicode="&#x2001;" horiz-adv-x="2116" />
<glyph unicode="&#x2002;" horiz-adv-x="1058" />
<glyph unicode="&#x2003;" horiz-adv-x="2116" />
<glyph unicode="&#x2004;" horiz-adv-x="705" />
<glyph unicode="&#x2005;" horiz-adv-x="529" />
<glyph unicode="&#x2006;" horiz-adv-x="352" />
<glyph unicode="&#x2007;" horiz-adv-x="352" />
<glyph unicode="&#x2008;" horiz-adv-x="264" />
<glyph unicode="&#x2009;" horiz-adv-x="423" />
<glyph unicode="&#x200a;" horiz-adv-x="117" />
<glyph unicode="&#x2010;" horiz-adv-x="833" d="M92 571v195h649v-195h-649z" />
<glyph unicode="&#x2011;" horiz-adv-x="833" d="M92 571v195h649v-195h-649z" />
<glyph unicode="&#x2012;" horiz-adv-x="833" d="M92 571v195h649v-195h-649z" />
<glyph unicode="&#x2013;" horiz-adv-x="1560" d="M121 586v172h1319v-172h-1319z" />
<glyph unicode="&#x2014;" horiz-adv-x="1929" d="M121 586v172h1687v-172h-1687z" />
<glyph unicode="&#x2018;" horiz-adv-x="395" d="M61 1032v281q0 147 64.5 213.5t212.5 72.5l31 -131q-98 -2 -129 -26.5t-31 -98.5v-26h125v-285h-273z" />
<glyph unicode="&#x2019;" horiz-adv-x="395" d="M27 1149q98 4 128.5 27.5t30.5 97.5v26h-125v285h273v-278q0 -147 -63.5 -214t-213.5 -75z" />
<glyph unicode="&#x201a;" horiz-adv-x="395" d="M27 0zM27 -151q98 4 128.5 27.5t30.5 97.5v26h-125v285h273v-278q0 -147 -63.5 -214t-213.5 -75z" />
<glyph unicode="&#x201c;" horiz-adv-x="759" d="M61 1032v281q0 147 64.5 213.5t212.5 72.5l31 -131q-98 -2 -129 -26.5t-31 -98.5v-26h125v-285h-273zM61 1032zM426 1032v281q0 147 64.5 213.5t212.5 72.5l31 -131q-98 -2 -129 -26.5t-31 -98.5v-26h125v-285h-273z" />
<glyph unicode="&#x201d;" horiz-adv-x="759" d="M27 1018zM27 1149q98 4 128.5 27.5t30.5 97.5v26h-125v285h273v-278q0 -147 -63.5 -214t-213.5 -75zM392 1149q98 4 128.5 27.5t30.5 97.5v26h-125v285h273v-278q0 -147 -63.5 -214t-213.5 -75z" />
<glyph unicode="&#x201e;" horiz-adv-x="759" d="M27 0zM27 -151q98 4 128.5 27.5t30.5 97.5v26h-125v285h273v-278q0 -147 -63.5 -214t-213.5 -75zM392 -151q98 4 128.5 27.5t30.5 97.5v26h-125v285h273v-278q0 -147 -63.5 -214t-213.5 -75z" />
<glyph unicode="&#x2022;" horiz-adv-x="681" d="M152 641q0 80 55 135t135 55t134 -54t54 -136q0 -80 -54 -134t-134 -54q-78 0 -134 55t-56 133z" />
<glyph unicode="&#x2026;" horiz-adv-x="1310" d="M66 0v285h272v-285h-272zM518 0v285h273v-285h-273zM971 0v285h274v-285h-274z" />
<glyph unicode="&#x202f;" horiz-adv-x="423" />
<glyph unicode="&#x2039;" horiz-adv-x="524" d="M2 598l285 426h231l-285 -418l289 -432h-233z" />
<glyph unicode="&#x203a;" horiz-adv-x="524" d="M2 1024h231l289 -426l-286 -424h-232l285 418z" />
<glyph unicode="&#x205f;" horiz-adv-x="529" />
<glyph unicode="&#x20ac;" horiz-adv-x="1624" d="M20 528v166h177q-2 14 -2 30.5v49.5v55h-175v168h191q59 289 242.5 452t453.5 163q256 0 425 -151.5t222 -432.5l-268 -55q-37 199 -134 299t-251 100q-168 0 -271.5 -94t-144.5 -281h519l-31 -168h-512q-2 -8 -2 -18v-35q0 -12 1 -26.5t3 -55.5h485l-30 -166h-422 q43 -154 145 -234.5t254 -80.5q156 0 253 90t150 285l261 -64q-66 -266 -239 -408.5t-431 -142.5q-272 0 -445.5 142.5t-230.5 412.5h-193z" />
<glyph unicode="&#x2122;" horiz-adv-x="1746" d="M29 1434v151h694v-151h-252v-674h-192v674h-250zM803 760v825h227l213 -610l213 610h213v-825h-168v590l-190 -590h-146l-198 592v-592h-164z" />
<glyph unicode="&#x25fc;" horiz-adv-x="1167" d="M0 0v1167h1167v-1167h-1167z" />
</font>
</defs>
</svg>
