<?xml version="1.0" standalone="no"?>
<!DOCTYPE svg PUBLIC "-//W3C//DTD SVG 1.1//EN" "http://www.w3.org/Graphics/SVG/1.1/DTD/svg11.dtd" >
<svg xmlns="http://www.w3.org/2000/svg" xmlns:xlink="http://www.w3.org/1999/xlink" version="1.1">
<metadata></metadata>
<defs>
<font id="garnett_regularregular" horiz-adv-x="1642" >
<font-face units-per-em="2048" ascent="1638" descent="-410" />
<missing-glyph horiz-adv-x="393" />
<glyph unicode="&#xfb01;" horiz-adv-x="1271" d="M20 0zM20 1016v147h238v176q0 170 82 256t246 86q37 0 67.5 -2t57.5 -8v-143q-23 2 -41.5 3t-51.5 1q-100 0 -138 -46t-38 -167v-156h269v-147h-267v-1016h-186v1016h-238zM910 1452v217h209v-217h-209zM920 0v1163h186v-1163h-186z" />
<glyph unicode="&#xfb02;" horiz-adv-x="1265" d="M20 0zM20 1016v147h238v176q0 170 82 256t246 86q37 0 67.5 -2t57.5 -8v-143q-23 2 -41.5 3t-51.5 1q-100 0 -138 -46t-38 -167v-156h269v-147h-267v-1016h-186v1016h-238zM916 0v1669h188v-1669h-188z" />
<glyph horiz-adv-x="0" />
<glyph unicode="&#xd;" horiz-adv-x="681" />
<glyph unicode=" "  horiz-adv-x="393" />
<glyph unicode="&#x09;" horiz-adv-x="393" />
<glyph unicode="&#xa0;" horiz-adv-x="393" />
<glyph unicode="!" horiz-adv-x="561" d="M176 0v246h209v-246h-209zM182 1102v483h197v-483l-51 -707h-97z" />
<glyph unicode="&#x22;" horiz-adv-x="823" d="M158 1059zM158 1585h176l-29 -526h-115zM490 1585h176l-29 -526h-115z" />
<glyph unicode="#" horiz-adv-x="1325" d="M35 500v131h256l80 381h-254v131h280l76 358h145l-73 -358h401l74 358h145l-73 -358h217v-131h-246l-80 -381h244v-131h-273l-84 -400h-145l84 400h-401l-84 -400h-146l84 400h-227zM430 627h410l82 387h-410z" />
<glyph unicode="$" horiz-adv-x="1327" d="M29 449l184 55q23 -158 120 -251t261 -112v584q-39 8 -82 18.5t-90 24.5q-76 25 -127 51.5t-82 57.5q-49 49 -74.5 117.5t-25.5 150.5q0 197 129 321.5t348 141.5v176h164v-178q193 -20 314.5 -132t168.5 -309l-180 -43q-31 139 -108 218t-201 102v-568 q104 -25 135.5 -32.5t58.5 -16.5q86 -27 131 -49t78 -51q53 -49 79.5 -116.5t26.5 -155.5q0 -203 -133.5 -330.5t-369.5 -145.5v-239h-164v239q-238 18 -381 138.5t-180 333.5zM299 1161q0 -102 60.5 -159.5t234.5 -96.5v541q-139 -12 -217 -87t-78 -198zM748 139 q154 14 237.5 92t83.5 209q0 102 -61.5 157.5t-259.5 94.5v-553z" />
<glyph unicode="%" horiz-adv-x="2004" d="M182 1192q0 182 99.5 296t257.5 114q156 0 253 -113t97 -295q0 -176 -99 -285.5t-255 -109.5q-160 0 -256.5 106.5t-96.5 286.5zM324 0l1155 1585h178l-1149 -1585h-184zM334 1194q0 -125 54 -195.5t147 -70.5q96 0 149 69.5t53 196.5q0 131 -52 205t-146 74 q-96 0 -150.5 -73t-54.5 -206zM1116 377q0 184 98.5 297.5t255.5 113.5q156 0 253.5 -112.5t97.5 -296.5q0 -176 -99.5 -285.5t-255.5 -109.5q-160 0 -255 106.5t-95 286.5zM1268 379q0 -123 53 -194.5t145 -71.5q96 0 149.5 69.5t53.5 196.5q0 131 -52 204.5t-147 73.5 q-96 0 -149 -72.5t-53 -205.5z" />
<glyph unicode="&#x26;" horiz-adv-x="1638" d="M127 422q0 162 86 287t252 204q-43 98 -60.5 168t-17.5 146q0 172 102.5 277.5t272.5 105.5q160 0 256 -89t96 -239t-102.5 -254t-319.5 -176q31 -53 69 -109.5t85 -115.5q61 -78 128.5 -145.5t139.5 -123.5q76 113 120 282t48 359l178 -43q-6 -170 -67.5 -368.5 t-145.5 -317.5q106 -61 216 -93t218 -32h39l-22 -157q-4 -2 -13.5 -2h-27.5q-133 0 -263 38.5t-264 118.5q-90 -82 -211.5 -126t-261.5 -44q-248 0 -389 119t-141 330zM322 449q0 -150 96 -231t272 -81q96 0 171 22.5t134 71.5q-80 61 -151.5 133t-130.5 148 q-53 66 -99.5 133.5t-91.5 145.5q-104 -61 -152 -143.5t-48 -198.5zM575 1229q0 -57 15.5 -123t44.5 -139q160 57 232.5 129.5t72.5 177.5q0 90 -47 139t-131 49q-86 0 -136.5 -63.5t-50.5 -169.5z" />
<glyph unicode="'" horiz-adv-x="491" d="M158 1585h176l-29 -526h-115z" />
<glyph unicode="(" horiz-adv-x="641" d="M141 604q0 309 109.5 604t279.5 461h172q-178 -199 -271 -472t-93 -593q0 -317 92 -590.5t272 -486.5h-172q-174 180 -281.5 476t-107.5 601z" />
<glyph unicode=")" horiz-adv-x="641" d="M-61 -473q178 199 271 472t93 593q0 317 -92 590.5t-272 486.5h172q174 -180 281.5 -476t107.5 -601q0 -309 -109.5 -604t-279.5 -461h-172z" />
<glyph unicode="*" horiz-adv-x="901" d="M45 1235l47 145l303 -118l-20 323h153l-20 -323l301 118l47 -145l-313 -82l207 -250l-123 -90l-176 274l-175 -274l-122 90l204 250z" />
<glyph unicode="+" horiz-adv-x="1206" d="M176 727v141h346v383h162v-383h346v-141h-346v-379h-162v379h-346z" />
<glyph unicode="," horiz-adv-x="350" d="M27 -170q88 2 114.5 26.5t26.5 102.5v41h-98v246h211v-283q0 -123 -53.5 -177t-180.5 -60z" />
<glyph unicode="-" horiz-adv-x="835" d="M96 592v151h643v-151h-643z" />
<glyph unicode="." horiz-adv-x="350" d="M70 0v246h211v-246h-211z" />
<glyph unicode="/" horiz-adv-x="866" d="M74 -473l547 2142h176l-547 -2142h-176z" />
<glyph unicode="0" horiz-adv-x="1486" d="M113 788q0 385 171 604.5t468 219.5q293 0 457.5 -218t164.5 -606q0 -383 -168 -599t-465 -216q-303 0 -465.5 210t-162.5 605zM309 784q0 -313 111.5 -477t320.5 -164q217 0 326 161t109 480t-110 488.5t-314 169.5q-213 0 -328 -168t-115 -490z" />
<glyph unicode="1" horiz-adv-x="792" d="M25 1233v145h233q96 0 126 22.5t34 108.5l4 76h153v-1585h-192v1233h-358z" />
<glyph unicode="2" horiz-adv-x="1349" d="M145 0v156l506 393q197 152 288 287t91 276q0 154 -84 242t-229 88q-184 0 -282.5 -124t-90.5 -351l-186 41q0 281 151.5 441.5t407.5 160.5q233 2 370.5 -129t137.5 -355q0 -178 -101.5 -332.5t-328.5 -328.5l-396 -301h875v-164h-1129z" />
<glyph unicode="3" horiz-adv-x="1310" d="M90 467l184 49q16 -186 123 -281.5t295 -95.5q172 0 269.5 87t97.5 241q0 143 -101.5 213t-308.5 70h-194v155h180q164 0 258 72t94 201t-80 199.5t-225 70.5q-156 0 -245 -86t-105 -254l-178 47q35 219 175 337t365 118q217 0 348.5 -109.5t131.5 -292.5 q0 -135 -80 -230t-224 -136v-4q184 -37 279.5 -135.5t95.5 -253.5q0 -213 -152.5 -344.5t-396.5 -131.5q-262 0 -416.5 126t-189.5 368z" />
<glyph unicode="4" horiz-adv-x="1343" d="M66 373v178l751 1034h203v-1048h280v-164h-280v-373h-189v373h-765zM240 537h594v829z" />
<glyph unicode="5" horiz-adv-x="1349" d="M86 446l186 56q37 -178 142.5 -268.5t275.5 -90.5q174 0 273.5 108.5t99.5 297.5q0 172 -96.5 269t-264.5 97q-121 0 -214 -48t-158 -146l-172 22l127 842h868v-168h-717l-84 -553h6q72 90 176.5 137.5t233.5 47.5q219 0 354 -137.5t135 -362.5q0 -262 -153.5 -418 t-413.5 -156q-244 0 -400.5 122t-203.5 349z" />
<glyph unicode="6" horiz-adv-x="1392" d="M113 754q0 389 186 623.5t500 234.5q156 0 284.5 -71t225.5 -206l-160 -108q-61 106 -153.5 160.5t-209.5 54.5q-227 0 -355 -188.5t-128 -520.5v-10t2 -18v-15.5v-9.5h4q53 168 184.5 262t313.5 94q223 0 361.5 -140t138.5 -366q0 -252 -153.5 -404.5t-405.5 -152.5 q-303 0 -469 204t-166 577zM352 510q0 -162 110.5 -265.5t280.5 -103.5t269.5 103.5t99.5 281.5q0 174 -95 271.5t-263 97.5q-174 0 -288 -108.5t-114 -276.5z" />
<glyph unicode="7" horiz-adv-x="1179" d="M61 1415v170h1092v-135q-260 -182 -384 -501.5t-124 -813.5v-135h-196v135q0 426 131 750.5t387 529.5h-906z" />
<glyph unicode="8" horiz-adv-x="1398" d="M98 420q0 154 92.5 260t264.5 156v4q-127 45 -199 136t-72 210q0 188 146.5 304t369.5 116q227 0 370.5 -112t143.5 -298q0 -119 -72.5 -213t-197.5 -141v-4q172 -45 264 -147.5t92 -252.5q0 -213 -163.5 -340t-436.5 -127q-279 0 -440.5 120t-161.5 329zM289 455 q0 -150 111.5 -235t310.5 -85q184 0 291.5 89t107.5 241q0 143 -109.5 226t-295.5 83q-190 0 -303 -86t-113 -233zM371 1163q0 -129 89 -200.5t242 -71.5q147 0 236.5 75.5t89.5 204.5q0 127 -89 201t-237 74q-154 0 -242.5 -75t-88.5 -208z" />
<glyph unicode="9" horiz-adv-x="1390" d="M80 260l160 102q63 -106 165.5 -163.5t229.5 -57.5q225 0 338.5 180.5t113.5 534.5v37t-2 22h-2q-49 -162 -181 -259t-300 -97q-233 0 -374.5 139.5t-141.5 366.5q0 242 158.5 394.5t410.5 152.5q291 0 457 -210t166 -571q0 -406 -170 -632t-477 -226q-184 0 -326.5 74 t-224.5 213zM281 1075q0 -174 102.5 -273.5t282.5 -99.5q150 0 260 108t110 267q0 160 -105.5 264.5t-281.5 104.5q-164 0 -266 -104.5t-102 -266.5z" />
<glyph unicode=":" horiz-adv-x="350" d="M70 0v246h211v-246h-211zM70 0zM70 829v246h211v-246h-211z" />
<glyph unicode=";" horiz-adv-x="350" d="M27 0zM27 -170q88 2 114.5 26.5t26.5 102.5v41h-98v246h211v-283q0 -123 -53.5 -177t-180.5 -60zM70 829v246h211v-246h-211z" />
<glyph unicode="&#x3c;" horiz-adv-x="1206" d="M141 678v94l885 475v-164l-678 -354l678 -360v-168z" />
<glyph unicode="=" horiz-adv-x="1206" d="M176 457v143h854v-143h-854zM176 836v143h854v-143h-854z" />
<glyph unicode="&#x3e;" horiz-adv-x="1206" d="M180 201v164l676 354l-676 360v168l885 -477v-94z" />
<glyph unicode="?" horiz-adv-x="1081" d="M2 1106q43 244 188.5 374t376.5 130q221 0 356.5 -117t135.5 -307q0 -119 -56.5 -210t-199.5 -202q-131 -100 -161 -155.5t-30 -172.5v-59h-174v78q0 131 45 213t185 188q113 90 153.5 155.5t40.5 156.5q0 123 -83 195.5t-222 72.5q-162 0 -251 -90t-126 -289zM420 0v246 h211v-246h-211z" />
<glyph unicode="@" horiz-adv-x="1878" d="M74 465q0 199 65.5 373t188.5 305q125 135 296 206.5t365 71.5q369 0 597.5 -230t228.5 -603q0 -246 -97.5 -381t-275.5 -135q-121 0 -190.5 55t-69.5 152h-4q-45 -111 -133.5 -170.5t-208.5 -59.5q-141 0 -222.5 73t-81.5 200q0 63 24 115t73 95q41 33 101.5 54.5 t143.5 34.5l140 22q90 14 129 43t39 84q0 74 -49.5 116t-137.5 42q-102 0 -163.5 -52.5t-90.5 -162.5l-174 35q47 158 158 241.5t270 83.5q178 0 273.5 -92t95.5 -266v-379q0 -82 26 -115t89 -33q96 0 148 100.5t52 289.5q0 342 -184 533.5t-512 191.5q-334 0 -552 -236 t-218 -596q0 -344 201.5 -530.5t570.5 -186.5q131 0 239.5 22.5t213.5 69.5v-127q-92 -43 -210 -65.5t-243 -22.5q-430 0 -670.5 220.5t-240.5 613.5zM723 340q0 -76 48 -117t136 -41q127 0 203 93.5t76 248.5v68q-18 -16 -53 -27.5t-93 -21.5l-122 -21q-100 -16 -147.5 -61 t-47.5 -121z" />
<glyph unicode="A" horiz-adv-x="1476" d="M51 0l557 1585h230l587 -1585h-204l-152 428h-678l-143 -428h-197zM444 586h570l-291 823z" />
<glyph unicode="B" horiz-adv-x="1456" d="M174 0v1585h584q276 0 415.5 -98t139.5 -293q0 -137 -84 -234.5t-234 -134.5v-2q178 -29 278.5 -131t100.5 -254q0 -217 -141.5 -327.5t-417.5 -110.5h-641zM369 164h434q197 0 287 70.5t90 222.5q0 141 -100.5 210.5t-305.5 69.5h-405v-573zM369 889h376q193 0 284 66.5 t91 205.5q0 131 -87 195.5t-267 64.5h-397v-532z" />
<glyph unicode="C" horiz-adv-x="1574" d="M98 776q0 377 205 606.5t539 229.5q264 0 438 -149.5t231 -424.5l-190 -39q-43 213 -166 325t-315 112q-256 0 -399.5 -173t-143.5 -485q0 -293 144.5 -460.5t394.5 -167.5q197 0 318.5 100t182.5 313l183 -51q-70 -260 -248.5 -399.5t-440.5 -139.5q-340 0 -536.5 215 t-196.5 588z" />
<glyph unicode="D" horiz-adv-x="1613" d="M174 0v1585h483q412 0 636.5 -205.5t224.5 -582.5q0 -375 -226.5 -586t-629.5 -211h-488zM369 166h262q348 0 518 156t170 475q0 305 -168 463.5t-494 158.5h-288v-1253z" />
<glyph unicode="E" horiz-adv-x="1339" d="M174 0v1585h1032v-164h-837v-522h784v-158h-784v-577h878v-164h-1073z" />
<glyph unicode="F" horiz-adv-x="1269" d="M174 0v1585h1008v-164h-813v-567h741v-162h-741v-692h-195z" />
<glyph unicode="G" horiz-adv-x="1630" d="M98 778q0 371 207 602.5t535 231.5q256 0 429 -143.5t238 -407.5l-186 -47q-47 209 -170 315.5t-313 106.5q-250 0 -395.5 -176.5t-145.5 -477.5q0 -307 142.5 -475t404.5 -168q233 0 363 120t130 337v25h-495v155h671v-776h-149l-14 303h-7q-78 -160 -218 -245t-330 -85 q-328 0 -512.5 214t-184.5 591z" />
<glyph unicode="H" horiz-adv-x="1615" d="M174 0v1585h195v-670h878v670h195v-1585h-195v748h-878v-748h-195z" />
<glyph unicode="I" horiz-adv-x="555" d="M180 0v1585h195v-1585h-195z" />
<glyph unicode="J" horiz-adv-x="1150" d="M86 420v225l180 49v-233q0 -162 65.5 -238t205.5 -76q133 0 196.5 81t63.5 249v1108h194v-1091q0 -137 -29.5 -237.5t-91.5 -162.5q-61 -61 -143 -91t-190 -30q-221 0 -336 114t-115 333z" />
<glyph unicode="K" horiz-adv-x="1427" d="M174 0v1585h195v-883l743 883h217l-491 -590l567 -995h-211l-494 877l-331 -390v-487h-195z" />
<glyph unicode="L" horiz-adv-x="1286" d="M174 0v1585h195v-1421h864v-164h-1059z" />
<glyph unicode="M" horiz-adv-x="1880" d="M174 0v1585h281l497 -1374l486 1374h266v-1585h-184v1360l-471 -1360h-207l-488 1364v-1364h-180z" />
<glyph unicode="N" horiz-adv-x="1568" d="M174 0v1585h258l782 -1302v1302h181v-1585h-211l-830 1366v-1366h-180z" />
<glyph unicode="O" d="M98 784q0 375 201 601.5t532 226.5q326 0 519.5 -223.5t193.5 -600.5q0 -373 -194.5 -594t-524.5 -221q-342 0 -534.5 215t-192.5 596zM297 786q0 -301 138 -468.5t388 -167.5q133 0 234.5 47t171.5 141q57 82 87 194.5t30 253.5q0 301 -138.5 475.5t-376.5 174.5 q-137 0 -241.5 -50.5t-171.5 -146.5q-59 -82 -90 -196.5t-31 -256.5z" />
<glyph unicode="P" horiz-adv-x="1357" d="M174 0v1585h549q276 0 420.5 -114.5t144.5 -331.5q0 -238 -152.5 -361t-445.5 -123h-321v-655h-195zM369 813h309q221 0 316.5 74t95.5 246q0 150 -93.5 220t-287.5 70h-340v-610z" />
<glyph unicode="Q" d="M98 784q0 375 201 601.5t532 226.5q328 0 520.5 -222.5t192.5 -601.5q0 -246 -91 -432t-261 -286q35 -90 84 -132t125 -42q61 0 95 35.5t54 121.5l136 -43q-27 -129 -101.5 -195.5t-193.5 -66.5q-127 0 -212 60.5t-143 193.5q-45 -12 -98 -19.5t-113 -7.5 q-342 0 -534.5 214t-192.5 595zM297 786q0 -219 67.5 -364.5t200.5 -216.5l4 4q-25 27 -37 65.5t-12 85.5q0 104 71 169t185 65q129 0 211 -81t148 -269q102 78 156.5 217t54.5 325q0 301 -138.5 475.5t-376.5 174.5q-137 0 -241.5 -50.5t-171.5 -146.5q-59 -82 -90 -196.5 t-31 -256.5zM627 315q0 -78 56 -121.5t157 -43.5q39 0 74.5 5t68.5 15q-43 150 -94 211t-135 61q-63 0 -95 -31.5t-32 -95.5z" />
<glyph unicode="R" horiz-adv-x="1425" d="M174 0v1585h625q260 0 399 -109.5t139 -312.5q0 -174 -107.5 -287.5t-303.5 -146.5v-4q127 -25 184 -91.5t104 -236.5q39 -152 69 -240.5t56 -146.5v-10h-213q-20 49 -40.5 125t-49.5 211q-18 90 -34 142t-39 85q-31 49 -82.5 66.5t-169.5 17.5h-342v-647h-195zM369 799 h352q207 0 313.5 83.5t106.5 243.5q0 150 -91.5 224.5t-275.5 74.5h-405v-626z" />
<glyph unicode="S" horiz-adv-x="1327" d="M29 449l184 55q25 -178 145.5 -272.5t325.5 -94.5q182 0 282.5 79t100.5 224q0 96 -56.5 150.5t-205.5 87.5q-16 4 -153.5 30.5t-229.5 55.5q-68 20 -120 48t-89 65q-49 49 -74.5 117.5t-25.5 150.5q0 213 148.5 340t395.5 127q233 0 381 -114t199 -333l-180 -43 q-35 162 -136.5 244t-269.5 82q-164 0 -257 -76t-93 -211q0 -96 57.5 -153.5t200.5 -89.5q33 -8 166 -35t217 -52q70 -20 118 -44.5t91 -59.5q55 -51 80.5 -118.5t25.5 -155.5q0 -221 -156.5 -350.5t-422.5 -129.5q-276 0 -442 122t-207 354z" />
<glyph unicode="T" horiz-adv-x="1363" d="M39 1421v164h1286v-164h-547v-1421h-192v1421h-547z" />
<glyph unicode="U" horiz-adv-x="1583" d="M160 592v993h192v-964q0 -240 111.5 -354.5t345.5 -114.5q213 0 318.5 120.5t105.5 362.5v950h190v-958q0 -315 -160.5 -484.5t-463.5 -169.5q-313 0 -476 158t-163 461z" />
<glyph unicode="V" horiz-adv-x="1480" d="M43 1585h201l510 -1382l485 1382h199l-582 -1585h-209z" />
<glyph unicode="W" horiz-adv-x="2123" d="M53 1585h197l354 -1345l357 1345h206l375 -1358l334 1358h195l-416 -1585h-217l-375 1356l-358 -1356h-218z" />
<glyph unicode="X" horiz-adv-x="1374" d="M33 0l538 815l-505 770h206l428 -649l416 649h199l-504 -782l530 -803h-208l-445 682l-444 -682h-211z" />
<glyph unicode="Y" horiz-adv-x="1302" d="M14 1585h205l447 -760l426 760h194l-526 -930v-655h-193v655z" />
<glyph unicode="Z" horiz-adv-x="1355" d="M80 0v172l991 1249h-950v164h1155v-170l-985 -1251h1009v-164h-1220z" />
<glyph unicode="[" horiz-adv-x="851" d="M213 -473v2142h623v-151h-437v-1840h443v-151h-629z" />
<glyph unicode="\" horiz-adv-x="866" d="M70 1669h176l547 -2142h-177z" />
<glyph unicode="]" horiz-adv-x="851" d="M10 1518v151h629v-2142h-623v151h437v1840h-443z" />
<glyph unicode="^" horiz-adv-x="749" d="M66 1032l241 553h137l240 -553h-156l-151 383l-156 -383h-155z" />
<glyph unicode="_" horiz-adv-x="1093" d="M98 -147h897v-132h-897v132z" />
<glyph unicode="`" horiz-adv-x="1024" d="M348 1663h189l141 -371h-143z" />
<glyph unicode="a" horiz-adv-x="1249" d="M98 295q0 80 27 142.5t80 109.5q45 39 116.5 64.5t170.5 41.5l167 27q111 18 157 53t46 105q0 90 -63.5 143t-173.5 53q-125 0 -200 -64.5t-112 -201.5l-176 37q51 184 177 283.5t311 99.5q203 0 311 -108.5t108 -309.5v-481q0 -88 30 -122t108 -34q12 0 22 1t29 3v-135 q-16 -8 -48 -12t-67 -4q-127 0 -192.5 63.5t-65.5 188.5v8h-6q-53 -131 -156.5 -202t-244.5 -71q-164 0 -259.5 86t-95.5 236zM291 317q0 -94 58.5 -147t162.5 -53q162 0 258 116.5t96 311.5v88q-23 -20 -65.5 -35.5t-120.5 -32.5l-154 -28q-127 -23 -181 -73.5t-54 -146.5z " />
<glyph unicode="b" horiz-adv-x="1316" d="M162 0v1669h188v-760h6q59 133 164 206t240 73q215 0 344 -165t129 -439t-132 -442.5t-345 -168.5q-143 0 -245.5 71t-158.5 204h-8v-248h-182zM348 582q0 -205 97.5 -326t261.5 -121q158 0 245.5 118t87.5 331q0 205 -90 324.5t-243 119.5q-168 0 -263.5 -118.5 t-95.5 -327.5z" />
<glyph unicode="c" horiz-adv-x="1216" d="M84 580q0 270 153.5 439t401.5 169q197 0 326 -111.5t180 -322.5l-182 -41q-33 154 -116 233.5t-212 79.5q-166 0 -262.5 -119t-96.5 -323q0 -209 97.5 -329t265.5 -120q131 0 214 68.5t128 214.5l170 -49q-49 -184 -185.5 -290t-330.5 -106q-258 0 -404.5 161 t-146.5 446z" />
<glyph unicode="d" horiz-adv-x="1316" d="M84 575q0 272 140.5 442.5t359.5 170.5q129 0 225 -66.5t152 -195.5h6v743h188v-1669h-182v258h-8q-55 -135 -159 -209t-241 -74q-221 0 -351 162t-130 438zM276 578q0 -209 91.5 -326t253.5 -117q164 0 256 118t92 327t-91.5 328.5t-250.5 119.5q-164 0 -257.5 -119.5 t-93.5 -330.5z" />
<glyph unicode="e" horiz-adv-x="1204" d="M84 580q0 268 151.5 438t391.5 170q145 0 255.5 -66.5t172.5 -189.5q39 -78 58.5 -175.5t19.5 -211.5h-859q8 -190 107.5 -302t263.5 -112q129 0 212 61.5t134 192.5l158 -55q-66 -172 -197 -264.5t-311 -92.5q-256 0 -406.5 164t-150.5 443zM279 676h661q-2 57 -11.5 99 t-27.5 81q-39 84 -110.5 130t-165.5 46q-145 0 -237.5 -95t-108.5 -261z" />
<glyph unicode="f" horiz-adv-x="763" d="M20 1016v147h238v140q0 188 85 285.5t249 97.5q49 0 98 -9.5t88 -23.5l-37 -146q-29 10 -62.5 16.5t-64.5 6.5q-90 0 -131 -54.5t-41 -177.5v-135h310v-147h-308v-1016h-186v1016h-238z" />
<glyph unicode="g" horiz-adv-x="1216" d="M37 -133q0 82 60.5 137t176.5 80v4q-78 23 -117.5 66t-39.5 106q0 68 45 121t127 86v2q-76 51 -115 129t-39 174q0 184 129 300t334 116q90 0 169 -24.5t138 -71.5l156 231l133 -113l-229 -174q43 -49 64.5 -111.5t21.5 -133.5q0 -186 -121 -295t-328 -109 q-70 0 -132 11.5t-116 35.5q-41 -16 -62.5 -45t-21.5 -61q0 -51 42 -76t132 -25h459q162 0 244 -61.5t82 -181.5q0 -184 -164 -287t-459 -103q-279 0 -424 70t-145 203zM219 -92q0 -84 101.5 -128t297.5 -44q203 0 318 56.5t115 154.5q0 61 -40 86.5t-137 25.5h-401 q-129 0 -191.5 -37.5t-62.5 -113.5zM324 776q0 -115 72.5 -179.5t203.5 -64.5q129 0 196.5 69t67.5 198q0 113 -71.5 178t-194.5 65q-129 0 -201.5 -70.5t-72.5 -195.5z" />
<glyph unicode="h" horiz-adv-x="1314" d="M162 0v1669h188v-766h4q61 135 169 210t243 75q195 0 297 -121t102 -352v-715h-186v668q0 190 -66.5 276t-214.5 86q-162 0 -255 -123t-93 -338v-569h-188z" />
<glyph unicode="i" horiz-adv-x="518" d="M156 1452v217h209v-217h-209zM166 0v1163h186v-1163h-186z" />
<glyph unicode="j" horiz-adv-x="518" d="M-94 -213q25 -8 54.5 -12t57.5 -4q80 0 114 42t34 142v1208h186v-1218q0 -178 -70.5 -259t-226.5 -81q-31 0 -64.5 5t-64.5 15zM156 1452v217h209v-217h-209z" />
<glyph unicode="k" horiz-adv-x="1175" d="M162 0v1669h188v-1067l547 561h223l-401 -415l459 -748h-209l-387 645l-232 -231v-414h-188z" />
<glyph unicode="l" horiz-adv-x="512" d="M162 0v1669h188v-1669h-188z" />
<glyph unicode="m" horiz-adv-x="2004" d="M162 0v1163h182v-270h6q55 141 155.5 218t227.5 77q145 0 236.5 -83t117.5 -239h7q55 154 157.5 238t235.5 84q178 0 274.5 -119t96.5 -342v-727h-189v692q0 170 -58.5 254t-178.5 84q-154 0 -241 -123t-87 -340v-567h-189v692q0 172 -59 255t-184 83q-152 0 -237 -123 t-85 -340v-567h-188z" />
<glyph unicode="n" horiz-adv-x="1314" d="M162 0v1163h182v-270h6q59 139 169 217t247 78q195 0 297 -121t102 -352v-715h-186v668q0 190 -66.5 276t-214.5 86q-162 0 -255 -123t-93 -338v-569h-188z" />
<glyph unicode="o" horiz-adv-x="1253" d="M84 580q0 276 149.5 442t397.5 166t393 -162t145 -440q0 -287 -145 -450t-399 -163q-250 0 -395.5 162t-145.5 445zM276 586q0 -215 92.5 -333t260.5 -118q170 0 260 115t90 332q0 211 -92 328.5t-256 117.5q-170 0 -262.5 -114.5t-92.5 -327.5z" />
<glyph unicode="p" horiz-adv-x="1316" d="M162 -379v1542h182v-266h8q57 139 163 215t245 76q215 0 344 -165t129 -439t-132 -442.5t-345 -168.5q-139 0 -240.5 69t-159.5 198h-6v-619h-188zM348 582q0 -205 97.5 -326t261.5 -121q158 0 245.5 118t87.5 331q0 205 -90 324.5t-243 119.5q-168 0 -263.5 -118.5 t-95.5 -327.5z" />
<glyph unicode="q" horiz-adv-x="1316" d="M84 575q0 272 140.5 442.5t361.5 170.5q131 0 229 -70.5t152 -204.5h6v250h182v-1542h-188v625h-6q-57 -129 -160 -200t-236 -71q-221 0 -351 162t-130 438zM276 578q0 -209 91.5 -326t253.5 -117q164 0 256 118t92 327t-91.5 328.5t-250.5 119.5q-164 0 -257.5 -120 t-93.5 -330z" />
<glyph unicode="r" horiz-adv-x="1003" d="M162 0v1163h184v-254h4q47 131 132 202t198 71q133 0 204.5 -87t71.5 -247q0 -39 -5 -85t-13 -81l-176 -23q8 37 13 85.5t5 80.5q0 109 -43 165.5t-125 56.5q-121 0 -191.5 -126t-70.5 -341v-580h-188z" />
<glyph unicode="s" horiz-adv-x="1099" d="M45 340l176 41q29 -127 117 -188.5t240 -61.5q127 0 198.5 53.5t71.5 147.5q0 66 -44 98.5t-216 63.5q-184 31 -269.5 59.5t-130.5 73.5q-39 37 -57 88t-18 119q0 158 117.5 256t306.5 98q188 0 312 -92t157 -260l-166 -39q-23 119 -100.5 180t-202.5 61 q-115 0 -180.5 -51t-65.5 -139q0 -74 53 -113t205 -65q233 -43 298.5 -66.5t108.5 -64.5q35 -33 53.5 -84.5t18.5 -112.5q0 -164 -125 -264.5t-330 -100.5q-223 0 -358 93.5t-170 269.5z" />
<glyph unicode="t" horiz-adv-x="843" d="M4 1016v147h244v246l184 92v-338h356v-147h-356v-666q0 -117 45.5 -166t151.5 -49q47 0 85 4t72 15v-148q-49 -16 -96 -23.5t-106 -7.5q-172 0 -255 86t-83 267v688h-242z" />
<glyph unicode="u" horiz-adv-x="1306" d="M147 414v749h189v-690q0 -176 68.5 -259t213.5 -83q160 0 249 120t89 333v579h189v-1163h-182v264h-7q-57 -139 -162.5 -214t-242.5 -75q-195 0 -299.5 113t-104.5 326z" />
<glyph unicode="v" horiz-adv-x="1140" d="M20 1163h195l369 -993l346 993h190l-432 -1163h-219z" />
<glyph unicode="w" horiz-adv-x="1644" d="M23 1163h194l240 -960l291 960h155l305 -964l230 964h184l-313 -1163h-203l-285 924l-274 -924h-205z" />
<glyph unicode="x" horiz-adv-x="1112" d="M25 0l411 594l-397 569h207l311 -450l299 450h191l-388 -579l424 -584h-204l-338 465l-312 -465h-204z" />
<glyph unicode="y" horiz-adv-x="1138" d="M-55 -340l55 158q61 -29 119.5 -42.5t120.5 -13.5q66 0 114.5 31t87.5 96q12 20 23.5 43t23.5 54l-471 1177h197l371 -958l342 958h190l-434 -1145q-92 -246 -187.5 -333.5t-267.5 -87.5q-72 0 -152.5 18t-131.5 45z" />
<glyph unicode="z" horiz-adv-x="1101" d="M68 0v158l751 854h-700v151h909v-159l-745 -852h757v-152h-972z" />
<glyph unicode="{" horiz-adv-x="802" d="M8 516v160h127q109 0 149 36t35 134l-18 559q-4 139 65.5 201.5t231.5 62.5h190v-160h-163q-82 0 -112 -26.5t-30 -104.5v-520q0 -123 -52 -183.5t-173 -76.5v-4q121 -14 173 -74.5t52 -183.5v-518q0 -78 30 -104.5t112 -26.5h163v-160h-190q-160 0 -230.5 62.5 t-66.5 201.5l18 557q2 96 -35.5 132t-148.5 36h-127z" />
<glyph unicode="|" horiz-adv-x="468" d="M154 -473v2142h163v-2142h-163z" />
<glyph unicode="}" horiz-adv-x="802" d="M14 -311h164q82 0 111.5 26.5t29.5 104.5v520q0 123 52.5 183.5t173.5 76.5v4q-121 14 -173.5 74.5t-52.5 183.5v518q0 78 -29.5 104.5t-111.5 26.5h-164v160h191q160 0 230.5 -62.5t66.5 -201.5l-19 -557q-2 -96 36 -132t149 -36h127v-160h-127q-109 0 -149 -35.5 t-36 -134.5l19 -559q4 -139 -65.5 -201.5t-231.5 -62.5h-191v160z" />
<glyph unicode="~" horiz-adv-x="1038" d="M96 582v73q0 152 57.5 230t168.5 78q51 0 98 -19.5t90 -58.5l86 -80q55 -53 82.5 -68.5t54.5 -15.5q41 0 55.5 35t14.5 127v84l139 -21v-84q0 -152 -49 -224.5t-152 -72.5q-53 0 -100 21.5t-102 72.5l-93 89q-37 33 -63.5 46t-52.5 13q-51 0 -72.5 -39t-21.5 -131v-76z " />
<glyph unicode="&#xa1;" horiz-adv-x="561" d="M178 918v245h209v-245h-209zM184 61l52 707h96l49 -707v-483h-197v483z" />
<glyph unicode="&#xa2;" horiz-adv-x="1216" d="M84 580q0 244 128 408.5t341 193.5v264h164v-262q164 -20 273.5 -131t154.5 -299l-182 -41q-27 129 -90.5 205.5t-159.5 99.5v-877q98 16 163.5 84t104.5 193l170 -49q-43 -164 -156.5 -266.5t-277.5 -122.5v-316h-164v313q-221 27 -345 186t-124 417zM276 584 q0 -180 74 -297t207 -144v875q-133 -27 -207 -141.5t-74 -292.5z" />
<glyph unicode="&#xa3;" horiz-adv-x="1495" d="M90 682v131h215q-35 78 -52 148.5t-17 140.5q0 225 150.5 367.5t393.5 142.5q238 0 381.5 -139.5t165.5 -389.5l-192 -39q-18 193 -109.5 292.5t-249.5 99.5q-164 0 -257 -91.5t-93 -248.5q0 -70 15.5 -134.5t52.5 -148.5h657v-131h-596q59 -121 80.5 -193.5t21.5 -140.5 v-21.5t-2 -13.5q100 -74 127 -92t54 -31q51 -29 103 -42t105 -13q113 0 160 64.5t39 199.5v37h158q4 -25 6 -53.5t2 -54.5q0 -170 -90 -261.5t-250 -91.5q-106 0 -201.5 40t-242.5 165q-39 -90 -114 -140t-173 -50q-113 0 -178.5 60.5t-65.5 158.5q0 102 73 166.5t193 64.5 q37 0 72 -7t72 -23q-10 49 -35.5 105t-91.5 167h-287zM229 219q0 -49 31 -77.5t86 -28.5q66 0 108 42t54 119q-39 25 -77 37.5t-77 12.5q-59 0 -92 -28t-33 -77z" />
<glyph unicode="&#xa4;" horiz-adv-x="1331" d="M143 379l138 137q-37 57 -55.5 127t-18.5 143q0 70 19.5 139.5t58.5 131.5l-142 139l101 102l135 -135q57 49 129 74t151 25q82 0 155 -27t132 -78l141 141l103 -102l-152 -152q33 -57 50.5 -123.5t17.5 -134.5t-17.5 -132t-50.5 -124l152 -151l-103 -100l-141 141 q-61 -53 -135 -80t-156 -27t-152.5 24t-127.5 71l-131 -129zM369 786q0 -135 81.5 -230t204.5 -95q131 0 210 90t79 235q0 143 -79 235.5t-206 92.5q-131 0 -210.5 -91t-79.5 -237z" />
<glyph unicode="&#xa5;" horiz-adv-x="1302" d="M14 1585h205l447 -760l426 760h194l-463 -817h351v-137h-414v-174h414v-138h-414v-319h-193v319h-415v138h415v174h-415v137h348z" />
<glyph unicode="&#xa6;" horiz-adv-x="468" d="M154 -473v962h163v-962h-163zM154 743v926h163v-926h-163z" />
<glyph unicode="&#xa7;" horiz-adv-x="1245" d="M51 748q0 96 54.5 167.5t156.5 112.5q-41 43 -63.5 99.5t-22.5 117.5q0 170 118 270.5t316 100.5q184 0 308 -97.5t153 -265.5l-166 -32q-23 119 -100.5 183t-198.5 64t-187.5 -56t-66.5 -161q0 -78 48.5 -130t152.5 -89l385 -137q131 -47 193.5 -121t62.5 -182 q0 -94 -54.5 -167t-160.5 -120q43 -39 65.5 -92t22.5 -117q0 -170 -124 -268t-337 -98q-201 0 -339 97t-169 263l178 37q27 -121 114 -183.5t226 -62.5q129 0 201 54.5t72 152.5q0 76 -46 122t-169 93l-367 141q-135 53 -195.5 125t-60.5 179zM213 774q0 -66 44 -113 t140 -83l492 -189q68 27 104.5 72t36.5 104q0 68 -44 115t-140 82l-500 186q-66 -25 -99.5 -69t-33.5 -105z" />
<glyph unicode="&#xa8;" horiz-adv-x="1024" d="M233 1372v197h189v-197h-189zM602 1372v197h189v-197h-189z" />
<glyph unicode="&#xa9;" horiz-adv-x="1832" d="M117 786q0 358 226 591t583 233q346 0 568 -232.5t222 -591.5q0 -356 -224 -587.5t-574 -231.5q-352 0 -576.5 230.5t-224.5 588.5zM244 786q0 -313 187 -509.5t487 -196.5q305 0 489 193.5t184 512.5q0 324 -181 517.5t-484 193.5q-313 0 -497.5 -192.5t-184.5 -518.5z M508 778q0 217 120 351.5t314 134.5q158 0 262.5 -89.5t136.5 -250.5l-155 -33q-20 111 -82 167t-160 56q-129 0 -199.5 -88t-70.5 -246q0 -147 72.5 -232t197.5 -85q98 0 159.5 51t92.5 160l152 -39q-39 -152 -144.5 -236t-261.5 -84q-203 0 -318.5 124t-115.5 339z" />
<glyph unicode="&#xaa;" horiz-adv-x="858" d="M43 532v121h813v-121h-813zM61 997q0 109 64.5 168.5t202.5 75.5l116 14q72 10 101.5 34t29.5 69q0 57 -39.5 90t-107.5 33q-76 0 -123 -41t-69 -127l-142 26q35 127 122 195t216 68q141 0 217 -75t76 -214v-312q0 -53 19.5 -74.5t68.5 -21.5q8 0 18.5 1t16.5 3v-108 q-12 -6 -36.5 -10.5t-51.5 -4.5q-90 0 -138.5 43t-48.5 123h-6q-37 -82 -105.5 -126t-158.5 -44q-111 0 -176.5 58.5t-65.5 156.5zM219 1016q0 -59 36 -91t105 -32q98 0 158 73.5t60 194.5v51q-14 -14 -42 -24t-71 -17l-98 -16q-78 -12 -113 -45t-35 -94z" />
<glyph unicode="&#xab;" horiz-adv-x="864" d="M10 184zM10 600l285 418h180l-285 -410l289 -424h-182zM387 600l285 418h180l-285 -410l289 -424h-182z" />
<glyph unicode="&#xac;" horiz-adv-x="1191" d="M168 774v146h860v-553h-158v407h-702z" />
<glyph unicode="&#xad;" horiz-adv-x="835" d="M96 592v151h643v-151h-643zM96 592z" />
<glyph unicode="&#xae;" horiz-adv-x="1040" d="M84 1219q0 190 122 314t314 124q193 0 314.5 -124t121.5 -314q0 -193 -121.5 -316t-314.5 -123t-314.5 123t-121.5 316zM156 1219q0 -168 100 -270.5t264 -102.5q166 0 265.5 101.5t99.5 271.5q0 172 -98.5 273t-266.5 101t-266 -101t-98 -273zM344 981v496h215 q88 0 137 -35t49 -99q0 -55 -35.5 -92t-95.5 -43v-2q39 -8 58.5 -29.5t32.5 -70.5q12 -45 22 -72.5t21 -48.5v-4h-107q-6 12 -11.5 27.5t-19.5 81.5q-8 53 -25.5 68.5t-70.5 15.5h-74v-193h-96zM440 1239h105q53 0 78.5 20.5t25.5 61.5t-26.5 59.5t-85.5 18.5h-97v-160z" />
<glyph unicode="&#xaf;" horiz-adv-x="1024" d="M197 1364v127h630v-127h-630z" />
<glyph unicode="&#xb0;" horiz-adv-x="995" d="M184 1286q0 135 88 225.5t228 90.5q137 0 223 -90.5t86 -225.5q0 -137 -87 -227t-226 -90t-225.5 88t-86.5 229zM307 1286q0 -88 51.5 -143.5t137.5 -55.5q88 0 140 55.5t52 143.5t-52 143.5t-136 55.5q-86 0 -139.5 -56.5t-53.5 -142.5z" />
<glyph unicode="&#xb1;" horiz-adv-x="1206" d="M176 -6v143h854v-143h-854zM176 737v142h346v383h162v-383h346v-142h-346v-379h-162v379h-346z" />
<glyph unicode="&#xb2;" horiz-adv-x="700" d="M66 958zM66 961v98l251 187q96 74 138.5 133.5t42.5 122.5t-36 100t-97 37q-80 0 -120 -54.5t-38 -158.5l-137 24q2 145 81.5 227.5t219.5 82.5q125 0 197.5 -66.5t72.5 -179.5q0 -90 -49 -165t-164 -159l-152 -114h386v-115h-596z" />
<glyph unicode="&#xb3;" horiz-adv-x="671" d="M39 944zM39 1199l133 30q6 -82 53 -123t129 -41q72 0 110 34t38 100q0 61 -41 88.5t-131 27.5h-99v107h91q72 0 109.5 28.5t37.5 83.5q0 53 -30.5 80t-92.5 27q-68 0 -105.5 -35t-47.5 -106l-127 26q23 111 98.5 172.5t191.5 61.5q117 0 185.5 -54.5t68.5 -146.5 q0 -63 -36.5 -110.5t-106.5 -69.5v-2q88 -18 133 -66.5t45 -124.5q0 -109 -80 -174t-209 -65q-137 0 -220 65.5t-97 186.5z" />
<glyph unicode="&#xb4;" horiz-adv-x="1024" d="M348 1292l141 371h189l-186 -371h-144z" />
<glyph unicode="&#xb5;" horiz-adv-x="1347" d="M147 -379v1542h189v-696q0 -170 73.5 -253t225.5 -83q147 0 233 126t86 357v549h189v-874q0 -88 29.5 -122t107.5 -34q16 0 28.5 1t22.5 3v-137q-16 -6 -49 -11t-65 -5q-129 0 -192.5 67.5t-63.5 202.5v18h-9q-55 -143 -151 -219t-223 -76q-82 0 -144.5 20.5t-107.5 63.5 v-440h-179z" />
<glyph unicode="&#xb6;" horiz-adv-x="1155" d="M82 1190q0 186 121 290.5t336 104.5h477v-1851h-129v1745h-142v-1745h-129v1050h-73q-211 0 -336 111t-125 295z" />
<glyph unicode="&#xb7;" horiz-adv-x="350" d="M70 530v246h211v-246h-211z" />
<glyph unicode="&#xb8;" horiz-adv-x="1024" d="M252 -414l53 111q41 -25 97.5 -39t111.5 -14q66 0 98.5 21.5t32.5 64.5q0 35 -20.5 53t-57.5 18q-31 0 -54.5 -12t-35.5 -35l-92 19l74 245h121l-45 -153q16 8 35.5 11t41.5 3q70 0 115 -43t45 -112q0 -90 -69.5 -143.5t-186.5 -53.5q-72 0 -143.5 16.5t-120.5 42.5z" />
<glyph unicode="&#xb9;" horiz-adv-x="428" d="M12 958zM12 1545v104h125q47 0 61.5 11.5t16.5 52.5l2 34h113v-786h-144v584h-174z" />
<glyph unicode="&#xba;" horiz-adv-x="858" d="M37 532v121h782v-121h-782zM53 1192q0 186 103.5 299t275.5 113q170 0 271.5 -111t101.5 -299q0 -193 -100.5 -302.5t-276.5 -109.5q-174 0 -274.5 109.5t-100.5 300.5zM211 1194q0 -133 58.5 -209t160.5 -76q106 0 161.5 73t55.5 212q0 133 -56 207t-159 74 q-104 0 -162.5 -74t-58.5 -207z" />
<glyph unicode="&#xbb;" horiz-adv-x="864" d="M8 184zM8 1018h180l291 -418l-289 -416h-178l285 410zM385 1018h180l291 -418l-289 -416h-178l285 410z" />
<glyph unicode="&#xbc;" horiz-adv-x="1441" d="M10 0zM12 0l1155 1585h178l-1149 -1585h-184zM35 799zM35 1383v104h125q47 0 61.5 11.5t16.5 52.5l2 34h113v-786h-144v584h-174zM779 170v125l370 491h142v-501h133v-115h-133v-170h-142v170h-370zM898 285h260v352z" />
<glyph unicode="&#xbd;" horiz-adv-x="1488" d="M10 0zM12 0l1155 1585h178l-1149 -1585h-184zM35 799zM35 1383v104h125q47 0 61.5 11.5t16.5 52.5l2 34h113v-786h-144v584h-174zM857 0v98l251 187q96 74 138.5 133.5t42.5 122.5t-36 100t-97 37q-80 0 -120 -54.5t-38 -158.5l-137 24q2 145 81.5 227.5t219.5 82.5 q125 0 197.5 -66.5t72.5 -179.5q0 -90 -49 -165t-164 -159l-152 -114h386v-115h-596z" />
<glyph unicode="&#xbe;" horiz-adv-x="1648" d="M59 0zM59 784zM59 1037l133 30q6 -82 53 -123t129 -41q72 0 110 34t38 100q0 61 -41 88.5t-131 27.5h-99v107h91q72 0 109.5 28.5t37.5 83.5q0 53 -30.5 80t-92.5 27q-68 0 -105.5 -35t-47.5 -106l-127 26q23 111 98.5 172.5t191.5 61.5q117 0 185.5 -54.5t68.5 -146.5 q0 -63 -36.5 -110.5t-106.5 -69.5v-2q88 -18 133 -66.5t45 -124.5q0 -109 -80 -174t-209 -65q-137 0 -220 65.5t-97 186.5zM217 0l1155 1585h178l-1149 -1585h-184zM985 170v125l370 491h142v-501h133v-115h-133v-170h-142v170h-370zM1104 285h260v352z" />
<glyph unicode="&#xbf;" horiz-adv-x="1081" d="M20 -23q0 119 56.5 210.5t199.5 201.5q131 100 161 155.5t30 172.5v59h174v-78q0 -131 -45 -213t-184 -188q-113 -90 -154 -155.5t-41 -155.5q0 -123 83 -196t222 -73q162 0 251 90.5t126 288.5l178 -39q-43 -244 -188.5 -373.5t-376.5 -129.5q-221 0 -356.5 116.5 t-135.5 306.5zM449 918v245h210v-245h-210z" />
<glyph unicode="&#xc0;" horiz-adv-x="1476" d="M51 0l557 1585h230l587 -1585h-204l-152 428h-678l-143 -428h-197zM51 0zM444 586h570l-291 823zM508 1991h188l104 -291h-151z" />
<glyph unicode="&#xc1;" horiz-adv-x="1476" d="M51 0l557 1585h230l587 -1585h-204l-152 428h-678l-143 -428h-197zM51 0zM444 586h570l-291 823zM650 1700l104 291h188l-141 -291h-151z" />
<glyph unicode="&#xc2;" horiz-adv-x="1476" d="M51 0l557 1585h230l587 -1585h-204l-152 428h-678l-143 -428h-197zM51 0zM418 1692l246 293h120l248 -293h-157l-152 153l-152 -153h-153zM444 586h570l-291 823z" />
<glyph unicode="&#xc3;" horiz-adv-x="1476" d="M51 0l557 1585h230l587 -1585h-204l-152 428h-678l-143 -428h-197zM51 0zM381 1706q-2 125 50 194.5t146 69.5q43 0 85 -17.5t110 -68.5q51 -41 76.5 -52t48.5 -11q39 0 57.5 35.5t14.5 109.5l116 -16q2 -125 -44 -192.5t-134 -67.5q-43 0 -86 17t-112 71q-51 39 -76 50 t-47 11q-45 0 -66.5 -36t-19.5 -113zM444 586h570l-291 823z" />
<glyph unicode="&#xc4;" horiz-adv-x="1476" d="M51 0l557 1585h230l587 -1585h-204l-152 428h-678l-143 -428h-197zM51 0zM444 586h570l-291 823zM446 1708v197h187v-197h-187zM817 1708v197h187v-197h-187z" />
<glyph unicode="&#xc5;" horiz-adv-x="1476" d="M51 0l557 1585h230l587 -1585h-204l-152 428h-678l-143 -428h-197zM51 0zM444 586h570l-291 823zM522 1878q0 90 57.5 149.5t145.5 59.5t145.5 -57.5t57.5 -147.5t-57.5 -148t-145.5 -58t-145.5 57t-57.5 145zM621 1878q0 -49 29.5 -80.5t78.5 -31.5q47 0 76 31.5 t29 84.5q0 55 -30 87t-79 32q-47 0 -75.5 -34t-28.5 -89z" />
<glyph unicode="&#xc6;" horiz-adv-x="2123" d="M16 0l797 1585h1178v-164h-910l76 -522h780v-158h-757l82 -577h770v-164h-930l-62 428h-612l-207 -428h-205zM506 586h512l-115 819z" />
<glyph unicode="&#xc7;" horiz-adv-x="1574" d="M98 776q0 377 205 606.5t539 229.5q264 0 438 -149.5t231 -424.5l-190 -39q-43 213 -166 325t-315 112q-256 0 -399.5 -173t-143.5 -485q0 -293 144.5 -460.5t394.5 -167.5q197 0 318.5 100t182.5 313l183 -51q-66 -248 -233 -387t-415 -152l-32 -108q16 8 35.5 11 t42.5 3q70 0 114.5 -43t44.5 -112q0 -90 -69.5 -143.5t-186.5 -53.5q-72 0 -143.5 16.5t-120.5 42.5l53 111q41 -25 97.5 -39t111.5 -14q66 0 98.5 21.5t32.5 64.5q0 35 -20.5 53t-57.5 18q-31 0 -54 -12t-36 -35l-92 19l62 204q-305 25 -479.5 238t-174.5 561z" />
<glyph unicode="&#xc8;" horiz-adv-x="1339" d="M174 0v1585h1032v-164h-837v-522h784v-158h-784v-577h878v-164h-1073zM174 0zM508 1991h188l104 -291h-151z" />
<glyph unicode="&#xc9;" horiz-adv-x="1339" d="M174 0v1585h1032v-164h-837v-522h784v-158h-784v-577h878v-164h-1073zM174 0zM652 1700l104 291h188l-141 -291h-151z" />
<glyph unicode="&#xca;" horiz-adv-x="1339" d="M174 0v1585h1032v-164h-837v-522h784v-158h-784v-577h878v-164h-1073zM174 0zM418 1692l246 293h120l248 -293h-157l-152 153l-152 -153h-153z" />
<glyph unicode="&#xcb;" horiz-adv-x="1339" d="M174 0v1585h1032v-164h-837v-522h784v-158h-784v-577h878v-164h-1073zM174 0zM446 1708v197h187v-197h-187zM817 1708v197h187v-197h-187z" />
<glyph unicode="&#xcc;" horiz-adv-x="555" d="M59 0zM62 1991h188l104 -291h-151zM180 0v1585h195v-1585h-195z" />
<glyph unicode="&#xcd;" horiz-adv-x="555" d="M180 0v1585h195v-1585h-195zM180 0zM203 1700l104 291h188l-141 -291h-151z" />
<glyph unicode="&#xce;" horiz-adv-x="555" d="M-28 1692l246 293h120l248 -293h-157l-152 153l-152 -153h-153zM0 0zM180 0v1585h195v-1585h-195z" />
<glyph unicode="&#xcf;" horiz-adv-x="555" d="M0 0zM0 1708v197h187v-197h-187zM180 0v1585h195v-1585h-195zM371 1708v197h187v-197h-187z" />
<glyph unicode="&#xd0;" horiz-adv-x="1634" d="M-18 735v142h213v708h483q412 0 636 -205.5t224 -582.5q0 -375 -226.5 -586t-629.5 -211h-487v735h-213zM389 166h262q348 0 518 156t170 475q0 305 -167.5 463.5t-493.5 158.5h-289v-542h387v-142h-387v-569z" />
<glyph unicode="&#xd1;" horiz-adv-x="1568" d="M174 0v1585h258l782 -1302v1302h181v-1585h-211l-830 1366v-1366h-180zM174 0zM461 1688q-2 125 50 194.5t146 69.5q43 0 85 -17.5t110 -68.5q51 -41 76.5 -52t48.5 -11q39 0 57.5 35.5t14.5 109.5l116 -16q2 -125 -44 -192.5t-134 -67.5q-43 0 -86 17t-112 71 q-51 39 -76 50t-47 11q-45 0 -66.5 -36t-19.5 -113z" />
<glyph unicode="&#xd2;" d="M98 0zM98 784q0 375 201 601.5t532 226.5q326 0 519.5 -223.5t193.5 -600.5q0 -373 -194.5 -594t-524.5 -221q-342 0 -534.5 215t-192.5 596zM297 786q0 -301 138 -468.5t388 -167.5q133 0 234.5 47t171.5 141q57 82 87 194.5t30 253.5q0 301 -138.5 475.5t-376.5 174.5 q-137 0 -241.5 -50.5t-171.5 -146.5q-59 -82 -90 -196.5t-31 -256.5zM615 1991h188l104 -291h-151z" />
<glyph unicode="&#xd3;" d="M98 0zM98 784q0 375 201 601.5t532 226.5q326 0 519.5 -223.5t193.5 -600.5q0 -373 -194.5 -594t-524.5 -221q-342 0 -534.5 215t-192.5 596zM297 786q0 -301 138 -468.5t388 -167.5q133 0 234.5 47t171.5 141q57 82 87 194.5t30 253.5q0 301 -138.5 475.5t-376.5 174.5 q-137 0 -241.5 -50.5t-171.5 -146.5q-59 -82 -90 -196.5t-31 -256.5zM756 1700l104 291h188l-141 -291h-151z" />
<glyph unicode="&#xd4;" d="M98 0zM98 784q0 375 201 601.5t532 226.5q326 0 519.5 -223.5t193.5 -600.5q0 -373 -194.5 -594t-524.5 -221q-342 0 -534.5 215t-192.5 596zM297 786q0 -301 138 -468.5t388 -167.5q133 0 234.5 47t171.5 141q57 82 87 194.5t30 253.5q0 301 -138.5 475.5t-376.5 174.5 q-137 0 -241.5 -50.5t-171.5 -146.5q-59 -82 -90 -196.5t-31 -256.5zM524 1692l246 293h120l248 -293h-157l-152 153l-152 -153h-153z" />
<glyph unicode="&#xd5;" d="M98 0zM98 784q0 375 201 601.5t532 226.5q326 0 519.5 -223.5t193.5 -600.5q0 -373 -194.5 -594t-524.5 -221q-342 0 -534.5 215t-192.5 596zM297 786q0 -301 138 -468.5t388 -167.5q133 0 234.5 47t171.5 141q57 82 87 194.5t30 253.5q0 301 -138.5 475.5t-376.5 174.5 q-137 0 -241.5 -50.5t-171.5 -146.5q-59 -82 -90 -196.5t-31 -256.5zM488 1706q-2 125 50 194.5t146 69.5q43 0 85 -17.5t110 -68.5q51 -41 76.5 -52t48.5 -11q39 0 57.5 35.5t14.5 109.5l116 -16q2 -125 -44 -192.5t-134 -67.5q-43 0 -86 17t-112 71q-51 39 -76 50t-47 11 q-45 0 -66.5 -36t-19.5 -113z" />
<glyph unicode="&#xd6;" d="M98 0zM98 784q0 375 201 601.5t532 226.5q326 0 519.5 -223.5t193.5 -600.5q0 -373 -194.5 -594t-524.5 -221q-342 0 -534.5 215t-192.5 596zM297 786q0 -301 138 -468.5t388 -167.5q133 0 234.5 47t171.5 141q57 82 87 194.5t30 253.5q0 301 -138.5 475.5t-376.5 174.5 q-137 0 -241.5 -50.5t-171.5 -146.5q-59 -82 -90 -196.5t-31 -256.5zM552 1708v197h187v-197h-187zM923 1708v197h187v-197h-187z" />
<glyph unicode="&#xd7;" horiz-adv-x="1206" d="M201 1063l106 106l305 -307l291 301l101 -100l-291 -301l291 -291l-107 -109l-297 300l-293 -300l-102 103l293 299z" />
<glyph unicode="&#xd8;" d="M98 784q0 375 201 601.5t532 226.5q129 0 243 -39t206 -115l121 146l112 -91l-133 -161q80 -106 122 -250t42 -314q0 -373 -194.5 -594t-524.5 -221q-139 0 -255.5 38t-209.5 112l-137 -164l-114 98l145 174q-78 104 -117 244.5t-39 308.5zM297 786q0 -121 23.5 -224 t68.5 -181l764 940q-66 57 -146.5 86t-175.5 29q-137 0 -241 -50.5t-172 -146.5q-59 -82 -90 -196.5t-31 -256.5zM485 264q63 -57 149.5 -85.5t188.5 -28.5q133 0 234.5 47t171.5 141q57 82 87 194.5t30 253.5q0 125 -25 232.5t-74 189.5z" />
<glyph unicode="&#xd9;" horiz-adv-x="1583" d="M160 0zM160 592v993h192v-964q0 -240 111.5 -354.5t345.5 -114.5q213 0 318.5 120.5t105.5 362.5v950h190v-958q0 -315 -160.5 -484.5t-463.5 -169.5q-313 0 -476 158t-163 461zM576 1973h188l104 -291h-151z" />
<glyph unicode="&#xda;" horiz-adv-x="1583" d="M160 0zM160 592v993h192v-964q0 -240 111.5 -354.5t345.5 -114.5q213 0 318.5 120.5t105.5 362.5v950h190v-958q0 -315 -160.5 -484.5t-463.5 -169.5q-313 0 -476 158t-163 461zM717 1682l104 291h188l-141 -291h-151z" />
<glyph unicode="&#xdb;" horiz-adv-x="1583" d="M160 0zM160 592v993h192v-964q0 -240 111.5 -354.5t345.5 -114.5q213 0 318.5 120.5t105.5 362.5v950h190v-958q0 -315 -160.5 -484.5t-463.5 -169.5q-313 0 -476 158t-163 461zM486 1674l246 293h120l248 -293h-157l-152 153l-152 -153h-153z" />
<glyph unicode="&#xdc;" horiz-adv-x="1583" d="M160 0zM160 592v993h192v-964q0 -240 111.5 -354.5t345.5 -114.5q213 0 318.5 120.5t105.5 362.5v950h190v-958q0 -315 -160.5 -484.5t-463.5 -169.5q-313 0 -476 158t-163 461zM514 1690v197h187v-197h-187zM885 1690v197h187v-197h-187z" />
<glyph unicode="&#xdd;" horiz-adv-x="1302" d="M14 0zM14 1585h205l447 -760l426 760h194l-526 -930v-655h-193v655zM592 1700l104 291h188l-141 -291h-151z" />
<glyph unicode="&#xde;" horiz-adv-x="1357" d="M174 0v1585h195v-328h360q272 0 415.5 -115.5t143.5 -334.5q0 -236 -149.5 -357.5t-438.5 -121.5h-331v-328h-195zM369 489h303q225 0 321.5 73t96.5 243q0 150 -94.5 220.5t-293.5 70.5h-333v-607z" />
<glyph unicode="&#xdf;" horiz-adv-x="1341" d="M168 0v1085q0 279 143.5 438.5t393.5 159.5q197 0 315.5 -104t118.5 -276q0 -131 -77 -227.5t-212 -135.5v-4q201 -43 305.5 -161t104.5 -302q0 -231 -137.5 -363.5t-379.5 -132.5q-51 0 -101 5.5t-118 19.5v160q59 -12 105.5 -17.5t87.5 -5.5q172 0 264 91.5t92 263.5 q0 178 -112.5 268t-337.5 90h-72v149h113q143 0 217.5 70t74.5 203q0 121 -69.5 186.5t-194.5 65.5q-164 0 -250 -110.5t-86 -319.5v-1096h-188z" />
<glyph unicode="&#xe0;" horiz-adv-x="1249" d="M98 0zM98 295q0 80 27 142.5t80 109.5q45 39 116.5 64.5t170.5 41.5l167 27q111 18 157 53t46 105q0 90 -63.5 143t-173.5 53q-125 0 -200 -64.5t-112 -201.5l-176 37q51 184 177 283.5t311 99.5q203 0 311 -108.5t108 -309.5v-481q0 -88 30 -122t108 -34q12 0 22 1t29 3 v-135q-16 -8 -48 -12t-67 -4q-127 0 -192.5 63.5t-65.5 188.5v8h-6q-53 -131 -156.5 -202t-244.5 -71q-164 0 -259.5 86t-95.5 236zM291 317q0 -94 58.5 -147t162.5 -53q162 0 258 116.5t96 311.5v88q-23 -20 -65.5 -35.5t-120.5 -32.5l-154 -28q-127 -23 -181 -73.5 t-54 -146.5zM362 1663h189l141 -371h-143z" />
<glyph unicode="&#xe1;" horiz-adv-x="1249" d="M98 0zM98 295q0 80 27 142.5t80 109.5q45 39 116.5 64.5t170.5 41.5l167 27q111 18 157 53t46 105q0 90 -63.5 143t-173.5 53q-125 0 -200 -64.5t-112 -201.5l-176 37q51 184 177 283.5t311 99.5q203 0 311 -108.5t108 -309.5v-481q0 -88 30 -122t108 -34q12 0 22 1t29 3 v-135q-16 -8 -48 -12t-67 -4q-127 0 -192.5 63.5t-65.5 188.5v8h-6q-53 -131 -156.5 -202t-244.5 -71q-164 0 -259.5 86t-95.5 236zM291 317q0 -94 58.5 -147t162.5 -53q162 0 258 116.5t96 311.5v88q-23 -20 -65.5 -35.5t-120.5 -32.5l-154 -28q-127 -23 -181 -73.5 t-54 -146.5zM549 1292l141 371h189l-186 -371h-144z" />
<glyph unicode="&#xe2;" horiz-adv-x="1249" d="M98 0zM98 295q0 80 27 142.5t80 109.5q45 39 116.5 64.5t170.5 41.5l167 27q111 18 157 53t46 105q0 90 -63.5 143t-173.5 53q-125 0 -200 -64.5t-112 -201.5l-176 37q51 184 177 283.5t311 99.5q203 0 311 -108.5t108 -309.5v-481q0 -88 30 -122t108 -34q12 0 22 1t29 3 v-135q-16 -8 -48 -12t-67 -4q-127 0 -192.5 63.5t-65.5 188.5v8h-6q-53 -131 -156.5 -202t-244.5 -71q-164 0 -259.5 86t-95.5 236zM291 317q0 -94 58.5 -147t162.5 -53q162 0 258 116.5t96 311.5v88q-23 -20 -65.5 -35.5t-120.5 -32.5l-154 -28q-127 -23 -181 -73.5 t-54 -146.5zM310 1292l245 371h121l256 -371h-155l-164 219l-152 -219h-151z" />
<glyph unicode="&#xe3;" horiz-adv-x="1249" d="M98 0zM98 295q0 80 27 142.5t80 109.5q45 39 116.5 64.5t170.5 41.5l167 27q111 18 157 53t46 105q0 90 -63.5 143t-173.5 53q-125 0 -200 -64.5t-112 -201.5l-176 37q51 184 177 283.5t311 99.5q203 0 311 -108.5t108 -309.5v-481q0 -88 30 -122t108 -34q12 0 22 1t29 3 v-135q-16 -8 -48 -12t-67 -4q-127 0 -192.5 63.5t-65.5 188.5v8h-6q-53 -131 -156.5 -202t-244.5 -71q-164 0 -259.5 86t-95.5 236zM262 1333q-2 139 50 215t146 76q43 0 85 -20.5t110 -81.5q51 -45 76.5 -59.5t48.5 -14.5q39 0 57.5 42t14.5 130l116 -16q2 -139 -44 -213 t-134 -74q-43 0 -86 20.5t-112 81.5q-51 47 -76 60.5t-47 13.5q-45 0 -66.5 -43t-19.5 -133zM291 317q0 -94 58.5 -147t162.5 -53q162 0 258 116.5t96 311.5v88q-23 -20 -65.5 -35.5t-120.5 -32.5l-154 -28q-127 -23 -181 -73.5t-54 -146.5z" />
<glyph unicode="&#xe4;" horiz-adv-x="1249" d="M98 0zM98 295q0 80 27 142.5t80 109.5q45 39 116.5 64.5t170.5 41.5l167 27q111 18 157 53t46 105q0 90 -63.5 143t-173.5 53q-125 0 -200 -64.5t-112 -201.5l-176 37q51 184 177 283.5t311 99.5q203 0 311 -108.5t108 -309.5v-481q0 -88 30 -122t108 -34q12 0 22 1t29 3 v-135q-16 -8 -48 -12t-67 -4q-127 0 -192.5 63.5t-65.5 188.5v8h-6q-53 -131 -156.5 -202t-244.5 -71q-164 0 -259.5 86t-95.5 236zM291 317q0 -94 58.5 -147t162.5 -53q162 0 258 116.5t96 311.5v88q-23 -20 -65.5 -35.5t-120.5 -32.5l-154 -28q-127 -23 -181 -73.5 t-54 -146.5zM342 1372v197h189v-197h-189zM711 1372v197h189v-197h-189z" />
<glyph unicode="&#xe5;" horiz-adv-x="1249" d="M98 0zM98 295q0 80 27 142.5t80 109.5q45 39 116.5 64.5t170.5 41.5l167 27q111 18 157 53t46 105q0 90 -63.5 143t-173.5 53q-125 0 -200 -64.5t-112 -201.5l-176 37q51 184 177 283.5t311 99.5q203 0 311 -108.5t108 -309.5v-481q0 -88 30 -122t108 -34q12 0 22 1t29 3 v-135q-16 -8 -48 -12t-67 -4q-127 0 -192.5 63.5t-65.5 188.5v8h-6q-53 -131 -156.5 -202t-244.5 -71q-164 0 -259.5 86t-95.5 236zM291 317q0 -94 58.5 -147t162.5 -53q162 0 258 116.5t96 311.5v88q-23 -20 -65.5 -35.5t-120.5 -32.5l-154 -28q-127 -23 -181 -73.5 t-54 -146.5zM394 1528q0 102 65.5 168.5t165.5 66.5q98 0 160.5 -64.5t62.5 -166.5t-63.5 -168t-163.5 -66q-102 0 -164.5 62.5t-62.5 167.5zM496 1530q0 -61 35 -99t90 -38q59 0 93 36.5t34 100.5q0 66 -33 102.5t-92 36.5q-57 0 -92 -38t-35 -101z" />
<glyph unicode="&#xe6;" horiz-adv-x="1966" d="M98 295q0 80 27 142.5t80 109.5q47 39 117.5 65.5t169.5 40.5l167 27q111 18 157 53t46 105q0 90 -63.5 143t-169.5 53q-125 0 -202 -64.5t-114 -201.5l-176 37q51 186 174 284.5t305 98.5q131 0 224.5 -54.5t144.5 -158.5q68 102 174.5 157.5t235.5 55.5 q135 0 242.5 -62.5t168.5 -179.5q43 -80 65.5 -180t22.5 -221h-843q8 -190 106 -302t260 -112q123 0 204 62.5t130 191.5l160 -55q-66 -174 -194 -265.5t-304 -91.5q-172 0 -296 80t-183 228h-4q-63 -152 -181 -230t-284 -78q-172 0 -269.5 85t-97.5 237zM291 313 q0 -94 58.5 -145t162.5 -51q162 0 256 119.5t94 324.5v70q-23 -20 -65.5 -35.5t-116.5 -30.5l-154 -28q-127 -23 -181 -75.5t-54 -148.5zM1053 676h647q-2 55 -11.5 100t-25.5 78q-39 86 -109.5 132t-162.5 46q-145 0 -233.5 -93t-104.5 -263z" />
<glyph unicode="&#xe7;" horiz-adv-x="1216" d="M84 580q0 270 153.5 439t401.5 169q197 0 326 -111.5t180 -322.5l-182 -41q-33 154 -116 233.5t-212 79.5q-166 0 -262.5 -119t-96.5 -323q0 -209 97.5 -329t265.5 -120q131 0 214 68.5t128 214.5l170 -49q-45 -172 -166 -275.5t-295 -118.5l-33 -112q16 8 36 11t42 3 q70 0 115 -43t45 -113q0 -90 -69.5 -143t-186.5 -53q-72 0 -143.5 16.5t-120.5 42.5l53 111q41 -25 97.5 -39t111.5 -14q66 0 98.5 21.5t32.5 64.5q0 35 -20.5 53t-57.5 18q-31 0 -54.5 -12t-35.5 -35l-92 19l61 204q-229 20 -357 180t-128 425z" />
<glyph unicode="&#xe8;" horiz-adv-x="1204" d="M84 0zM84 580q0 268 151.5 438t391.5 170q145 0 255.5 -66.5t172.5 -189.5q39 -78 58.5 -175.5t19.5 -211.5h-859q8 -190 107.5 -302t263.5 -112q129 0 212 61.5t134 192.5l158 -55q-66 -172 -197 -264.5t-311 -92.5q-256 0 -406.5 164t-150.5 443zM279 676h661 q-2 57 -11.5 99t-27.5 81q-39 84 -110.5 130t-165.5 46q-145 0 -237.5 -95t-108.5 -261zM362 1663h189l141 -371h-143z" />
<glyph unicode="&#xe9;" horiz-adv-x="1204" d="M84 0zM84 580q0 268 151.5 438t391.5 170q145 0 255.5 -66.5t172.5 -189.5q39 -78 58.5 -175.5t19.5 -211.5h-859q8 -190 107.5 -302t263.5 -112q129 0 212 61.5t134 192.5l158 -55q-66 -172 -197 -264.5t-311 -92.5q-256 0 -406.5 164t-150.5 443zM279 676h661 q-2 57 -11.5 99t-27.5 81q-39 84 -110.5 130t-165.5 46q-145 0 -237.5 -95t-108.5 -261zM549 1292l141 371h189l-186 -371h-144z" />
<glyph unicode="&#xea;" horiz-adv-x="1204" d="M84 0zM84 580q0 268 151.5 438t391.5 170q145 0 255.5 -66.5t172.5 -189.5q39 -78 58.5 -175.5t19.5 -211.5h-859q8 -190 107.5 -302t263.5 -112q129 0 212 61.5t134 192.5l158 -55q-66 -172 -197 -264.5t-311 -92.5q-256 0 -406.5 164t-150.5 443zM279 676h661 q-2 57 -11.5 99t-27.5 81q-39 84 -110.5 130t-165.5 46q-145 0 -237.5 -95t-108.5 -261zM310 1292l245 371h121l256 -371h-155l-164 219l-152 -219h-151z" />
<glyph unicode="&#xeb;" horiz-adv-x="1204" d="M84 0zM84 580q0 268 151.5 438t391.5 170q145 0 255.5 -66.5t172.5 -189.5q39 -78 58.5 -175.5t19.5 -211.5h-859q8 -190 107.5 -302t263.5 -112q129 0 212 61.5t134 192.5l158 -55q-66 -172 -197 -264.5t-311 -92.5q-256 0 -406.5 164t-150.5 443zM279 676h661 q-2 57 -11.5 99t-27.5 81q-39 84 -110.5 130t-165.5 46q-145 0 -237.5 -95t-108.5 -261zM342 1372v197h189v-197h-189zM711 1372v197h189v-197h-189z" />
<glyph unicode="&#xec;" horiz-adv-x="518" d="M0 0zM2 1663h189l141 -371h-143zM166 0v1163h186v-1163h-186z" />
<glyph unicode="&#xed;" horiz-adv-x="518" d="M166 0v1163h186v-1163h-186zM166 0zM188 1292l141 371h189l-186 -371h-144z" />
<glyph unicode="&#xee;" horiz-adv-x="518" d="M-51 1292l245 371h121l256 -371h-155l-164 219l-152 -219h-151zM0 0zM166 0v1163h186v-1163h-186z" />
<glyph unicode="&#xef;" horiz-adv-x="518" d="M-19 1372v197h189v-197h-189zM0 0zM166 0v1163h186v-1163h-186zM350 1372v197h189v-197h-189z" />
<glyph unicode="&#xf0;" horiz-adv-x="1249" d="M84 510q0 244 140.5 393.5t369.5 149.5q102 0 187 -42t145 -122l6 2q-20 55 -53 114.5t-84 133.5l-95 137l-202 -125l-64 100l199 123l-154 223l144 86l161 -231l211 131l66 -100l-207 -127l76 -109q119 -168 179 -332.5t60 -320.5q0 -131 -27.5 -234.5t-82.5 -181.5 q-70 -100 -180.5 -152.5t-257.5 -52.5q-246 0 -391.5 145.5t-145.5 391.5zM276 520q0 -180 93.5 -282.5t259.5 -102.5t257 102.5t91 284.5t-92 287.5t-254 105.5q-168 0 -261.5 -103t-93.5 -292z" />
<glyph unicode="&#xf1;" horiz-adv-x="1314" d="M162 0v1163h182v-270h6q59 139 169 217t247 78q195 0 297 -121t102 -352v-715h-186v668q0 190 -66.5 276t-214.5 86q-162 0 -255 -123t-93 -338v-569h-188zM162 0zM311 1333q-2 139 50 215t146 76q43 0 85 -20.5t110 -81.5q51 -45 76.5 -59.5t48.5 -14.5q39 0 57.5 42 t14.5 130l116 -16q2 -139 -44 -213t-134 -74q-43 0 -86 20.5t-112 81.5q-51 47 -76 60.5t-47 13.5q-45 0 -66.5 -43t-19.5 -133z" />
<glyph unicode="&#xf2;" horiz-adv-x="1253" d="M84 0zM84 580q0 276 149.5 442t397.5 166t393 -162t145 -440q0 -287 -145 -450t-399 -163q-250 0 -395.5 162t-145.5 445zM276 586q0 -215 92.5 -333t260.5 -118q170 0 260 115t90 332q0 211 -92 328.5t-256 117.5q-170 0 -262.5 -114.5t-92.5 -327.5zM368 1663h189 l141 -371h-143z" />
<glyph unicode="&#xf3;" horiz-adv-x="1253" d="M84 0zM84 580q0 276 149.5 442t397.5 166t393 -162t145 -440q0 -287 -145 -450t-399 -163q-250 0 -395.5 162t-145.5 445zM276 586q0 -215 92.5 -333t260.5 -118q170 0 260 115t90 332q0 211 -92 328.5t-256 117.5q-170 0 -262.5 -114.5t-92.5 -327.5zM557 1292l141 371 h189l-186 -371h-144z" />
<glyph unicode="&#xf4;" horiz-adv-x="1253" d="M84 0zM84 580q0 276 149.5 442t397.5 166t393 -162t145 -440q0 -287 -145 -450t-399 -163q-250 0 -395.5 162t-145.5 445zM276 586q0 -215 92.5 -333t260.5 -118q170 0 260 115t90 332q0 211 -92 328.5t-256 117.5q-170 0 -262.5 -114.5t-92.5 -327.5zM316 1292l245 371 h121l256 -371h-155l-164 219l-152 -219h-151z" />
<glyph unicode="&#xf5;" horiz-adv-x="1253" d="M84 0zM84 580q0 276 149.5 442t397.5 166t393 -162t145 -440q0 -287 -145 -450t-399 -163q-250 0 -395.5 162t-145.5 445zM268 1333q-2 139 50 215t146 76q43 0 85 -20.5t110 -81.5q51 -45 76.5 -59.5t48.5 -14.5q39 0 57.5 42t14.5 130l116 -16q2 -139 -44 -213 t-134 -74q-43 0 -86 20.5t-112 81.5q-51 47 -76 60.5t-47 13.5q-45 0 -66.5 -43t-19.5 -133zM276 586q0 -215 92.5 -333t260.5 -118q170 0 260 115t90 332q0 211 -92 328.5t-256 117.5q-170 0 -262.5 -114.5t-92.5 -327.5z" />
<glyph unicode="&#xf6;" horiz-adv-x="1253" d="M84 0zM84 580q0 276 149.5 442t397.5 166t393 -162t145 -440q0 -287 -145 -450t-399 -163q-250 0 -395.5 162t-145.5 445zM276 586q0 -215 92.5 -333t260.5 -118q170 0 260 115t90 332q0 211 -92 328.5t-256 117.5q-170 0 -262.5 -114.5t-92.5 -327.5zM348 1372v197h189 v-197h-189zM717 1372v197h189v-197h-189z" />
<glyph unicode="&#xf7;" horiz-adv-x="1206" d="M176 739v142h854v-142h-854zM506 295v231h192v-231h-192zM506 1081v234h192v-234h-192z" />
<glyph unicode="&#xf8;" horiz-adv-x="1253" d="M55 55l129 142q-49 74 -74.5 171t-25.5 212q0 276 149.5 442t397.5 166q104 0 191 -30t155 -89l110 121l103 -92l-121 -131q49 -74 74.5 -170.5t25.5 -210.5q0 -287 -145 -450t-399 -163q-102 0 -190.5 30t-158.5 87l-114 -129zM274 586q0 -76 11.5 -139.5t33.5 -112.5 l541 608q-43 43 -101 65.5t-128 22.5q-172 0 -264.5 -115.5t-92.5 -328.5zM395 221q43 -43 102.5 -65.5t131.5 -22.5q172 0 262 114.5t90 334.5q0 74 -12.5 137t-34.5 115z" />
<glyph unicode="&#xf9;" horiz-adv-x="1306" d="M147 0zM147 414v749h189v-690q0 -176 68.5 -259t213.5 -83q160 0 249 120t89 333v579h189v-1163h-182v264h-7q-57 -139 -162.5 -214t-242.5 -75q-195 0 -299.5 113t-104.5 326zM387 1645h189l141 -371h-143z" />
<glyph unicode="&#xfa;" horiz-adv-x="1306" d="M147 0zM147 414v749h189v-690q0 -176 68.5 -259t213.5 -83q160 0 249 120t89 333v579h189v-1163h-182v264h-7q-57 -139 -162.5 -214t-242.5 -75q-195 0 -299.5 113t-104.5 326zM575 1274l141 371h189l-186 -371h-144z" />
<glyph unicode="&#xfb;" horiz-adv-x="1306" d="M147 0zM147 414v749h189v-690q0 -176 68.5 -259t213.5 -83q160 0 249 120t89 333v579h189v-1163h-182v264h-7q-57 -139 -162.5 -214t-242.5 -75q-195 0 -299.5 113t-104.5 326zM334 1274l245 371h121l256 -371h-155l-164 219l-152 -219h-151z" />
<glyph unicode="&#xfc;" horiz-adv-x="1306" d="M147 0zM147 414v749h189v-690q0 -176 68.5 -259t213.5 -83q160 0 249 120t89 333v579h189v-1163h-182v264h-7q-57 -139 -162.5 -214t-242.5 -75q-195 0 -299.5 113t-104.5 326zM366 1354v197h189v-197h-189zM735 1354v197h189v-197h-189z" />
<glyph unicode="&#xfd;" horiz-adv-x="1138" d="M-55 -340l55 158q61 -29 119.5 -42.5t120.5 -13.5q66 0 114.5 31t87.5 96q12 20 23.5 43t23.5 54l-471 1177h197l371 -958l342 958h190l-434 -1145q-92 -246 -187.5 -333.5t-267.5 -87.5q-72 0 -152.5 18t-131.5 45zM0 0zM495 1292l141 371h189l-186 -371h-144z" />
<glyph unicode="&#xfe;" horiz-adv-x="1316" d="M162 -379v2048h188v-760h6q59 133 164 206t240 73q215 0 344 -165t129 -439t-132 -442.5t-345 -168.5q-139 0 -240.5 69t-159.5 198h-6v-619h-188zM348 582q0 -205 97.5 -327t261.5 -122q160 0 246.5 118t86.5 333q0 205 -90 325.5t-243 120.5q-168 0 -263.5 -118.5 t-95.5 -329.5z" />
<glyph unicode="&#xff;" horiz-adv-x="1138" d="M-55 -340l55 158q61 -29 119.5 -42.5t120.5 -13.5q66 0 114.5 31t87.5 96q12 20 23.5 43t23.5 54l-471 1177h197l371 -958l342 958h190l-434 -1145q-92 -246 -187.5 -333.5t-267.5 -87.5q-72 0 -152.5 18t-131.5 45zM0 0zM286 1372v197h189v-197h-189zM655 1372v197h189 v-197h-189z" />
<glyph unicode="&#x152;" horiz-adv-x="2390" d="M98 784q0 242 89.5 416t261.5 270q106 59 243 87t330 28h1235v-164h-838v-522h785v-158h-785v-577h879v-164h-1301q-193 0 -330 26.5t-241 86.5q-164 92 -246 261t-82 410zM297 786q0 -315 168 -467.5t514 -152.5h246v1253h-238q-350 0 -520 -155.5t-170 -477.5z" />
<glyph unicode="&#x153;" horiz-adv-x="2088" d="M84 580q0 276 149.5 442t393.5 166q152 0 263 -70.5t179 -208.5q68 137 180.5 208t261.5 71q139 0 247 -61.5t171 -180.5q43 -78 64.5 -177t23.5 -224h-860q8 -190 108.5 -302t268.5 -112q125 0 207 61.5t133 192.5l158 -55q-66 -174 -193 -265.5t-305 -91.5 q-154 0 -274.5 72t-188.5 203q-68 -133 -182.5 -204t-263.5 -71q-252 0 -396.5 162t-144.5 445zM276 586q0 -215 92.5 -333t260.5 -118q170 0 260 115t90 332q0 211 -92 328.5t-256 117.5q-170 0 -262.5 -114.5t-92.5 -327.5zM1161 676h662q-4 57 -13.5 101t-25.5 77 q-39 86 -112 132t-167 46q-143 0 -235 -95t-109 -261z" />
<glyph unicode="&#x178;" horiz-adv-x="1302" d="M14 0zM14 1585h205l447 -760l426 760h194l-526 -930v-655h-193v655zM389 1708v197h187v-197h-187zM760 1708v197h187v-197h-187z" />
<glyph unicode="&#x2c6;" horiz-adv-x="1024" d="M201 1292l245 371h121l256 -371h-155l-164 219l-152 -219h-151z" />
<glyph unicode="&#x2dc;" horiz-adv-x="1024" d="M166 1333q-2 139 50 215t146 76q43 0 85 -20.5t110 -81.5q51 -45 76.5 -59.5t48.5 -14.5q39 0 57.5 42t14.5 130l116 -16q2 -139 -44 -213t-134 -74q-43 0 -86 20.5t-112 81.5q-51 47 -76 60.5t-47 13.5q-45 0 -66.5 -43t-19.5 -133z" />
<glyph unicode="&#x2000;" horiz-adv-x="1043" />
<glyph unicode="&#x2001;" horiz-adv-x="2087" />
<glyph unicode="&#x2002;" horiz-adv-x="1043" />
<glyph unicode="&#x2003;" horiz-adv-x="2087" />
<glyph unicode="&#x2004;" horiz-adv-x="695" />
<glyph unicode="&#x2005;" horiz-adv-x="521" />
<glyph unicode="&#x2006;" horiz-adv-x="347" />
<glyph unicode="&#x2007;" horiz-adv-x="347" />
<glyph unicode="&#x2008;" horiz-adv-x="260" />
<glyph unicode="&#x2009;" horiz-adv-x="417" />
<glyph unicode="&#x200a;" horiz-adv-x="115" />
<glyph unicode="&#x2010;" horiz-adv-x="835" d="M96 592v151h643v-151h-643z" />
<glyph unicode="&#x2011;" horiz-adv-x="835" d="M96 592v151h643v-151h-643z" />
<glyph unicode="&#x2012;" horiz-adv-x="835" d="M96 592v151h643v-151h-643z" />
<glyph unicode="&#x2013;" horiz-adv-x="1574" d="M129 602v131h1319v-131h-1319z" />
<glyph unicode="&#x2014;" horiz-adv-x="1941" d="M129 602v131h1686v-131h-1686z" />
<glyph unicode="&#x2018;" horiz-adv-x="348" d="M68 1083v277q0 119 55 175t178 62l21 -104q-86 -2 -113 -25.5t-27 -97.5v-43h97v-244h-211z" />
<glyph unicode="&#x2019;" horiz-adv-x="348" d="M25 1174q88 4 114.5 27.5t26.5 96.5v41h-98v246h211v-276q0 -121 -55.5 -177.5t-178.5 -60.5z" />
<glyph unicode="&#x201a;" horiz-adv-x="348" d="M25 0zM25 -165q88 4 114.5 27.5t26.5 96.5v41h-98v246h211v-276q0 -121 -55.5 -177.5t-178.5 -60.5z" />
<glyph unicode="&#x201c;" horiz-adv-x="659" d="M68 1083v277q0 119 55 175t178 62l21 -104q-86 -2 -113 -25.5t-27 -97.5v-43h97v-244h-211zM68 1083zM381 1083v277q0 119 55 175t178 62l21 -104q-86 -2 -113 -25.5t-27 -97.5v-43h97v-244h-211z" />
<glyph unicode="&#x201d;" horiz-adv-x="659" d="M25 1071zM25 1174q88 4 114.5 27.5t26.5 96.5v41h-98v246h211v-276q0 -121 -55.5 -177.5t-178.5 -60.5zM338 1174q88 4 114.5 27.5t26.5 96.5v41h-98v246h211v-276q0 -121 -55.5 -177.5t-178.5 -60.5z" />
<glyph unicode="&#x201e;" horiz-adv-x="659" d="M25 0zM25 -165q88 4 114.5 27.5t26.5 96.5v41h-98v246h211v-276q0 -121 -55.5 -177.5t-178.5 -60.5zM338 -165q88 4 114.5 27.5t26.5 96.5v41h-98v246h211v-276q0 -121 -55.5 -177.5t-178.5 -60.5z" />
<glyph unicode="&#x2022;" horiz-adv-x="690" d="M164 641q0 78 52 131t130 53t129 -52t51 -132q0 -76 -52 -129t-128 -53t-129 53t-53 129z" />
<glyph unicode="&#x2026;" horiz-adv-x="1239" d="M70 0v246h211v-246h-211zM514 0v246h211v-246h-211zM958 0v246h211v-246h-211z" />
<glyph unicode="&#x202f;" horiz-adv-x="417" />
<glyph unicode="&#x2039;" horiz-adv-x="487" d="M10 600l285 418h180l-285 -410l289 -424h-182z" />
<glyph unicode="&#x203a;" horiz-adv-x="487" d="M8 1018h180l291 -418l-289 -416h-178l285 410z" />
<glyph unicode="&#x205f;" horiz-adv-x="521" />
<glyph unicode="&#x20ac;" horiz-adv-x="1613" d="M23 553v131h190v17.5v27.5q-2 18 -2 28.5v18.5v15.5t2 25.5v25.5v15.5h-190v131h204q55 289 237.5 456t442.5 167q246 0 408 -148.5t219 -425.5l-193 -41q-43 217 -153.5 328t-284.5 111q-190 0 -314 -115t-165 -332h575l-26 -131h-567q-2 -14 -2.5 -30.5t-0.5 -49.5 q0 -39 1.5 -58.5t3.5 -35.5h530l-27 -131h-483q43 -195 165 -299t302 -104q178 0 288.5 99t174.5 314l182 -51q-70 -262 -236.5 -400.5t-414.5 -138.5q-264 0 -435.5 150.5t-224.5 429.5h-206z" />
<glyph unicode="&#x2122;" horiz-adv-x="1738" d="M35 1458v127h684v-127h-262v-698h-160v698h-262zM807 760v825h192l236 -651l227 651h185v-825h-142v635l-211 -635h-129l-221 637v-637h-137z" />
<glyph unicode="&#x25fc;" horiz-adv-x="1167" d="M0 0v1167h1167v-1167h-1167z" />
</font>
</defs>
</svg>
