<?xml version="1.0" standalone="no"?>
<!DOCTYPE svg PUBLIC "-//W3C//DTD SVG 1.1//EN" "http://www.w3.org/Graphics/SVG/1.1/DTD/svg11.dtd" >
<svg xmlns="http://www.w3.org/2000/svg" xmlns:xlink="http://www.w3.org/1999/xlink" version="1.1">
<metadata></metadata>
<defs>
<font id="garnett_regularitalic" horiz-adv-x="1642" >
<font-face units-per-em="2048" ascent="1638" descent="-410" />
<missing-glyph horiz-adv-x="393" />
<glyph unicode="&#xfb01;" horiz-adv-x="1271" d="M88 0zM88 1016l23 147h235l23 146q31 190 124 281t255 91q41 0 72.5 -3t58.5 -11l-23 -141q-18 4 -39.5 5t-50.5 1q-96 0 -144.5 -52.5t-68.5 -179.5l-21 -137h265l-21 -147h-266l-162 -1016h-186l160 1016h-234zM826 0l184 1163h186l-184 -1163h-186zM1047 1452l33 217 h209l-35 -217h-207z" />
<glyph unicode="&#xfb02;" horiz-adv-x="1265" d="M88 0zM88 1016l23 147h235l23 146q31 190 124 281t255 91q41 0 72.5 -3t58.5 -11l-23 -141q-18 4 -39.5 5t-50.5 1q-96 0 -144.5 -52.5t-68.5 -179.5l-21 -137h265l-21 -147h-266l-162 -1016h-186l160 1016h-234zM822 0l264 1669h188l-264 -1669h-188z" />
<glyph horiz-adv-x="0" />
<glyph unicode="&#xd;" horiz-adv-x="681" />
<glyph unicode=" "  horiz-adv-x="393" />
<glyph unicode="&#x09;" horiz-adv-x="393" />
<glyph unicode="&#xa0;" horiz-adv-x="393" />
<glyph unicode="!" horiz-adv-x="563" d="M82 0l41 246h209l-39 -246h-211zM203 395l61 707l78 483h197l-78 -483l-162 -707h-96z" />
<glyph unicode="&#x22;" horiz-adv-x="823" d="M266 1059l51 526h177l-113 -526h-115zM266 1059zM598 1059l51 526h177l-113 -526h-115z" />
<glyph unicode="#" horiz-adv-x="1325" d="M20 500l21 131h254l139 381h-252l23 131h278l131 358h152l-131 -358h393l131 358h152l-131 -358h215l-21 -131h-244l-139 -381h242l-21 -131h-270l-147 -400h-152l145 400h-393l-145 -400h-152l148 400h-226zM440 627h402l143 387h-403z" />
<glyph unicode="$" horiz-adv-x="1327" d="M16 457l191 53q25 -147 108.5 -238.5t221.5 -119.5l92 585q-158 49 -231.5 85t-114.5 81q-45 45 -66.5 105.5t-21.5 136.5q0 213 155.5 340t411.5 127l26 172h162l-28 -191q166 -37 269 -146.5t140 -285.5l-188 -47q-23 131 -85.5 209t-166.5 109l-88 -562 q156 -51 229.5 -84.5t118.5 -76.5q49 -47 72.5 -108.5t23.5 -141.5q0 -223 -154.5 -353.5t-420.5 -130.5h-6l-39 -237h-162l39 252q-203 33 -326 151.5t-162 315.5zM387 1167q0 -94 53.5 -147t214.5 -105l84 535q-160 0 -256 -77t-96 -206zM688 137q174 4 271.5 83t97.5 216 q0 94 -56.5 146.5t-226.5 107.5z" />
<glyph unicode="%" horiz-adv-x="2004" d="M233 0l1407 1585h179l-1401 -1585h-185zM272 1141q0 197 115 329t289 132q143 0 230 -95.5t87 -255.5q0 -193 -111.5 -322.5t-283.5 -129.5q-150 0 -238 93t-88 249zM424 1147q0 -106 48 -162.5t138 -56.5q100 0 166 92t66 231q0 102 -47 162t-127 60q-106 0 -175 -91.5 t-69 -234.5zM1079 326q0 197 114 329.5t288 132.5q143 0 230 -95t87 -255q0 -195 -110.5 -324.5t-284.5 -129.5q-150 0 -237 92t-87 250zM1231 334q0 -109 47 -165t137 -56q102 0 167 93t65 232q0 104 -46.5 161.5t-127.5 57.5q-106 0 -174 -90t-68 -233z" />
<glyph unicode="&#x26;" horiz-adv-x="1638" d="M92 412q0 193 109.5 322.5t318.5 187.5q-16 66 -25.5 133t-9.5 116q0 205 108 322t292 117q154 0 249 -90t95 -224q0 -170 -116 -274t-382 -178q20 -66 52 -131.5t75 -130.5q45 -70 99.5 -130.5t113.5 -109.5q113 129 187.5 308t91.5 341l172 -43q-20 -170 -116.5 -367.5 t-215.5 -322.5q94 -55 198.5 -84t215.5 -29h38l-40 -157q-8 -2 -16.5 -2h-24.5q-133 0 -262.5 41t-243.5 120q-94 -86 -211 -130t-252 -44q-233 0 -366.5 118t-133.5 321zM289 446q0 -145 90 -227t252 -82q94 0 165.5 23.5t133.5 72.5q-57 49 -110.5 112t-102.5 136 q-49 72 -90 154t-70 168q-139 -43 -203.5 -131t-64.5 -226zM670 1176q0 -49 7 -107.5t19 -110.5q188 51 272.5 127t84.5 197q0 82 -45 131t-123 49q-100 0 -157.5 -75.5t-57.5 -210.5z" />
<glyph unicode="'" horiz-adv-x="491" d="M266 1059l51 526h177l-113 -526h-115z" />
<glyph unicode="(" horiz-adv-x="641" d="M123 328q0 373 147.5 715.5t427.5 625.5h176q-281 -305 -419 -639t-138 -704q0 -219 53.5 -417t164.5 -382h-173q-111 156 -175 373t-64 428z" />
<glyph unicode=")" horiz-adv-x="641" d="M-233 -473q281 305 419 639t138 704q0 219 -53.5 417t-164.5 382h173q111 -156 175 -373t64 -428q0 -373 -147.5 -715.5t-427.5 -625.5h-176z" />
<glyph unicode="*" horiz-adv-x="888" d="M154 1311l71 135l277 -176l41 323l149 -28l-80 -316l318 60l18 -152l-323 -20l155 -285l-137 -68l-121 306l-223 -236l-106 111l251 206z" />
<glyph unicode="+" horiz-adv-x="1206" d="M199 727l22 141h346l62 383h159l-59 -383h346l-22 -141h-346l-60 -379h-162l60 379h-346z" />
<glyph unicode="," horiz-adv-x="350" d="M-106 -170q102 0 133.5 28.5t44.5 118.5l2 23h-99l39 246h211l-47 -291q-20 -127 -76.5 -176t-191.5 -53z" />
<glyph unicode="-" horiz-adv-x="835" d="M94 592l25 151h645l-25 -151h-645z" />
<glyph unicode="." horiz-adv-x="350" d="M-25 0l39 246h211l-39 -246h-211z" />
<glyph unicode="/" horiz-adv-x="866" d="M-96 -473l887 2142h176l-887 -2142h-176z" />
<glyph unicode="0" horiz-adv-x="1486" d="M125 647q0 426 207 695.5t532 269.5q260 0 410.5 -178.5t150.5 -485.5q0 -432 -202 -703.5t-521 -271.5q-272 0 -424.5 178.5t-152.5 495.5zM322 655q0 -252 99 -382t292 -130q229 0 371.5 225.5t142.5 585.5q0 242 -94.5 365t-280.5 123q-238 0 -384 -218t-146 -569z " />
<glyph unicode="1" horiz-adv-x="792" d="M127 1233l23 145h212q104 0 145.5 28t61.5 124l11 55h155l-252 -1585h-192l194 1233h-358z" />
<glyph unicode="2" horiz-adv-x="1349" d="M51 0l25 156l569 395q270 190 373.5 320t103.5 286q0 135 -82 210t-229 75q-174 0 -276.5 -121t-126.5 -354l-183 41q39 291 197 446.5t409 155.5q221 0 354.5 -118t133.5 -316q0 -184 -123 -345t-420 -366l-434 -301h864l-26 -164h-1129z" />
<glyph unicode="3" horiz-adv-x="1310" d="M68 489l186 41q12 -197 114.5 -294t295.5 -97q178 0 279 88t101 240q0 150 -93 216.5t-304 66.5h-166l25 155h182q197 0 297 72t100 213q0 121 -76.5 189.5t-211.5 68.5q-158 0 -253 -87t-122 -255l-172 47q43 213 192.5 335t368.5 122q209 0 338 -106.5t129 -280.5 q0 -145 -92 -251t-258 -143v-4q147 -39 225 -132t78 -234q0 -219 -154.5 -352.5t-408.5 -133.5q-272 0 -424 130t-176 386z" />
<glyph unicode="4" horiz-adv-x="1343" d="M33 373l28 178l916 1034h203l-166 -1048h278l-26 -164h-279l-59 -373h-189l60 373h-766zM240 537h587l138 829z" />
<glyph unicode="5" horiz-adv-x="1349" d="M66 455l188 51q23 -176 125 -269.5t276 -93.5q188 0 299 114t111 308q0 170 -87 261.5t-249 91.5q-119 0 -223.5 -50.5t-153.5 -130.5l-172 21l262 827h871l-29 -166h-715l-166 -528h7q78 76 181 117t218 41q207 0 329 -130.5t122 -349.5q0 -264 -167 -429t-436 -165 q-250 0 -401.5 123t-189.5 357z" />
<glyph unicode="6" horiz-adv-x="1392" d="M123 672q0 416 215 678t561 262q176 0 313.5 -77t221.5 -220l-174 -105q-57 113 -152.5 172.5t-218.5 59.5q-250 0 -405.5 -197.5t-166.5 -527.5h5q68 152 201.5 235.5t312.5 83.5q213 0 342 -130t129 -349q0 -254 -166 -419t-430 -165q-285 0 -436.5 180.5t-151.5 518.5 zM336 502q0 -160 103.5 -260.5t267.5 -100.5q184 0 292.5 114t108.5 300q0 162 -91 251t-251 89q-190 0 -310 -111.5t-120 -281.5z" />
<glyph unicode="7" horiz-adv-x="1179" d="M195 1415l26 170h1090l-21 -135q-299 -195 -471.5 -527.5t-240.5 -844.5l-11 -78h-198l10 78q63 459 243.5 791.5t479.5 545.5h-907z" />
<glyph unicode="8" horiz-adv-x="1398" d="M68 397q0 168 114.5 290t313.5 163v4q-102 49 -159.5 132t-57.5 190q0 188 153.5 309t392.5 121q219 0 355.5 -108.5t136.5 -285.5q0 -135 -85 -235t-239 -143v-7q139 -47 214 -142t75 -224q0 -215 -172 -351.5t-453 -136.5q-274 0 -431.5 114t-157.5 310zM264 432 q0 -145 104.5 -221t303.5 -76q193 0 308.5 95.5t115.5 248.5q0 139 -104.5 217t-295.5 78q-207 0 -319.5 -90t-112.5 -252zM459 1151q0 -119 86 -189.5t233 -70.5q160 0 255 79t95 216q0 117 -86 188.5t-225 71.5q-160 0 -259 -81t-99 -214z" />
<glyph unicode="9" horiz-adv-x="1390" d="M33 274l176 105q59 -117 164.5 -177.5t249.5 -60.5q223 0 357 190.5t136 514.5h-4q-68 -135 -188.5 -211t-274.5 -76q-227 0 -360 130t-133 353q0 248 162.5 409t414.5 161q276 0 426 -192.5t150 -547.5q0 -410 -188.5 -654.5t-510.5 -244.5q-199 0 -347 78t-230 223z M352 1053q0 -168 91.5 -259.5t261.5 -91.5q172 0 278.5 103.5t106.5 273.5q0 164 -96.5 265.5t-252.5 101.5q-176 0 -282.5 -107.5t-106.5 -285.5z" />
<glyph unicode=":" horiz-adv-x="350" d="M-25 0l39 246h211l-39 -246h-211zM0 0zM104 829l39 246h211l-39 -246h-211z" />
<glyph unicode=";" horiz-adv-x="350" d="M-106 -170q102 0 133.5 28.5t44.5 118.5l2 23h-99l39 246h211l-47 -291q-20 -127 -76.5 -176t-191.5 -53zM0 0zM104 829l39 246h211l-39 -246h-211z" />
<glyph unicode="&#x3c;" horiz-adv-x="1206" d="M156 678l16 94l958 475l-26 -176l-733 -354l618 -361l-24 -155z" />
<glyph unicode="=" horiz-adv-x="1206" d="M156 457l22 143h854l-22 -143h-854zM215 836l23 143h854l-23 -143h-854z" />
<glyph unicode="&#x3e;" horiz-adv-x="1206" d="M119 201l28 176l734 354l-621 361l25 155l809 -477l-15 -94z" />
<glyph unicode="?" horiz-adv-x="1081" d="M86 1102q49 250 198.5 379t389.5 129q221 0 354 -110.5t133 -291.5q0 -135 -66.5 -234.5t-224.5 -193.5q-160 -96 -211 -161.5t-69 -172.5l-12 -59h-172l14 78q20 125 90 220t211 181q135 84 188.5 158t53.5 178q0 117 -80.5 180.5t-225.5 63.5q-164 0 -259 -93 t-128 -286zM328 0l39 246h211l-39 -246h-211z" />
<glyph unicode="@" horiz-adv-x="1878" d="M39 389q0 219 70.5 407.5t203.5 329.5q137 143 323.5 219t401.5 76q354 0 570.5 -205.5t216.5 -539.5q0 -274 -118 -439t-316 -165q-123 0 -189.5 52t-68.5 146h-3q-59 -109 -147 -165t-203 -56q-131 0 -209.5 70.5t-78.5 189.5q0 74 29.5 134.5t86.5 99.5q43 31 94.5 48 t118.5 25l207 27q96 12 140 47t44 103q0 63 -48 98t-132 35q-106 0 -171.5 -51.5t-96.5 -159.5l-170 33q51 160 165.5 242.5t280.5 82.5q184 0 275.5 -99.5t64.5 -264.5l-57 -371q-12 -82 9 -116t91 -34q117 0 192 135.5t75 346.5q0 295 -177.5 464t-488.5 169 q-367 0 -605.5 -252t-238.5 -639q0 -317 183.5 -487.5t525.5 -170.5q129 0 243.5 22.5t223.5 67.5v-127q-96 -41 -221 -63.5t-258 -22.5q-391 0 -614.5 203t-223.5 555zM680 334q0 -74 45 -113t129 -39q123 0 209 92.5t113 249.5l10 64q-20 -14 -54 -25.5t-96 -21.5 l-155 -23q-102 -14 -151.5 -59t-49.5 -125z" />
<glyph unicode="A" horiz-adv-x="1476" d="M-43 0l809 1585h229l336 -1585h-201l-81 428h-674l-211 -428h-207zM451 586h567l-160 829z" />
<glyph unicode="B" horiz-adv-x="1456" d="M80 0l252 1585h588q244 0 368.5 -94t124.5 -277q0 -154 -93 -257t-271 -144v-2q150 -31 227.5 -119t77.5 -221q0 -227 -171.5 -349t-488.5 -122h-614zM301 164h385q244 0 358.5 80t114.5 250q0 125 -85 184t-261 59h-422zM416 889h422q186 0 283.5 74t97.5 215 q0 125 -77 184t-239 59h-403z" />
<glyph unicode="C" horiz-adv-x="1574" d="M113 678q0 403 236.5 668.5t596.5 265.5q262 0 417 -145.5t191 -428.5l-192 -39q-29 231 -131.5 334t-304.5 103q-272 0 -442.5 -208t-170.5 -542q0 -260 125 -398t357 -138q197 0 323.5 101t200.5 314l182 -53q-90 -266 -272.5 -402.5t-450.5 -136.5q-309 0 -487 187.5 t-178 517.5z" />
<glyph unicode="D" horiz-adv-x="1613" d="M80 0l252 1585h407q389 0 605.5 -185.5t216.5 -520.5q0 -414 -257 -646.5t-714 -232.5h-510zM301 166h289q369 0 569.5 184t200.5 520q0 274 -161 411.5t-484 137.5h-215z" />
<glyph unicode="E" horiz-adv-x="1339" d="M82 0l250 1585h1032l-27 -164h-837l-82 -522h784l-24 -158h-785l-92 -577h879l-27 -164h-1071z" />
<glyph unicode="F" horiz-adv-x="1269" d="M82 0l252 1585h1005l-24 -164h-813l-90 -567h741l-25 -162h-743l-109 -692h-194z" />
<glyph unicode="G" horiz-adv-x="1630" d="M113 657q0 422 235.5 688.5t603.5 266.5q266 0 432 -144.5t205 -406.5l-190 -43q-29 209 -141.5 313.5t-313.5 104.5q-283 0 -458 -211t-175 -547q0 -256 130 -397.5t366 -141.5q213 0 360.5 124t175.5 327l5 31h-500l24 155h672l-123 -776h-149l35 293h-7 q-94 -156 -238 -238t-321 -82q-291 0 -459.5 185.5t-168.5 498.5z" />
<glyph unicode="H" horiz-adv-x="1615" d="M80 0l252 1585h194l-106 -670h878l107 670h192l-249 -1585h-195l119 748h-879l-119 -748h-194z" />
<glyph unicode="I" horiz-adv-x="555" d="M86 0l252 1585h192l-249 -1585h-195z" />
<glyph unicode="J" horiz-adv-x="1150" d="M55 379q0 55 11.5 136t27.5 140l185 35q-18 -86 -28.5 -161.5t-10.5 -133.5q0 -125 61 -186.5t186 -61.5q129 0 196 80t97 271l174 1087h195l-176 -1106q-25 -141 -64 -236.5t-98 -154.5q-57 -57 -139 -86t-189 -29q-209 0 -318.5 103.5t-109.5 302.5z" />
<glyph unicode="K" horiz-adv-x="1427" d="M80 0l252 1585h192l-141 -897l870 897h224l-578 -600l412 -985h-203l-354 870l-408 -413l-72 -457h-194z" />
<glyph unicode="L" horiz-adv-x="1286" d="M80 0l252 1585h194l-227 -1421h866l-26 -164h-1059z" />
<glyph unicode="M" horiz-adv-x="1880" d="M80 0l252 1585h270l281 -1370l700 1370h279l-252 -1585h-185l215 1356l-688 -1356h-207l-268 1366l-217 -1366h-180z" />
<glyph unicode="N" horiz-adv-x="1568" d="M80 0l252 1585h258l573 -1309l209 1309h180l-252 -1585h-210l-609 1395l-221 -1395h-180z" />
<glyph unicode="O" d="M115 666q0 418 232.5 682t598.5 264q293 0 467 -189.5t174 -509.5q0 -422 -222.5 -681t-582.5 -259q-311 0 -489 184.5t-178 508.5zM313 676q0 -250 126 -388t356 -138q135 0 248.5 59t195.5 170q74 102 112 237.5t38 288.5q0 254 -119 392.5t-338 138.5 q-143 0 -265 -61.5t-208 -178.5q-72 -100 -109 -233.5t-37 -286.5z" />
<glyph unicode="P" horiz-adv-x="1357" d="M80 0l252 1585h528q248 0 384 -108.5t136 -307.5q0 -246 -158.5 -380t-453.5 -134h-389l-105 -655h-194zM403 813h363q207 0 311.5 87t104.5 261q0 133 -85 197.5t-257 64.5h-340z" />
<glyph unicode="Q" d="M115 666q0 418 232.5 682t598.5 264q293 0 467 -189.5t174 -509.5q0 -307 -124 -532t-345 -328q25 -82 66 -116.5t112 -34.5q66 0 108 35.5t64 111.5l131 -45q-33 -127 -113.5 -192.5t-201.5 -65.5q-127 0 -208 59.5t-124 186.5q-41 -10 -85 -14.5t-89 -4.5 q-311 0 -487 183.5t-176 509.5zM313 676q0 -164 48.5 -279.5t144.5 -185.5l4 4q-16 25 -24.5 54.5t-8.5 60.5q0 121 76 192.5t201 71.5q137 0 213.5 -86t113.5 -281q145 88 226.5 267.5t81.5 410.5q0 254 -119 392.5t-338 138.5q-143 0 -265 -61.5t-208 -178.5 q-72 -100 -109 -233.5t-37 -286.5zM580 305q0 -78 54 -116.5t163 -38.5q31 0 60.5 3t55.5 9q-20 158 -62 219t-122 61q-70 0 -109.5 -38.5t-39.5 -98.5z" />
<glyph unicode="R" horiz-adv-x="1425" d="M80 0l252 1585h596q246 0 376 -103.5t130 -297.5q0 -186 -129 -306t-357 -151v-4q129 -27 178.5 -98.5t61.5 -239.5q12 -170 23.5 -256t27.5 -119l-2 -10h-211q-10 49 -16 121t-11 213q-4 133 -15 186t-40 80t-77 37t-144 10h-346l-103 -647h-194zM401 799h330 q254 0 379 87t125 265q0 139 -81 206.5t-247 67.5h-407z" />
<glyph unicode="S" horiz-adv-x="1327" d="M16 457l191 53q27 -180 147.5 -275.5t319.5 -95.5q180 0 280.5 79t100.5 218q0 94 -62.5 147.5t-281.5 121.5q-213 66 -298 104.5t-130 87.5q-43 45 -65.5 107.5t-22.5 140.5q0 211 152.5 339t397.5 128q240 0 389.5 -116t196.5 -335l-188 -47q-31 170 -130.5 252 t-273.5 82q-160 0 -256 -75t-96 -202q0 -98 60.5 -153t254.5 -115q236 -72 320 -108.5t129 -81.5q47 -45 71.5 -108.5t24.5 -145.5q0 -223 -154.5 -353.5t-420.5 -130.5q-276 0 -443.5 123t-212.5 359z" />
<glyph unicode="T" horiz-adv-x="1363" d="M170 1421l27 164h1286l-27 -164h-545l-227 -1421h-192l225 1421h-547z" />
<glyph unicode="U" horiz-adv-x="1583" d="M170 676l145 909h193l-146 -911q-14 -87 -13 -159q1 -155 63 -239q92 -124 338 -124q217 0 332.5 115.5t156.5 375.5l150 942h192l-151 -952q-57 -346 -221.5 -503t-469.5 -157q-338 1 -481 177q-103 127 -103 345q0 84 15 181z" />
<glyph unicode="V" horiz-adv-x="1480" d="M201 1585h190l295 -1370l707 1370h202l-833 -1585h-209z" />
<glyph unicode="W" horiz-adv-x="2123" d="M211 1585h192l138 -1345l573 1345h207l158 -1358l551 1358h198l-667 -1585h-218l-157 1352l-576 -1352h-217z" />
<glyph unicode="X" horiz-adv-x="1374" d="M-61 0l665 827l-381 758h201l324 -653l516 653h209l-625 -788l399 -797h-203l-337 688l-549 -688h-219z" />
<glyph unicode="Y" horiz-adv-x="1302" d="M174 1585h195l329 -760l543 760h205l-674 -930l-102 -655h-195l105 657z" />
<glyph unicode="Z" horiz-adv-x="1355" d="M-14 0l26 172l1176 1249h-936l27 164h1155l-27 -170l-1167 -1251h993l-27 -164h-1220z" />
<glyph unicode="[" horiz-adv-x="851" d="M45 -473l340 2142h623l-25 -151h-434l-293 -1840h442l-24 -151h-629z" />
<glyph unicode="\" horiz-adv-x="866" d="M240 1669h176l209 -2142h-176z" />
<glyph unicode="]" horiz-adv-x="851" d="M-158 -473l25 151h434l293 1840h-442l24 151h629l-340 -2142h-623z" />
<glyph unicode="^" horiz-adv-x="749" d="M135 1032l330 553h139l152 -553h-152l-92 383l-213 -383h-164z" />
<glyph unicode="_" horiz-adv-x="1093" d="M-37 -279l21 132h895l-21 -132h-895z" />
<glyph unicode="`" horiz-adv-x="1024" d="M520 1663h185l83 -371h-139z" />
<glyph unicode="a" horiz-adv-x="1249" d="M45 289q0 100 41 175t123 122q45 27 106.5 43t165.5 28l203 23q121 14 169 52t48 122q0 88 -60.5 134t-174.5 46q-129 0 -208 -65.5t-114 -200.5l-176 37q55 186 185 284.5t321 98.5q216 0 322 -118q80 -90 81 -231q0 -44 -8 -94l-74 -456q-5 -34 -6 -60q1 -41 15 -62 q22 -34 92 -34q18 0 31.5 1t33.5 5l-22 -137q-20 -8 -53 -13t-62 -5q-126 0 -182 64q-42 48 -42 125q0 26 5 56h-4q-68 -125 -174.5 -190.5t-243.5 -65.5q-154 0 -246 86t-92 230zM240 307q0 -88 59 -139t164 -51q150 0 256 114.5t139 313.5l12 71q-25 -18 -62.5 -29.5 t-96.5 -19.5l-213 -26q-133 -16 -195.5 -73t-62.5 -161z" />
<glyph unicode="b" horiz-adv-x="1316" d="M68 0l264 1669h188l-119 -747h7q74 131 177 198.5t232 67.5q190 0 308 -146.5t118 -384.5q0 -305 -150.5 -494.5t-387.5 -189.5q-156 0 -259.5 85t-140.5 243h-6l-49 -301h-182zM340 487q0 -164 89 -258t243 -94q170 0 273.5 142.5t103.5 373.5q0 180 -81 278.5 t-227 98.5q-180 0 -290.5 -153.5t-110.5 -387.5z" />
<glyph unicode="c" horiz-adv-x="1216" d="M70 518q0 287 169 478.5t431 191.5q203 0 333 -115t166 -321l-188 -41q-23 154 -103.5 234.5t-211.5 80.5q-182 0 -292 -139t-110 -371q0 -176 90 -278.5t248 -102.5q129 0 215 69.5t137 213.5l176 -53q-68 -193 -205 -292.5t-333 -99.5q-242 0 -382 148.5t-140 396.5z " />
<glyph unicode="d" horiz-adv-x="1316" d="M72 502q0 301 158.5 493.5t402.5 192.5q150 0 245 -83t132 -243h6l125 807h186l-264 -1669h-182l39 238h-7q-70 -131 -170 -197t-229 -66q-201 0 -321.5 143.5t-120.5 383.5zM266 516q0 -178 85 -279.5t233 -101.5q178 0 284.5 151.5t106.5 389.5q0 166 -83 259t-230 93 q-174 0 -285 -143.5t-111 -368.5z" />
<glyph unicode="e" horiz-adv-x="1204" d="M72 514q0 297 164.5 485.5t435.5 188.5q141 0 244.5 -57.5t158.5 -167.5q43 -85 57 -189q8 -57 8 -120q0 -52 -5 -109h-873v-25q0 -182 83 -282q89 -108 259 -107q127 0 213 60.5t146 191.5l155 -57q-72 -176 -203.5 -264.5t-324.5 -88.5q-238 0 -378 147.5t-140 393.5z M276 676h678v23q0 49 -7 93q-9 54 -32 101q-29 66 -95 102.5t-154 36.5q-154 0 -254.5 -92t-135.5 -264z" />
<glyph unicode="f" horiz-adv-x="763" d="M88 1016l23 147h235l19 117q35 213 126 309.5t259 96.5q53 0 106 -10.5t86 -28.5l-57 -142q-23 10 -61 17.5t-72 7.5q-90 0 -134.5 -57.5t-70.5 -208.5l-17 -101h312l-25 -147h-305l-162 -1016h-186l160 1016h-236z" />
<glyph unicode="g" horiz-adv-x="1216" d="M-82 -150q0 92 69.5 150.5t209.5 83.5v6q-66 20 -100 62.5t-34 101.5q0 76 55.5 130t168.5 91v6q-63 49 -96 118t-33 157q0 193 133 312.5t346 119.5q90 0 169 -23.5t140 -68.5l158 225l123 -109l-226 -168q43 -49 64.5 -109.5t21.5 -129.5q0 -188 -130 -303t-341 -115 q-78 0 -144 13.5t-120 39.5q-59 -16 -92 -47t-33 -69q0 -51 41 -74t129 -23h420q158 0 238 -60.5t80 -180.5q0 -188 -171.5 -288.5t-488.5 -100.5q-274 0 -415.5 64.5t-141.5 188.5zM104 -98q0 -86 92.5 -126t288.5 -40q233 0 352 53.5t119 157.5q0 61 -44 86.5t-146 25.5 h-352q-152 0 -231 -39.5t-79 -117.5zM348 770q0 -113 70.5 -175.5t195.5 -62.5q131 0 209 72t78 197q0 113 -70.5 177t-193.5 64q-131 0 -210 -74.5t-79 -197.5z" />
<glyph unicode="h" horiz-adv-x="1314" d="M68 0l262 1669h188l-117 -745h7q72 129 180 196.5t243 67.5q203 0 295 -132q65 -94 65 -243q0 -60 -11 -129l-109 -684h-186l104 657q11 66 11 120q0 101 -38 161q-58 92 -208 92q-162 0 -266.5 -117.5t-141.5 -343.5l-90 -569h-188z" />
<glyph unicode="i" horiz-adv-x="518" d="M72 0l184 1163h186l-184 -1163h-186zM293 1452l33 217h209l-35 -217h-207z" />
<glyph unicode="j" horiz-adv-x="518" d="M-227 -211q23 -8 51.5 -13t58.5 -5q84 0 125 45t60 155l188 1192h186l-192 -1218q-29 -184 -105.5 -262t-228.5 -78q-35 0 -74.5 5t-68.5 15v164zM293 1452l33 217h209l-35 -217h-207z" />
<glyph unicode="k" horiz-adv-x="1175" d="M68 0l264 1669h188l-170 -1067l615 561h225l-445 -422l338 -741h-200l-285 649l-281 -256l-61 -393h-188z" />
<glyph unicode="l" horiz-adv-x="512" d="M68 0l264 1669h188l-264 -1669h-188z" />
<glyph unicode="m" horiz-adv-x="2004" d="M68 0l184 1163h182l-37 -237h4q68 131 165.5 196.5t221.5 65.5q137 0 223.5 -84t102.5 -236h6q70 154 179.5 237t244.5 83q188 0 274 -131q60 -91 60 -238q0 -63 -12 -137l-103 -682h-188l102 653q12 71 12 128q0 95 -33 155q-52 94 -190 94q-143 0 -237 -118.5 t-129 -342.5l-90 -569h-189l103 651q10 62 10 114q0 103 -38 167q-56 98 -187 98q-145 0 -235.5 -113.5t-127.5 -347.5l-90 -569h-188z" />
<glyph unicode="n" horiz-adv-x="1314" d="M68 0l184 1163h182l-39 -248h6q72 133 182.5 203t247.5 70q203 0 295 -132q65 -94 65 -243q0 -60 -11 -129l-109 -684h-186l104 657q11 66 11 120q0 101 -38 161q-58 92 -208 92q-162 0 -266.5 -117.5t-141.5 -343.5l-90 -569h-188z" />
<glyph unicode="o" horiz-adv-x="1253" d="M72 518q0 299 167 484.5t433 185.5q231 0 370.5 -150.5t139.5 -402.5q0 -295 -161 -478.5t-419 -183.5q-246 0 -388 146.5t-142 398.5zM266 522q0 -186 88 -286.5t250 -100.5q172 0 278.5 137.5t106.5 360.5q0 186 -87 290.5t-243 104.5q-178 0 -285.5 -138t-107.5 -368z " />
<glyph unicode="p" horiz-adv-x="1316" d="M8 -379l244 1542h182l-39 -254h6q74 137 179.5 208t236.5 71q190 0 308 -147.5t118 -385.5q0 -303 -150.5 -492.5t-387.5 -189.5q-154 0 -255.5 81t-142.5 235h-6l-106 -668h-187zM340 487q0 -164 89 -258t243 -94q170 0 273.5 141.5t103.5 370.5q0 180 -80 280.5 t-226 100.5q-180 0 -291.5 -153.5t-111.5 -387.5z" />
<glyph unicode="q" horiz-adv-x="1316" d="M72 502q0 301 158.5 493.5t402.5 192.5q152 0 247 -84t130 -246h8l47 305h182l-241 -1542h-189l98 610h-6q-68 -127 -168 -191.5t-227 -64.5q-201 0 -321.5 143.5t-120.5 383.5zM266 516q0 -178 85 -279.5t233 -101.5q178 0 284.5 151.5t106.5 389.5q0 166 -83 259 t-230 93q-174 0 -285 -143.5t-111 -368.5z" />
<glyph unicode="r" horiz-adv-x="1003" d="M68 0l184 1163h182l-37 -233h6q59 129 142 190.5t194 61.5q121 0 194 -78t73 -209q0 -51 -8.5 -97t-28.5 -116l-178 -23q20 74 27 118t7 89q0 92 -41 138.5t-120 46.5q-121 0 -200 -119t-116 -352l-92 -580h-188z" />
<glyph unicode="s" horiz-adv-x="1099" d="M23 352l174 37q23 -135 106.5 -198.5t239.5 -63.5q127 0 199.5 53t72.5 148q0 63 -46 98t-167 59q-164 33 -248 63t-125 68q-41 43 -60 94.5t-19 114.5q0 164 120.5 263.5t317.5 99.5q195 0 312.5 -94.5t141.5 -268.5l-168 -30q-18 125 -87.5 185t-198.5 60 q-117 0 -186.5 -54t-69.5 -146q0 -70 43 -107t178 -67q203 -47 269.5 -73t105.5 -65q35 -35 51 -81t16 -105q0 -166 -127 -267.5t-336 -101.5q-217 0 -350 98.5t-159 280.5z" />
<glyph unicode="t" horiz-adv-x="843" d="M72 1016l22 147h244l37 246l200 92l-53 -338h357l-23 -147h-358l-97 -621q-10 -59 -10 -103q-1 -68 23 -102q38 -55 166 -55q33 0 65.5 4t69.5 15l-21 -152q-45 -14 -88 -20.5t-98 -6.5q-180 -1 -255 95q-53 68 -53 182q0 47 9 102l102 662h-239z" />
<glyph unicode="u" horiz-adv-x="1306" d="M125 451l113 712h186l-107 -684q-8 -53 -9 -99q0 -104 44 -163q62 -86 213 -86q156 0 256.5 118t134.5 345l91 569h186l-182 -1163h-183l39 248h-6q-76 -135 -182.5 -204t-241.5 -69q-201 0 -294 124q-68 90 -68 235q0 55 10 117z" />
<glyph unicode="v" horiz-adv-x="1140" d="M109 1163h188l213 -985l500 985h198l-614 -1163h-219z" />
<glyph unicode="w" horiz-adv-x="1644" d="M111 1163h190l90 -962l440 962h156l150 -966l385 966h188l-496 -1163h-202l-138 920l-421 -920h-205z" />
<glyph unicode="x" horiz-adv-x="1112" d="M-70 0l508 600l-307 563h197l239 -450l363 450h203l-474 -579l330 -584h-201l-260 469l-383 -469h-215z" />
<glyph unicode="y" horiz-adv-x="1140" d="M-205 -340l64 154q57 -27 113.5 -39.5t115.5 -12.5q72 0 122 27t97 88q23 31 43.5 61.5t36.5 61.5l-281 1163h191l217 -966l498 966h196l-616 -1153q-129 -242 -236.5 -327.5t-269.5 -85.5q-76 0 -158 17t-133 46z" />
<glyph unicode="z" horiz-adv-x="1101" d="M-27 0l25 158l885 854h-699l25 151h909l-26 -159l-873 -852h752l-25 -152h-973z" />
<glyph unicode="{" horiz-adv-x="802" d="M-6 516l26 160h117q117 0 163 37t58 145l72 553q18 145 87 201.5t222 56.5h219l-24 -160h-182q-76 0 -105 -25.5t-39 -105.5l-84 -528q-20 -127 -75.5 -182.5t-178.5 -69.5v-4q113 -14 152 -73.5t18 -190.5l-80 -510q-10 -80 15.5 -106.5t109.5 -26.5h160l-27 -160h-184 q-164 0 -223 70.5t-31 226.5l96 506q20 111 -8 148.5t-131 37.5h-143z" />
<glyph unicode="|" horiz-adv-x="468" d="M180 -473v2142h164v-2142h-164z" />
<glyph unicode="}" horiz-adv-x="802" d="M-158 -471l25 160h182q76 0 104.5 25.5t39.5 105.5l83 528q20 127 76 182.5t178 69.5v4q-113 14 -151.5 73.5t-18.5 190.5l80 510q10 80 -15.5 106.5t-109.5 26.5h-159l26 160h185q164 0 223 -70.5t31 -226.5l-97 -506q-20 -111 8.5 -148.5t131.5 -37.5h143l-27 -160 h-116q-117 0 -163 -36.5t-59 -145.5l-71 -553q-18 -145 -87 -201.5t-223 -56.5h-219z" />
<glyph unicode="~" horiz-adv-x="1038" d="M98 582l15 73q31 154 95 231t165 77q57 0 99 -19.5t87 -69.5l70 -75q43 -47 67.5 -62.5t57.5 -15.5q43 0 65.5 38t34.5 130l10 76l133 -19l-8 -74q-20 -158 -77.5 -232.5t-157.5 -74.5q-61 0 -107.5 22.5t-91.5 74.5l-78 86q-31 33 -53.5 46t-50.5 13q-47 0 -76 -38 t-49 -132l-15 -76z" />
<glyph unicode="&#xa1;" horiz-adv-x="561" d="M29 -422l77 483l162 707h97l-62 -707l-78 -483h-196zM236 918l38 245h211l-41 -245h-208z" />
<glyph unicode="&#xa2;" horiz-adv-x="1216" d="M70 518q0 281 161.5 471.5t415.5 198.5l41 258h162l-43 -275q145 -33 238.5 -141t123.5 -278l-188 -41q-18 119 -70.5 194.5t-134.5 102.5l-135 -871q113 10 189.5 79t123.5 202l176 -53q-66 -186 -197 -286t-317 -106l-47 -309h-163l51 324q-182 39 -284.5 180 t-102.5 350zM264 516q0 -141 58.5 -236.5t166.5 -127.5l136 872q-166 -16 -263.5 -153.5t-97.5 -354.5z" />
<glyph unicode="&#xa3;" horiz-adv-x="1495" d="M31 199q0 104 81 172.5t203 68.5q39 0 78 -8t80 -26q-2 43 -15.5 93t-66.5 183h-287l21 131h219q-20 61 -29.5 117.5t-9.5 111.5q0 248 167 409t425 161q246 0 380 -139.5t128 -389.5l-199 -39q4 188 -77.5 290t-239.5 102q-188 0 -288.5 -108.5t-100.5 -309.5 q0 -47 8 -96.5t27 -108.5h649l-19 -131h-587q27 -86 37 -143.5t10 -110.5q0 -27 -2 -52.5t-9 -56.5q72 -51 117 -82.5t64 -41.5q55 -31 107 -45.5t106 -14.5q106 0 158.5 67.5t52.5 207.5v26h157q2 -20 3 -35.5t1 -44.5q0 -188 -93 -284.5t-275 -96.5q-109 0 -204 40 t-239 167q-47 -92 -128 -142t-181 -50q-104 0 -166.5 57t-62.5 152zM170 209q0 -47 27.5 -71.5t78.5 -24.5q63 0 111.5 43t71.5 118q-37 25 -74 37.5t-76 12.5q-63 0 -101 -31t-38 -84z" />
<glyph unicode="&#xa4;" horiz-adv-x="1331" d="M100 379l166 143q-20 43 -31.5 95.5t-11.5 111.5q0 94 30 180t87 158l-111 129l119 102l105 -124q63 43 134.5 65.5t147.5 22.5q88 0 161 -28t126 -83l170 147l84 -102l-180 -156q18 -41 28.5 -90t10.5 -106q0 -94 -26 -177t-77 -151l115 -137l-117 -100l-108 127 q-61 -45 -135 -69t-154 -24q-90 0 -162 26t-125 75l-160 -135zM387 754q0 -141 64.5 -217t187.5 -76q147 0 240.5 102.5t93.5 272.5q0 133 -64.5 205.5t-185.5 72.5q-145 0 -240.5 -101.5t-95.5 -258.5z" />
<glyph unicode="&#xa5;" horiz-adv-x="1302" d="M111 319l22 138h414l28 174h-415l22 137h348l-356 817h195l329 -760l543 760h205l-592 -817h350l-22 -137h-414l-27 -174h414l-22 -138h-414l-49 -319h-195l51 319h-415z" />
<glyph unicode="&#xa6;" horiz-adv-x="468" d="M180 -473v962h164v-962h-164zM180 743v926h164v-926h-164z" />
<glyph unicode="&#xa7;" horiz-adv-x="1245" d="M18 90l183 37q12 -121 94 -183.5t225 -62.5q139 0 215 61.5t76 174.5q0 68 -38 106.5t-136 79.5l-311 131q-139 61 -196.5 128t-57.5 169q0 104 68.5 180t203.5 123q-33 35 -50.5 86t-17.5 111q0 164 124 274.5t321 110.5q184 0 304 -97.5t151 -265.5l-170 -32 q-16 115 -93 181t-194 66q-125 0 -194.5 -64.5t-69.5 -178.5q0 -68 38.5 -114t124.5 -79l338 -133q131 -51 185.5 -115.5t54.5 -160.5q0 -106 -67.5 -189.5t-196.5 -134.5q29 -33 44 -78t15 -100q0 -176 -131 -283.5t-344 -107.5q-215 0 -345 94t-153 266zM231 762 q0 -63 35 -104.5t127 -79.5l447 -195q92 27 143 83t51 132q0 55 -36.5 92t-123.5 72l-462 190q-90 -27 -135.5 -74.5t-45.5 -115.5z" />
<glyph unicode="&#xa8;" horiz-adv-x="1024" d="M356 1372l31 197h188l-30 -197h-189zM725 1372l33 197h186l-31 -197h-188z" />
<glyph unicode="&#xa9;" horiz-adv-x="1832" d="M125 786q0 170 58.5 324t166.5 266q109 115 257.5 174.5t326.5 59.5q174 0 320.5 -60.5t254.5 -177.5q102 -113 158.5 -265.5t56.5 -320.5q0 -170 -57 -321.5t-164 -263.5q-109 -115 -256 -174.5t-323 -59.5t-322.5 59.5t-255.5 174.5q-106 113 -163.5 264t-57.5 321z M250 786q0 -311 186.5 -508.5t489.5 -197.5q307 0 490 194.5t183 511.5q0 322 -179 516.5t-486 194.5q-317 0 -500.5 -193.5t-183.5 -517.5zM516 778q0 221 120 353.5t314 132.5q158 0 262.5 -89.5t137.5 -250.5l-156 -33q-20 111 -82.5 167t-161.5 56q-125 0 -196.5 -88 t-71.5 -246q0 -147 72.5 -232t195.5 -85q100 0 160.5 51t91.5 160l152 -39q-39 -152 -143.5 -236t-260.5 -84q-203 0 -318.5 124t-115.5 339z" />
<glyph unicode="&#xaa;" horiz-adv-x="856" d="M39 530l16 123h817l-16 -123h-817zM123 991q0 109 67.5 170.5t206.5 77.5l152 21q80 10 111.5 33.5t31.5 74.5q0 55 -37 84t-108 29q-80 0 -129 -41t-74 -125l-135 28q37 125 127 192t223 67q154 0 226.5 -82t50.5 -226l-45 -293q-10 -55 4 -76.5t59 -21.5q10 0 18.5 1 t20.5 3l-16 -106q-16 -6 -39 -10.5t-43 -4.5q-86 0 -130 45.5t-34 120.5h-4q-47 -84 -117 -127t-160 -43q-102 0 -164.5 57.5t-62.5 151.5zM283 1012q0 -57 35.5 -89t103.5 -32q92 0 157.5 72.5t86.5 195.5l10 55q-14 -10 -37 -17t-66 -15l-129 -21q-86 -14 -123.5 -48.5 t-37.5 -100.5z" />
<glyph unicode="&#xab;" horiz-adv-x="864" d="M12 184zM12 600l346 418h185l-353 -424l228 -410h-182zM389 600l346 418h185l-353 -424l228 -410h-182z" />
<glyph unicode="&#xac;" horiz-adv-x="1191" d="M195 774l24 146h860l-88 -553h-155l63 407h-704z" />
<glyph unicode="&#xad;" horiz-adv-x="835" d="M94 592l25 151h645l-25 -151h-645zM94 592z" />
<glyph unicode="&#xae;" horiz-adv-x="1040" d="M184 1219q0 188 121 313t316 125t315.5 -125t120.5 -313q0 -190 -119.5 -314.5t-316.5 -124.5t-317 124t-120 315zM256 1219q0 -166 100.5 -269.5t264.5 -103.5q168 0 266 101.5t98 271.5q0 172 -97 273t-267 101t-267.5 -101t-97.5 -273zM444 981v496h215 q88 0 137.5 -35t49.5 -99q0 -53 -35 -88.5t-96 -46.5v-2q45 -10 62.5 -33.5t27.5 -66.5q12 -45 21.5 -72.5t21.5 -48.5v-4h-107q-8 14 -14 40t-16 69q-8 53 -25.5 68.5t-71.5 15.5h-73v-193h-97zM541 1239h104q51 0 78 20.5t27 61.5t-27 59.5t-86 18.5h-96v-160z" />
<glyph unicode="&#xaf;" horiz-adv-x="1024" d="M319 1364l21 127h631l-21 -127h-631z" />
<glyph unicode="&#xb0;" horiz-adv-x="995" d="M295 1286q0 135 88 225.5t227 90.5q137 0 223.5 -90.5t86.5 -225.5q0 -137 -87.5 -227t-226.5 -90t-225 88t-86 229zM416 1286q0 -88 52 -143.5t138 -55.5t138.5 55.5t52.5 143.5t-51.5 143.5t-135.5 55.5q-86 0 -140 -56.5t-54 -142.5z" />
<glyph unicode="&#xb1;" horiz-adv-x="1206" d="M82 -4l22 141h852l-22 -141h-852zM199 737l22 142h346l62 383h159l-59 -383h346l-22 -142h-346l-60 -379h-162l60 379h-346z" />
<glyph unicode="&#xb2;" horiz-adv-x="700" d="M111 958zM111 961l14 98l281 187q133 88 181 147t48 129q0 57 -33.5 87t-97.5 30q-74 0 -119 -52.5t-59 -156.5l-131 25q23 147 106.5 226t217.5 79q121 0 191.5 -59.5t70.5 -161.5q0 -92 -58.5 -169t-214.5 -182l-172 -114h387l-14 -113h-598z" />
<glyph unicode="&#xb3;" horiz-adv-x="671" d="M125 944zM125 1209l127 24q10 -88 54.5 -128t128.5 -40q76 0 117.5 36t41.5 100q0 59 -36.5 86.5t-120.5 27.5h-93l13 107h96q86 0 126 29t40 88q0 49 -32 75.5t-91 26.5q-70 0 -109.5 -35t-52.5 -106l-121 28q25 109 105 170.5t194 61.5q111 0 179.5 -53.5t68.5 -141.5 q0 -72 -43 -122t-123 -72v-4q70 -18 106 -63.5t36 -113.5q0 -109 -83 -176t-216 -67q-143 0 -222 66.5t-90 195.5z" />
<glyph unicode="&#xb4;" horiz-adv-x="1024" d="M459 1292l200 371h191l-246 -371h-145z" />
<glyph unicode="&#xb5;" horiz-adv-x="1347" d="M-6 -379l244 1542h186l-107 -684q-27 -174 34 -261t210 -87q158 0 259.5 118t135.5 345l91 569h186l-137 -870q-14 -90 7 -125t91 -35q20 0 35.5 1t30.5 5l-21 -137q-20 -8 -53 -13t-64 -5q-123 0 -178 66.5t-37 191.5l2 14h-4q-76 -141 -176 -211t-229 -70 q-90 0 -154.5 28t-101.5 81l-72 -463h-178z" />
<glyph unicode="&#xb6;" horiz-adv-x="1155" d="M172 1161q0 207 141.5 315.5t411.5 108.5h449l-295 -1851h-129l278 1745h-141l-279 -1745h-129l168 1050q-236 0 -355.5 95.5t-119.5 281.5z" />
<glyph unicode="&#xb7;" horiz-adv-x="350" d="M59 530l39 246h211l-39 -246h-211z" />
<glyph unicode="&#xb8;" horiz-adv-x="1024" d="M90 -414l72 111q37 -25 90 -39t108 -14q70 0 110 24.5t40 69.5q0 31 -19.5 47t-54.5 16q-29 0 -52.5 -12t-39.5 -37l-90 21l113 247h120l-67 -155q14 8 32.5 11t43.5 3q63 0 103 -39t40 -102q0 -98 -77 -154.5t-210 -56.5q-74 0 -145.5 16.5t-116.5 42.5z" />
<glyph unicode="&#xb9;" horiz-adv-x="428" d="M156 958zM156 1545l16 104h119q49 0 67.5 12.5t28.5 57.5l7 28h112l-125 -786h-143l94 584h-176z" />
<glyph unicode="&#xba;" horiz-adv-x="858" d="M47 530l19 123h782l-19 -123h-782zM137 1149q0 201 116 328t298 127q162 0 258 -102.5t96 -272.5q0 -201 -110.5 -324t-288.5 -123q-168 0 -268.5 98.5t-100.5 268.5zM299 1149q0 -115 54.5 -177.5t152.5 -62.5q109 0 175.5 88t66.5 234q0 115 -54.5 180.5t-148.5 65.5 q-111 0 -178.5 -89.5t-67.5 -238.5z" />
<glyph unicode="&#xbb;" horiz-adv-x="864" d="M-45 184l352 424l-229 410h182l223 -418l-346 -416h-182zM0 184zM332 184l352 424l-229 410h182l223 -418l-346 -416h-182z" />
<glyph unicode="&#xbc;" horiz-adv-x="1441" d="M-88 0l1407 1585h186l-1401 -1585h-192zM0 0zM148 799zM148 1383l16 104h119q49 0 67.5 12.5t28.5 57.5l7 28h112l-125 -786h-143l94 584h-176zM703 172l18 119l451 495h141l-80 -501h131l-16 -113h-133l-27 -172h-141l27 172h-371zM840 285h258l60 354z" />
<glyph unicode="&#xbd;" horiz-adv-x="1488" d="M-88 0l1407 1585h186l-1401 -1585h-192zM0 0zM148 799zM148 1383l16 104h119q49 0 67.5 12.5t28.5 57.5l7 28h112l-125 -786h-143l94 584h-176zM748 0l14 98l281 187q133 88 181 147t48 129q0 57 -33.5 87t-97.5 30q-74 0 -119 -52.5t-59 -156.5l-131 25 q23 147 106.5 226t217.5 79q121 0 191.5 -59.5t70.5 -161.5q0 -92 -58.5 -169t-214.5 -182l-172 -114h387l-14 -113h-598z" />
<glyph unicode="&#xbe;" horiz-adv-x="1648" d="M114 784zM114 1047l127 24q10 -88 54.5 -128t128.5 -40q76 0 117.5 36t41.5 100q0 59 -36.5 86.5t-120.5 27.5h-93l13 107h96q86 0 126 29t40 88q0 49 -32 75.5t-91 26.5q-70 0 -109.5 -35t-52.5 -106l-121 28q25 109 105 170.5t194 61.5q111 0 179.5 -53.5t68.5 -141.5 q0 -72 -43 -122t-123 -72v-4q70 -18 106 -63.5t36 -113.5q0 -109 -83 -176t-216 -67q-143 0 -222 66.5t-90 195.5zM115 0zM117 0l1407 1585h186l-1401 -1585h-192zM909 172l18 119l451 495h141l-80 -501h131l-16 -113h-133l-27 -172h-141l27 172h-371zM1046 285h258l60 354z " />
<glyph unicode="&#xbf;" horiz-adv-x="1081" d="M-86 -45q0 135 66.5 234.5t224.5 193.5q160 96 211 161.5t69 172.5l13 59h172l-15 -78q-20 -125 -89.5 -220t-211.5 -181q-135 -84 -188 -157.5t-53 -178.5q0 -117 80 -180.5t225 -63.5q164 0 259 93.5t128 285.5l184 -35q-49 -250 -198.5 -378.5t-389.5 -128.5 q-221 0 -354 110.5t-133 290.5zM498 918l39 245h211l-39 -245h-211z" />
<glyph unicode="&#xc0;" horiz-adv-x="1476" d="M-43 0l809 1585h229l336 -1585h-201l-81 428h-674l-211 -428h-207zM0 0zM451 586h567l-160 829zM727 1991h184l58 -291h-146z" />
<glyph unicode="&#xc1;" horiz-adv-x="1476" d="M-43 0l809 1585h229l336 -1585h-201l-81 428h-674l-211 -428h-207zM0 0zM451 586h567l-160 829zM822 1700l151 291h193l-189 -291h-155z" />
<glyph unicode="&#xc2;" horiz-adv-x="1476" d="M-43 0l809 1585h229l336 -1585h-201l-81 428h-674l-211 -428h-207zM0 0zM451 586h567l-160 829zM596 1692l287 293h123l204 -293h-151l-129 153l-172 -153h-162z" />
<glyph unicode="&#xc3;" horiz-adv-x="1476" d="M-43 0l809 1585h229l336 -1585h-201l-81 428h-674l-211 -428h-207zM0 0zM451 586h567l-160 829zM555 1706q20 129 78.5 196.5t148.5 67.5q45 0 87 -17.5t104 -70.5q47 -39 70.5 -50t45.5 -11q39 0 61.5 33.5t33.5 111.5l114 -16q-16 -131 -68 -195.5t-141 -64.5 q-43 0 -83.5 17t-106.5 69q-49 41 -73.5 52t-47.5 11q-43 0 -68.5 -36t-37.5 -113z" />
<glyph unicode="&#xc4;" horiz-adv-x="1476" d="M-43 0l809 1585h229l336 -1585h-201l-81 428h-674l-211 -428h-207zM0 0zM451 586h567l-160 829zM623 1708l30 197h187l-31 -197h-186zM993 1708l31 197h186l-30 -197h-187z" />
<glyph unicode="&#xc5;" horiz-adv-x="1476" d="M-43 0l809 1585h229l336 -1585h-201l-81 428h-674l-211 -428h-207zM0 0zM451 586h567l-160 829zM709 1880q0 88 58.5 147.5t144.5 59.5q88 0 145 -57.5t57 -147.5t-57 -148t-145 -58q-90 0 -146.5 57t-56.5 147zM807 1880q0 -51 30 -82.5t79 -31.5q47 0 75.5 31.5 t28.5 84.5q0 55 -29.5 87t-78.5 32q-47 0 -76 -34t-29 -87z" />
<glyph unicode="&#xc6;" horiz-adv-x="2123" d="M-78 0l1047 1585h1179l-26 -164h-910l-6 -522h781l-25 -158h-760l-8 -577h770l-27 -164h-929l6 428h-602l-275 -428h-215zM514 586h504l12 805z" />
<glyph unicode="&#xc7;" horiz-adv-x="1574" d="M113 678q0 403 236.5 668.5t596.5 265.5q262 0 417 -145.5t191 -428.5l-192 -39q-29 231 -131.5 334t-304.5 103q-272 0 -442.5 -208t-170.5 -542q0 -260 125 -398t357 -138q197 0 323.5 101t200.5 314l182 -53q-90 -266 -272 -402.5t-451 -136.5h-4l-49 -108 q14 8 32.5 11t43.5 3q63 0 103 -39t40 -102q0 -98 -76.5 -154.5t-210.5 -56.5q-74 0 -145.5 16.5t-116.5 42.5l72 111q37 -25 90 -39t109 -14q70 0 109.5 24.5t39.5 69.5q0 31 -19.5 47t-54.5 16q-29 0 -52 -12t-40 -37l-90 21l96 209q-256 37 -399 219t-143 477z" />
<glyph unicode="&#xc8;" horiz-adv-x="1339" d="M82 0l250 1585h1032l-27 -164h-837l-82 -522h784l-24 -158h-785l-92 -577h879l-27 -164h-1071zM82 0zM727 1991h184l58 -291h-146z" />
<glyph unicode="&#xc9;" horiz-adv-x="1339" d="M82 0l250 1585h1032l-27 -164h-837l-82 -522h784l-24 -158h-785l-92 -577h879l-27 -164h-1071zM82 0zM822 1700l151 291h193l-189 -291h-155z" />
<glyph unicode="&#xca;" horiz-adv-x="1339" d="M82 0l250 1585h1032l-27 -164h-837l-82 -522h784l-24 -158h-785l-92 -577h879l-27 -164h-1071zM82 0zM596 1692l287 293h123l204 -293h-151l-129 153l-172 -153h-162z" />
<glyph unicode="&#xcb;" horiz-adv-x="1339" d="M82 0l250 1585h1032l-27 -164h-837l-82 -522h784l-24 -158h-785l-92 -577h879l-27 -164h-1071zM82 0zM623 1708l30 197h187l-31 -197h-186zM993 1708l31 197h186l-30 -197h-187z" />
<glyph unicode="&#xcc;" horiz-adv-x="555" d="M86 0l252 1585h192l-249 -1585h-195zM86 0zM279 1991h184l58 -291h-146z" />
<glyph unicode="&#xcd;" horiz-adv-x="555" d="M86 0l252 1585h192l-249 -1585h-195zM86 0zM375 1700l151 291h193l-189 -291h-155z" />
<glyph unicode="&#xce;" horiz-adv-x="555" d="M86 0l252 1585h192l-249 -1585h-195zM86 0zM150 1692l287 293h123l204 -293h-151l-129 153l-172 -153h-162z" />
<glyph unicode="&#xcf;" horiz-adv-x="555" d="M86 0l252 1585h192l-249 -1585h-195zM86 0zM177 1708l30 197h187l-31 -197h-186zM547 1708l31 197h186l-30 -197h-187z" />
<glyph unicode="&#xd0;" horiz-adv-x="1634" d="M4 735l23 142h213l112 708h408q389 0 605 -185.5t216 -520.5q0 -414 -257 -646.5t-714 -232.5h-510l117 735h-213zM322 166h288q369 0 569.5 184t200.5 520q0 274 -160.5 411.5t-484.5 137.5h-215l-86 -542h387l-22 -142h-387z" />
<glyph unicode="&#xd1;" horiz-adv-x="1568" d="M80 0l252 1585h258l573 -1309l209 1309h180l-252 -1585h-210l-609 1395l-221 -1395h-180zM80 0zM633 1688q20 129 78.5 196.5t148.5 67.5q45 0 87 -17.5t104 -70.5q47 -39 70.5 -50t45.5 -11q39 0 61.5 33.5t33.5 111.5l114 -16q-16 -131 -68 -195.5t-141 -64.5 q-43 0 -83.5 17t-106.5 69q-49 41 -73.5 52t-47.5 11q-43 0 -68.5 -36t-37.5 -113z" />
<glyph unicode="&#xd2;" d="M115 0zM115 666q0 418 232.5 682t598.5 264q293 0 467 -189.5t174 -509.5q0 -422 -222.5 -681t-582.5 -259q-311 0 -489 184.5t-178 508.5zM313 676q0 -250 126 -388t356 -138q135 0 248.5 59t195.5 170q74 102 112 237.5t38 288.5q0 254 -119 392.5t-338 138.5 q-143 0 -265 -61.5t-208 -178.5q-72 -100 -109 -233.5t-37 -286.5zM834 1991h184l58 -291h-146z" />
<glyph unicode="&#xd3;" d="M115 0zM115 666q0 418 232.5 682t598.5 264q293 0 467 -189.5t174 -509.5q0 -422 -222.5 -681t-582.5 -259q-311 0 -489 184.5t-178 508.5zM313 676q0 -250 126 -388t356 -138q135 0 248.5 59t195.5 170q74 102 112 237.5t38 288.5q0 254 -119 392.5t-338 138.5 q-143 0 -265 -61.5t-208 -178.5q-72 -100 -109 -233.5t-37 -286.5zM928 1700l151 291h193l-189 -291h-155z" />
<glyph unicode="&#xd4;" d="M115 0zM115 666q0 418 232.5 682t598.5 264q293 0 467 -189.5t174 -509.5q0 -422 -222.5 -681t-582.5 -259q-311 0 -489 184.5t-178 508.5zM313 676q0 -250 126 -388t356 -138q135 0 248.5 59t195.5 170q74 102 112 237.5t38 288.5q0 254 -119 392.5t-338 138.5 q-143 0 -265 -61.5t-208 -178.5q-72 -100 -109 -233.5t-37 -286.5zM702 1692l287 293h123l204 -293h-151l-129 153l-172 -153h-162z" />
<glyph unicode="&#xd5;" d="M115 0zM115 666q0 418 232.5 682t598.5 264q293 0 467 -189.5t174 -509.5q0 -422 -222.5 -681t-582.5 -259q-311 0 -489 184.5t-178 508.5zM313 676q0 -250 126 -388t356 -138q135 0 248.5 59t195.5 170q74 102 112 237.5t38 288.5q0 254 -119 392.5t-338 138.5 q-143 0 -265 -61.5t-208 -178.5q-72 -100 -109 -233.5t-37 -286.5zM662 1706q20 129 78.5 196.5t148.5 67.5q45 0 87 -17.5t104 -70.5q47 -39 70.5 -50t45.5 -11q39 0 61.5 33.5t33.5 111.5l114 -16q-16 -131 -68 -195.5t-141 -64.5q-43 0 -83.5 17t-106.5 69 q-49 41 -73.5 52t-47.5 11q-43 0 -68.5 -36t-37.5 -113z" />
<glyph unicode="&#xd6;" d="M115 0zM115 666q0 418 232.5 682t598.5 264q293 0 467 -189.5t174 -509.5q0 -422 -222.5 -681t-582.5 -259q-311 0 -489 184.5t-178 508.5zM313 676q0 -250 126 -388t356 -138q135 0 248.5 59t195.5 170q74 102 112 237.5t38 288.5q0 254 -119 392.5t-338 138.5 q-143 0 -265 -61.5t-208 -178.5q-72 -100 -109 -233.5t-37 -286.5zM729 1708l30 197h187l-31 -197h-186zM1099 1708l31 197h186l-30 -197h-187z" />
<glyph unicode="&#xd7;" horiz-adv-x="1206" d="M184 467l348 303l-245 303l110 96l250 -307l340 301l92 -100l-344 -307l240 -295l-113 -99l-244 302l-342 -302z" />
<glyph unicode="&#xd8;" d="M23 61l194 195q-51 82 -76.5 185.5t-25.5 224.5q0 418 232.5 682t598.5 264q137 0 252 -44t201 -130l164 170l98 -95l-178 -184q51 -84 77.5 -189.5t26.5 -226.5q0 -422 -222 -681t-583 -259q-147 0 -268 44t-209 128l-182 -186zM313 676q0 -86 14.5 -158t43.5 -129 l884 924q-57 61 -139 92t-184 31q-143 0 -265 -61.5t-208 -178.5q-72 -100 -109 -233.5t-37 -286.5zM451 274q61 -61 148 -92.5t196 -31.5q135 0 248.5 59t195.5 170q74 102 112 237.5t38 288.5q0 86 -14.5 160t-41.5 133z" />
<glyph unicode="&#xd9;" horiz-adv-x="1583" d="M154 0zM170 676l145 909h193l-146 -911q-43 -274 49.5 -398t338.5 -124q217 0 332.5 115.5t156.5 375.5l150 942h192l-151 -952q-57 -346 -221.5 -503t-469.5 -157q-338 0 -481 176.5t-88 526.5zM791 1973h184l58 -291h-146z" />
<glyph unicode="&#xda;" horiz-adv-x="1583" d="M154 0zM170 676l145 909h193l-146 -911q-43 -274 49.5 -398t338.5 -124q217 0 332.5 115.5t156.5 375.5l150 942h192l-151 -952q-57 -346 -221.5 -503t-469.5 -157q-338 0 -481 176.5t-88 526.5zM885 1682l151 291h193l-189 -291h-155z" />
<glyph unicode="&#xdb;" horiz-adv-x="1583" d="M154 0zM170 676l145 909h193l-146 -911q-43 -274 49.5 -398t338.5 -124q217 0 332.5 115.5t156.5 375.5l150 942h192l-151 -952q-57 -346 -221.5 -503t-469.5 -157q-338 0 -481 176.5t-88 526.5zM659 1674l287 293h123l204 -293h-151l-129 153l-172 -153h-162z" />
<glyph unicode="&#xdc;" horiz-adv-x="1583" d="M154 0zM170 676l145 909h193l-146 -911q-43 -274 49.5 -398t338.5 -124q217 0 332.5 115.5t156.5 375.5l150 942h192l-151 -952q-57 -346 -221.5 -503t-469.5 -157q-338 0 -481 176.5t-88 526.5zM686 1690l30 197h187l-31 -197h-186zM1056 1690l31 197h186l-30 -197h-187 z" />
<glyph unicode="&#xdd;" horiz-adv-x="1302" d="M174 0zM174 1585h195l329 -760l543 760h205l-674 -930l-102 -655h-195l105 657zM764 1700l151 291h193l-189 -291h-155z" />
<glyph unicode="&#xde;" horiz-adv-x="1357" d="M80 0l252 1585h194l-53 -328h336q248 0 384 -109.5t136 -307.5q0 -246 -158.5 -379t-453.5 -133h-391l-52 -328h-194zM352 489h363q209 0 312 86.5t103 258.5q0 133 -84.5 197.5t-257.5 64.5h-339z" />
<glyph unicode="&#xdf;" horiz-adv-x="1341" d="M74 0l184 1153q39 254 186.5 392t376.5 138q197 0 316.5 -103t119.5 -273q0 -141 -97 -241.5t-265 -133.5v-6q166 -43 258 -155t92 -271q0 -240 -153.5 -381.5t-417.5 -141.5q-68 0 -130.5 6.5t-113.5 18.5l29 158q53 -10 104 -15.5t105 -5.5q190 0 293.5 99.5 t103.5 281.5q0 158 -114.5 245t-321.5 87h-37l24 149h86q174 0 270.5 74t96.5 207q0 115 -69.5 179.5t-192.5 64.5q-152 0 -242 -92.5t-119 -280.5l-184 -1153h-188z" />
<glyph unicode="&#xe0;" horiz-adv-x="1249" d="M45 0zM45 289q0 100 41 175t123 122q45 27 106.5 43t165.5 28l203 23q121 14 169 52t48 122q0 88 -60.5 134t-174.5 46q-129 0 -208 -65.5t-114 -200.5l-176 37q55 186 185 284.5t321 98.5q217 0 322.5 -118t72.5 -325l-74 -456q-14 -88 8.5 -122t92.5 -34q18 0 31.5 1 t33.5 5l-22 -137q-20 -8 -53 -13t-62 -5q-125 0 -181.5 63.5t-37.5 181.5h-4q-68 -125 -174.5 -190.5t-243.5 -65.5q-154 0 -246 86t-92 230zM240 307q0 -88 59 -139t164 -51q150 0 256 114.5t139 313.5l12 71q-25 -18 -62.5 -29.5t-96.5 -19.5l-213 -26 q-133 -16 -195.5 -73t-62.5 -161zM506 1663h185l83 -371h-139z" />
<glyph unicode="&#xe1;" horiz-adv-x="1249" d="M45 0zM45 289q0 100 41 175t123 122q45 27 106.5 43t165.5 28l203 23q121 14 169 52t48 122q0 88 -60.5 134t-174.5 46q-129 0 -208 -65.5t-114 -200.5l-176 37q55 186 185 284.5t321 98.5q217 0 322.5 -118t72.5 -325l-74 -456q-14 -88 8.5 -122t92.5 -34q18 0 31.5 1 t33.5 5l-22 -137q-20 -8 -53 -13t-62 -5q-125 0 -181.5 63.5t-37.5 181.5h-4q-68 -125 -174.5 -190.5t-243.5 -65.5q-154 0 -246 86t-92 230zM240 307q0 -88 59 -139t164 -51q150 0 256 114.5t139 313.5l12 71q-25 -18 -62.5 -29.5t-96.5 -19.5l-213 -26 q-133 -16 -195.5 -73t-62.5 -161zM631 1292l200 371h191l-246 -371h-145z" />
<glyph unicode="&#xe2;" horiz-adv-x="1249" d="M45 0zM45 289q0 100 41 175t123 122q45 27 106.5 43t165.5 28l203 23q121 14 169 52t48 122q0 88 -60.5 134t-174.5 46q-129 0 -208 -65.5t-114 -200.5l-176 37q55 186 185 284.5t321 98.5q217 0 322.5 -118t72.5 -325l-74 -456q-14 -88 8.5 -122t92.5 -34q18 0 31.5 1 t33.5 5l-22 -137q-20 -8 -53 -13t-62 -5q-125 0 -181.5 63.5t-37.5 181.5h-4q-68 -125 -174.5 -190.5t-243.5 -65.5q-154 0 -246 86t-92 230zM240 307q0 -88 59 -139t164 -51q150 0 256 114.5t139 313.5l12 71q-25 -18 -62.5 -29.5t-96.5 -19.5l-213 -26 q-133 -16 -195.5 -73t-62.5 -161zM391 1292l305 371h121l197 -371h-148l-127 217l-188 -217h-160z" />
<glyph unicode="&#xe3;" horiz-adv-x="1249" d="M45 0zM45 289q0 100 41 175t123 122q45 27 106.5 43t165.5 28l203 23q121 14 169 52t48 122q0 88 -60.5 134t-174.5 46q-129 0 -208 -65.5t-114 -200.5l-176 37q55 186 185 284.5t321 98.5q217 0 322.5 -118t72.5 -325l-74 -456q-14 -88 8.5 -122t92.5 -34q18 0 31.5 1 t33.5 5l-22 -137q-20 -8 -53 -13t-62 -5q-125 0 -181.5 63.5t-37.5 181.5h-4q-68 -125 -174.5 -190.5t-243.5 -65.5q-154 0 -246 86t-92 230zM240 307q0 -88 59 -139t164 -51q150 0 256 114.5t139 313.5l12 71q-25 -18 -62.5 -29.5t-96.5 -19.5l-213 -26 q-133 -16 -195.5 -73t-62.5 -161zM349 1333q16 143 74.5 217t156.5 74q45 0 86 -20.5t104 -81.5q45 -47 70 -60.5t49 -13.5q45 0 65.5 41t26.5 131l115 -16q-14 -145 -65.5 -216t-143.5 -71q-45 0 -87 20.5t-105 81.5q-47 47 -71 60.5t-48 13.5q-49 0 -77 -43t-34 -133z" />
<glyph unicode="&#xe4;" horiz-adv-x="1249" d="M45 0zM45 289q0 100 41 175t123 122q45 27 106.5 43t165.5 28l203 23q121 14 169 52t48 122q0 88 -60.5 134t-174.5 46q-129 0 -208 -65.5t-114 -200.5l-176 37q55 186 185 284.5t321 98.5q217 0 322.5 -118t72.5 -325l-74 -456q-14 -88 8.5 -122t92.5 -34q18 0 31.5 1 t33.5 5l-22 -137q-20 -8 -53 -13t-62 -5q-125 0 -181.5 63.5t-37.5 181.5h-4q-68 -125 -174.5 -190.5t-243.5 -65.5q-154 0 -246 86t-92 230zM240 307q0 -88 59 -139t164 -51q150 0 256 114.5t139 313.5l12 71q-25 -18 -62.5 -29.5t-96.5 -19.5l-213 -26 q-133 -16 -195.5 -73t-62.5 -161zM436 1372l31 197h188l-30 -197h-189zM805 1372l33 197h186l-31 -197h-188z" />
<glyph unicode="&#xe5;" horiz-adv-x="1249" d="M45 0zM45 289q0 100 41 175t123 122q45 27 106.5 43t165.5 28l203 23q121 14 169 52t48 122q0 88 -60.5 134t-174.5 46q-129 0 -208 -65.5t-114 -200.5l-176 37q55 186 185 284.5t321 98.5q217 0 322.5 -118t72.5 -325l-74 -456q-14 -88 8.5 -122t92.5 -34q18 0 31.5 1 t33.5 5l-22 -137q-20 -8 -53 -13t-62 -5q-125 0 -181.5 63.5t-37.5 181.5h-4q-68 -125 -174.5 -190.5t-243.5 -65.5q-154 0 -246 86t-92 230zM240 307q0 -88 59 -139t164 -51q150 0 256 114.5t139 313.5l12 71q-25 -18 -62.5 -29.5t-96.5 -19.5l-213 -26 q-133 -16 -195.5 -73t-62.5 -161zM512 1528q0 104 65.5 169.5t168.5 65.5q98 0 160.5 -64.5t62.5 -166.5t-63.5 -168t-163.5 -66q-102 0 -166 63.5t-64 166.5zM617 1530q0 -61 34.5 -99t90.5 -38q57 0 90.5 36.5t33.5 100.5q0 68 -31.5 103.5t-90.5 35.5q-57 0 -92 -38 t-35 -101z" />
<glyph unicode="&#xe6;" horiz-adv-x="1966" d="M45 291q0 100 41 175t123 120q45 27 106.5 43t165.5 28l203 23q119 12 167 51t48 123q0 88 -59.5 134t-173.5 46q-129 0 -208 -65.5t-114 -200.5l-176 37q55 186 184 284.5t318 98.5q131 0 219 -51.5t133 -153.5q76 100 182.5 152.5t237.5 52.5t230.5 -55.5t158.5 -159.5 q45 -82 61.5 -191.5t3.5 -236.5h-854l-2 -17q-4 -190 81 -293.5t245 -103.5q127 0 213 60.5t145 191.5l156 -57q-72 -174 -202 -263.5t-312 -89.5t-302 89.5t-159 248.5h-6q-63 -164 -186 -251t-289 -87q-176 0 -277.5 86t-101.5 232zM240 307q0 -88 62.5 -139t172.5 -51 q152 0 249 109.5t132 318.5l10 69q-25 -16 -61.5 -27.5t-93.5 -19.5l-213 -26q-133 -16 -195.5 -73t-62.5 -161zM1057 676h657q2 66 -7 122t-32 99q-35 66 -97 100.5t-148 34.5q-147 0 -245 -94t-128 -262z" />
<glyph unicode="&#xe7;" horiz-adv-x="1216" d="M70 518q0 287 169 478.5t431 191.5q203 0 333 -115t166 -321l-188 -41q-23 154 -103.5 234.5t-211.5 80.5q-182 0 -292 -139t-110 -371q0 -176 90 -278.5t248 -102.5q129 0 215 69.5t137 213.5l176 -53q-68 -193 -205 -292.5t-333 -99.5h-2l-47 -110q14 8 32.5 11t42.5 3 q63 0 103.5 -39t40.5 -102q0 -98 -77 -154.5t-210 -56.5q-74 0 -145.5 16.5t-116.5 42.5l72 111q37 -25 90 -39t108 -14q70 0 110 24.5t40 69.5q0 31 -19.5 47t-54.5 16q-29 0 -52.5 -12t-39.5 -37l-90 21l96 213q-190 35 -296.5 177t-106.5 357z" />
<glyph unicode="&#xe8;" horiz-adv-x="1204" d="M72 0zM72 514q0 297 164.5 485.5t435.5 188.5q141 0 244.5 -57.5t158.5 -167.5q43 -86 57.5 -189.5t2.5 -228.5h-873q-6 -199 83 -306.5t259 -107.5q127 0 213 60.5t146 191.5l155 -57q-72 -176 -203.5 -264.5t-324.5 -88.5q-238 0 -378 147.5t-140 393.5zM276 676h678 q2 63 -7 116.5t-32 100.5q-29 66 -95 102.5t-154 36.5q-154 0 -254.5 -92t-135.5 -264zM506 1663h185l83 -371h-139z" />
<glyph unicode="&#xe9;" horiz-adv-x="1204" d="M72 0zM72 514q0 297 164.5 485.5t435.5 188.5q141 0 244.5 -57.5t158.5 -167.5q43 -86 57.5 -189.5t2.5 -228.5h-873q-6 -199 83 -306.5t259 -107.5q127 0 213 60.5t146 191.5l155 -57q-72 -176 -203.5 -264.5t-324.5 -88.5q-238 0 -378 147.5t-140 393.5zM276 676h678 q2 63 -7 116.5t-32 100.5q-29 66 -95 102.5t-154 36.5q-154 0 -254.5 -92t-135.5 -264zM633 1292l200 371h191l-246 -371h-145z" />
<glyph unicode="&#xea;" horiz-adv-x="1204" d="M72 0zM72 514q0 297 164.5 485.5t435.5 188.5q141 0 244.5 -57.5t158.5 -167.5q43 -86 57.5 -189.5t2.5 -228.5h-873q-6 -199 83 -306.5t259 -107.5q127 0 213 60.5t146 191.5l155 -57q-72 -176 -203.5 -264.5t-324.5 -88.5q-238 0 -378 147.5t-140 393.5zM276 676h678 q2 63 -7 116.5t-32 100.5q-29 66 -95 102.5t-154 36.5q-154 0 -254.5 -92t-135.5 -264zM393 1292l305 371h121l197 -371h-148l-127 217l-188 -217h-160z" />
<glyph unicode="&#xeb;" horiz-adv-x="1204" d="M72 0zM72 514q0 297 164.5 485.5t435.5 188.5q141 0 244.5 -57.5t158.5 -167.5q43 -86 57.5 -189.5t2.5 -228.5h-873q-6 -199 83 -306.5t259 -107.5q127 0 213 60.5t146 191.5l155 -57q-72 -176 -203.5 -264.5t-324.5 -88.5q-238 0 -378 147.5t-140 393.5zM276 676h678 q2 63 -7 116.5t-32 100.5q-29 66 -95 102.5t-154 36.5q-154 0 -254.5 -92t-135.5 -264zM438 1372l31 197h188l-30 -197h-189zM807 1372l33 197h186l-31 -197h-188z" />
<glyph unicode="&#xec;" horiz-adv-x="518" d="M72 0l184 1163h186l-184 -1163h-186zM72 0zM174 1663h185l83 -371h-139z" />
<glyph unicode="&#xed;" horiz-adv-x="518" d="M72 0l184 1163h186l-184 -1163h-186zM72 0zM299 1292l200 371h191l-246 -371h-145z" />
<glyph unicode="&#xee;" horiz-adv-x="518" d="M57 0zM59 1292l305 371h121l197 -371h-148l-127 217l-188 -217h-160zM72 0l184 1163h186l-184 -1163h-186z" />
<glyph unicode="&#xef;" horiz-adv-x="518" d="M72 0l184 1163h186l-184 -1163h-186zM72 0zM104 1372l31 197h188l-30 -197h-189zM473 1372l33 197h186l-31 -197h-188z" />
<glyph unicode="&#xf0;" horiz-adv-x="1249" d="M78 479q0 252 155.5 413t397.5 161q121 0 211 -51.5t143 -149.5l8 2q-14 82 -42.5 161t-84.5 183l-47 88l-229 -117l-51 103l227 114l-121 230l162 67l119 -223l239 121l47 -102l-233 -117l45 -84q80 -152 122 -306.5t42 -301.5t-31 -263t-92 -204 q-74 -111 -193.5 -170.5t-267.5 -59.5q-244 0 -385 136.5t-141 369.5zM272 489q0 -170 88 -262t250 -92q170 0 274.5 113.5t104.5 298.5q0 172 -89 270t-247 98q-174 0 -277.5 -115.5t-103.5 -310.5z" />
<glyph unicode="&#xf1;" horiz-adv-x="1314" d="M68 0l184 1163h182l-39 -248h6q72 133 182.5 203t247.5 70q203 0 294.5 -132t54.5 -372l-109 -684h-186l104 657q31 190 -27.5 281.5t-207.5 91.5q-162 0 -266.5 -117.5t-141.5 -343.5l-90 -569h-188zM68 0zM406 1333q16 143 74.5 217t156.5 74q45 0 86 -20.5t104 -81.5 q45 -47 70 -60.5t49 -13.5q45 0 65.5 41t26.5 131l115 -16q-14 -145 -65.5 -216t-143.5 -71q-45 0 -87 20.5t-105 81.5q-47 47 -71 60.5t-48 13.5q-49 0 -77 -43t-34 -133z" />
<glyph unicode="&#xf2;" horiz-adv-x="1253" d="M72 0zM72 518q0 299 167 484.5t433 185.5q231 0 370.5 -150.5t139.5 -402.5q0 -295 -161 -478.5t-419 -183.5q-246 0 -388 146.5t-142 398.5zM266 522q0 -186 88 -286.5t250 -100.5q172 0 278.5 137.5t106.5 360.5q0 186 -87 290.5t-243 104.5q-178 0 -285.5 -138 t-107.5 -368zM506 1663h185l83 -371h-139z" />
<glyph unicode="&#xf3;" horiz-adv-x="1253" d="M72 0zM72 518q0 299 167 484.5t433 185.5q231 0 370.5 -150.5t139.5 -402.5q0 -295 -161 -478.5t-419 -183.5q-246 0 -388 146.5t-142 398.5zM266 522q0 -186 88 -286.5t250 -100.5q172 0 278.5 137.5t106.5 360.5q0 186 -87 290.5t-243 104.5q-178 0 -285.5 -138 t-107.5 -368zM633 1292l200 371h191l-246 -371h-145z" />
<glyph unicode="&#xf4;" horiz-adv-x="1253" d="M72 0zM72 518q0 299 167 484.5t433 185.5q231 0 370.5 -150.5t139.5 -402.5q0 -295 -161 -478.5t-419 -183.5q-246 0 -388 146.5t-142 398.5zM266 522q0 -186 88 -286.5t250 -100.5q172 0 278.5 137.5t106.5 360.5q0 186 -87 290.5t-243 104.5q-178 0 -285.5 -138 t-107.5 -368zM393 1292l305 371h121l197 -371h-148l-127 217l-188 -217h-160z" />
<glyph unicode="&#xf5;" horiz-adv-x="1253" d="M72 0zM72 518q0 299 167 484.5t433 185.5q231 0 370.5 -150.5t139.5 -402.5q0 -295 -161 -478.5t-419 -183.5q-246 0 -388 146.5t-142 398.5zM266 522q0 -186 88 -286.5t250 -100.5q172 0 278.5 137.5t106.5 360.5q0 186 -87 290.5t-243 104.5q-178 0 -285.5 -138 t-107.5 -368zM351 1333q16 143 74.5 217t156.5 74q45 0 86 -20.5t104 -81.5q45 -47 70 -60.5t49 -13.5q45 0 65.5 41t26.5 131l115 -16q-14 -145 -65.5 -216t-143.5 -71q-45 0 -87 20.5t-105 81.5q-47 47 -71 60.5t-48 13.5q-49 0 -77 -43t-34 -133z" />
<glyph unicode="&#xf6;" horiz-adv-x="1253" d="M72 0zM72 518q0 299 167 484.5t433 185.5q231 0 370.5 -150.5t139.5 -402.5q0 -295 -161 -478.5t-419 -183.5q-246 0 -388 146.5t-142 398.5zM266 522q0 -186 88 -286.5t250 -100.5q172 0 278.5 137.5t106.5 360.5q0 186 -87 290.5t-243 104.5q-178 0 -285.5 -138 t-107.5 -368zM438 1372l31 197h188l-30 -197h-189zM807 1372l33 197h186l-31 -197h-188z" />
<glyph unicode="&#xf7;" horiz-adv-x="1206" d="M199 739l22 142h854l-22 -142h-854zM459 295l37 231h190l-37 -231h-190zM584 1081l37 234h190l-37 -234h-190z" />
<glyph unicode="&#xf8;" horiz-adv-x="1253" d="M-33 55l176 162q-35 61 -53 137t-18 164q0 299 167 484.5t433 185.5q109 0 200 -35t158 -102l150 139l90 -92l-162 -152q37 -66 55.5 -144.5t18.5 -166.5q0 -295 -161 -478.5t-419 -183.5q-117 0 -213 36t-168 104l-160 -152zM264 522q0 -49 6 -94t21 -86l608 590 q-43 47 -103.5 71.5t-136.5 24.5q-180 0 -287.5 -138t-107.5 -368zM354 231q43 -47 105.5 -71.5t144.5 -24.5q174 0 279.5 137.5t105.5 360.5q0 53 -7 101t-21 91z" />
<glyph unicode="&#xf9;" horiz-adv-x="1306" d="M115 0zM125 451l113 712h186l-107 -684q-27 -176 35 -262t213 -86q156 0 256.5 118t134.5 345l91 569h186l-182 -1163h-183l39 248h-6q-76 -135 -182.5 -204t-241.5 -69q-201 0 -294 124t-58 352zM557 1645h185l83 -371h-139z" />
<glyph unicode="&#xfa;" horiz-adv-x="1306" d="M115 0zM125 451l113 712h186l-107 -684q-27 -176 35 -262t213 -86q156 0 256.5 118t134.5 345l91 569h186l-182 -1163h-183l39 248h-6q-76 -135 -182.5 -204t-241.5 -69q-201 0 -294 124t-58 352zM682 1274l200 371h191l-246 -371h-145z" />
<glyph unicode="&#xfb;" horiz-adv-x="1306" d="M115 0zM125 451l113 712h186l-107 -684q-27 -176 35 -262t213 -86q156 0 256.5 118t134.5 345l91 569h186l-182 -1163h-183l39 248h-6q-76 -135 -182.5 -204t-241.5 -69q-201 0 -294 124t-58 352zM442 1274l305 371h121l197 -371h-148l-127 217l-188 -217h-160z" />
<glyph unicode="&#xfc;" horiz-adv-x="1306" d="M115 0zM125 451l113 712h186l-107 -684q-27 -176 35 -262t213 -86q156 0 256.5 118t134.5 345l91 569h186l-182 -1163h-183l39 248h-6q-76 -135 -182.5 -204t-241.5 -69q-201 0 -294 124t-58 352zM487 1354l31 197h188l-30 -197h-189zM856 1354l33 197h186l-31 -197h-188 z" />
<glyph unicode="&#xfd;" horiz-adv-x="1140" d="M-205 -340l64 154q57 -27 113.5 -39.5t115.5 -12.5q72 0 122 27t97 88q23 31 43.5 61.5t36.5 61.5l-281 1163h191l217 -966l498 966h196l-616 -1153q-129 -242 -236.5 -327.5t-269.5 -85.5q-76 0 -158 17t-133 46zM0 0zM600 1292l200 371h191l-246 -371h-145z" />
<glyph unicode="&#xfe;" horiz-adv-x="1316" d="M8 -379l320 2048h186l-113 -747h7q74 131 177 198.5t232 67.5q190 0 308 -147.5t118 -385.5q0 -303 -150.5 -492.5t-387.5 -189.5q-154 0 -255.5 81t-142.5 235h-6l-104 -668h-189zM340 487q0 -164 89 -258t243 -94q170 0 273.5 141.5t103.5 370.5q0 180 -80 280.5 t-226 100.5q-180 0 -291.5 -153.5t-111.5 -387.5z" />
<glyph unicode="&#xff;" horiz-adv-x="1140" d="M-205 -340l64 154q57 -27 113.5 -39.5t115.5 -12.5q72 0 122 27t97 88q23 31 43.5 61.5t36.5 61.5l-281 1163h191l217 -966l498 966h196l-616 -1153q-129 -242 -236.5 -327.5t-269.5 -85.5q-76 0 -158 17t-133 46zM0 0zM405 1372l31 197h188l-30 -197h-189zM774 1372 l33 197h186l-31 -197h-188z" />
<glyph unicode="&#x152;" horiz-adv-x="2390" d="M119 680q0 266 101 463.5t296 308.5q123 70 278.5 101.5t376.5 31.5h1244l-29 -164h-836l-82 -522h783l-25 -158h-784l-90 -577h876l-24 -164h-1217q-201 0 -340 25.5t-235 80.5q-143 82 -218 228.5t-75 345.5zM317 692q0 -266 150.5 -396t458.5 -130h231l201 1253h-262 q-387 0 -583 -182.5t-196 -544.5z" />
<glyph unicode="&#x153;" horiz-adv-x="2088" d="M72 518q0 297 162.5 483.5t418.5 186.5q158 0 268.5 -76t168.5 -223q76 147 196.5 223t274.5 76q135 0 235 -54.5t158 -160.5q45 -80 62.5 -188.5t4.5 -239.5h-862l-2 -17q-4 -193 84 -295t254 -102q127 0 210 60.5t142 191.5l156 -57q-72 -176 -199 -264.5t-309 -88.5 q-164 0 -278.5 73t-174.5 214q-72 -143 -185.5 -215t-270.5 -72q-236 0 -375 147.5t-139 397.5zM266 522q0 -186 88 -286.5t250 -100.5q170 0 273.5 136.5t103.5 361.5q0 186 -86 290.5t-242 104.5q-176 0 -281.5 -137t-105.5 -369zM1171 676h668q2 66 -7 122t-32 99 q-35 66 -99.5 100.5t-150.5 34.5q-152 0 -249 -93t-130 -263z" />
<glyph unicode="&#x178;" horiz-adv-x="1302" d="M174 0zM174 1585h195l329 -760l543 760h205l-674 -930l-102 -655h-195l105 657zM566 1708l30 197h187l-31 -197h-186zM936 1708l31 197h186l-30 -197h-187z" />
<glyph unicode="&#x2c6;" horiz-adv-x="1024" d="M311 1292l305 371h121l197 -371h-148l-127 217l-188 -217h-160z" />
<glyph unicode="&#x2dc;" horiz-adv-x="1024" d="M281 1333q16 143 74.5 217t156.5 74q45 0 86 -20.5t104 -81.5q45 -47 70 -60.5t49 -13.5q45 0 65.5 41t26.5 131l115 -16q-14 -145 -65.5 -216t-143.5 -71q-45 0 -87 20.5t-105 81.5q-47 47 -71 60.5t-48 13.5q-49 0 -77 -43t-34 -133z" />
<glyph unicode="&#x2000;" horiz-adv-x="1043" />
<glyph unicode="&#x2001;" horiz-adv-x="2087" />
<glyph unicode="&#x2002;" horiz-adv-x="1043" />
<glyph unicode="&#x2003;" horiz-adv-x="2087" />
<glyph unicode="&#x2004;" horiz-adv-x="695" />
<glyph unicode="&#x2005;" horiz-adv-x="521" />
<glyph unicode="&#x2006;" horiz-adv-x="347" />
<glyph unicode="&#x2007;" horiz-adv-x="347" />
<glyph unicode="&#x2008;" horiz-adv-x="260" />
<glyph unicode="&#x2009;" horiz-adv-x="417" />
<glyph unicode="&#x200a;" horiz-adv-x="115" />
<glyph unicode="&#x2010;" horiz-adv-x="835" d="M94 592l25 151h645l-25 -151h-645z" />
<glyph unicode="&#x2011;" horiz-adv-x="835" d="M94 592l25 151h645l-25 -151h-645z" />
<glyph unicode="&#x2012;" horiz-adv-x="835" d="M94 592l25 151h645l-25 -151h-645z" />
<glyph unicode="&#x2013;" horiz-adv-x="1574" d="M129 602l21 131h1318l-20 -131h-1319z" />
<glyph unicode="&#x2014;" horiz-adv-x="1941" d="M129 602l21 131h1685l-20 -131h-1686z" />
<glyph unicode="&#x2018;" horiz-adv-x="348" d="M145 1083l48 291q20 117 80.5 167t187.5 52l14 -100q-100 0 -131 -27.5t-43 -117.5l-4 -21h98l-39 -244h-211z" />
<glyph unicode="&#x2019;" horiz-adv-x="348" d="M106 1174q96 2 128 29.5t47 121.5l2 14h-97l39 246h211l-47 -291q-18 -117 -78.5 -167t-189.5 -54z" />
<glyph unicode="&#x201a;" horiz-adv-x="348" d="M-107 -165q96 2 128 29.5t47 121.5l2 14h-97l39 246h211l-47 -291q-18 -117 -78.5 -167t-189.5 -54zM0 0z" />
<glyph unicode="&#x201c;" horiz-adv-x="659" d="M145 1083l48 291q20 117 80.5 167t187.5 52l14 -100q-100 0 -131 -27.5t-43 -117.5l-4 -21h98l-39 -244h-211zM145 1083zM458 1083l48 291q20 117 80.5 167t187.5 52l14 -100q-100 0 -131 -27.5t-43 -117.5l-4 -21h98l-39 -244h-211z" />
<glyph unicode="&#x201d;" horiz-adv-x="659" d="M106 1073zM106 1174q96 2 128 29.5t47 121.5l2 14h-97l39 246h211l-47 -291q-18 -117 -78.5 -167t-189.5 -54zM419 1174q96 2 128 29.5t47 121.5l2 14h-97l39 246h211l-47 -291q-18 -117 -78.5 -167t-189.5 -54z" />
<glyph unicode="&#x201e;" horiz-adv-x="659" d="M-107 -165q96 2 128 29.5t47 121.5l2 14h-97l39 246h211l-47 -291q-18 -117 -78.5 -167t-189.5 -54zM0 0zM204 -165q96 2 128 29.5t47 121.5l2 14h-97l39 246h211l-47 -291q-18 -117 -78.5 -167t-189.5 -54z" />
<glyph unicode="&#x2022;" horiz-adv-x="690" d="M180 641q0 80 52.5 132t129.5 52q78 0 129.5 -52t51.5 -132q0 -78 -52.5 -130t-128.5 -52t-129 53t-53 129z" />
<glyph unicode="&#x2026;" horiz-adv-x="1239" d="M-25 0l41 246h209l-39 -246h-211zM422 0l39 246h211l-39 -246h-211zM866 0l39 246h211l-39 -246h-211z" />
<glyph unicode="&#x202f;" horiz-adv-x="417" />
<glyph unicode="&#x2039;" horiz-adv-x="487" d="M12 600l346 418h185l-353 -424l228 -410h-182z" />
<glyph unicode="&#x203a;" horiz-adv-x="487" d="M-45 184l352 424l-229 410h182l223 -418l-346 -416h-182z" />
<glyph unicode="&#x205f;" horiz-adv-x="521" />
<glyph unicode="&#x20ac;" horiz-adv-x="1613" d="M14 553l23 131h184q0 39 3 80t12 94h-173l21 131h176q76 285 283 454t483 169q246 0 389.5 -142.5t188.5 -431.5l-193 -39q-35 233 -127 335t-272 102q-201 0 -344.5 -116t-208.5 -331h604l-49 -131h-586q-4 -31 -8 -81t-4 -93h536l-47 -131h-479q27 -199 136.5 -301 t297.5 -102q186 0 310 104t180 311l182 -53q-70 -260 -248 -399.5t-438 -139.5q-264 0 -426 152t-195 428h-211z" />
<glyph unicode="&#x2122;" horiz-adv-x="1738" d="M172 1458l18 127h687l-21 -127h-262l-111 -698h-159l110 698h-262zM834 760l129 825h192l127 -649l334 649h188l-131 -825h-141l98 620l-309 -620h-129l-121 641l-100 -641h-137z" />
<glyph unicode="&#x25fc;" horiz-adv-x="1167" d="M0 0v1167h1167v-1167h-1167z" />
</font>
</defs>
</svg>
