<?xml version="1.0" standalone="no"?>
<!DOCTYPE svg PUBLIC "-//W3C//DTD SVG 20010904//EN"
 "http://www.w3.org/TR/2001/REC-SVG-20010904/DTD/svg10.dtd">
<svg version="1.0" xmlns="http://www.w3.org/2000/svg"
 width="2176.000000pt" height="2176.000000pt" viewBox="0 0 2176.000000 2176.000000"
 preserveAspectRatio="xMidYMid meet">
<metadata>
Created by potrace 1.11, written by Peter Selinger 2001-2013
</metadata>
<g transform="translate(0.000000,2176.000000) scale(0.100000,-0.100000)"
fill="#000000" stroke="none">
<path d="M10298 21755 c-2 -2 -44 -7 -93 -10 -50 -3 -108 -7 -130 -10 -93 -10
-144 -16 -166 -20 -35 -7 -101 -17 -129 -20 -14 -2 -25 -4 -25 -5 0 -1 -9 -3
-20 -5 -19 -4 -84 -17 -95 -20 -3 0 -21 -4 -40 -8 -45 -9 -66 -14 -115 -27
-22 -6 -48 -13 -59 -15 -10 -2 -44 -12 -75 -21 -31 -10 -59 -18 -63 -20 -5 -1
-9 -2 -10 -4 -2 -1 -10 -3 -18 -5 -30 -6 -216 -76 -268 -100 -29 -14 -55 -25
-58 -25 -9 0 -233 -113 -274 -138 -19 -12 -42 -25 -50 -29 -8 -3 -64 -39 -125
-78 -135 -88 -291 -209 -403 -312 -47 -43 -89 -79 -93 -81 -5 -2 -9 -7 -9 -11
0 -4 -26 -35 -57 -68 -76 -78 -130 -139 -173 -193 -19 -25 -38 -46 -42 -48 -5
-2 -8 -8 -8 -13 0 -10 -4 -15 -44 -61 -14 -15 -27 -36 -31 -47 -3 -10 -12 -22
-20 -25 -8 -3 -15 -12 -15 -20 0 -8 -3 -16 -8 -18 -9 -4 -87 -125 -109 -168
-4 -8 -15 -24 -25 -34 -9 -10 -15 -23 -12 -28 3 -4 2 -8 -3 -8 -4 0 -14 -15
-22 -32 -8 -18 -17 -35 -21 -38 -12 -9 -200 -400 -200 -415 0 -3 -9 -24 -19
-48 -27 -61 -123 -328 -138 -382 -1 -5 -14 -48 -28 -95 -22 -70 -66 -237 -80
-300 -2 -8 -4 -15 -5 -15 -1 0 -3 -7 -5 -15 -4 -21 -28 -132 -32 -150 -2 -8
-5 -24 -7 -35 -8 -46 -17 -93 -27 -145 -6 -30 -12 -64 -14 -75 -14 -91 -29
-190 -30 -195 -2 -9 -18 -123 -20 -149 -4 -36 -17 -160 -21 -196 -9 -85 -16
-167 -19 -225 -2 -36 -4 -65 -5 -65 -7 0 -14 -341 -14 -670 0 -418 8 -670 29
-910 2 -27 7 -77 9 -110 8 -93 21 -214 32 -290 8 -56 11 -81 19 -150 4 -33 8
-62 10 -66 2 -3 7 -28 10 -55 8 -59 11 -81 19 -114 3 -14 8 -41 11 -60 7 -48
13 -80 37 -190 11 -52 22 -105 24 -117 2 -12 9 -34 14 -48 5 -14 9 -29 9 -33
-1 -4 0 -9 1 -12 1 -3 3 -12 5 -20 2 -8 8 -35 15 -60 7 -25 14 -60 17 -78 3
-18 9 -35 14 -38 5 -3 9 -13 9 -22 0 -27 107 -365 136 -429 8 -17 14 -36 14
-42 0 -10 6 -24 49 -123 12 -26 21 -51 21 -55 0 -25 287 -631 310 -653 5 -5
15 -22 51 -88 11 -20 29 -50 40 -67 10 -16 22 -37 25 -45 4 -8 18 -30 31 -47
13 -18 22 -33 19 -33 -3 0 14 -30 39 -66 25 -36 45 -67 45 -69 0 -4 157 -240
173 -260 4 -5 40 -55 79 -110 40 -55 77 -103 83 -107 6 -5 6 -8 0 -8 -6 0 -6
-3 1 -8 13 -9 124 -149 124 -156 0 -4 8 -14 18 -25 9 -10 27 -31 39 -47 71
-92 244 -303 271 -330 6 -7 12 -15 12 -18 0 -3 10 -15 23 -28 12 -13 38 -43
57 -66 19 -24 49 -58 65 -76 17 -18 46 -52 65 -75 19 -24 51 -60 70 -80 19
-21 60 -66 90 -101 30 -34 64 -72 75 -84 11 -13 49 -55 85 -95 36 -40 81 -90
100 -111 19 -21 73 -79 120 -130 47 -51 117 -127 156 -169 40 -42 93 -98 118
-126 39 -42 140 -151 261 -280 71 -75 309 -326 362 -382 66 -68 325 -341 371
-391 17 -18 72 -78 123 -133 51 -55 100 -110 108 -122 9 -12 29 -35 46 -52 16
-16 55 -59 85 -95 30 -36 64 -75 75 -86 11 -12 29 -34 40 -48 11 -14 34 -41
50 -60 17 -19 40 -47 52 -63 12 -15 30 -38 40 -50 10 -12 27 -34 38 -49 11
-15 25 -32 30 -38 9 -10 71 -92 118 -157 96 -133 127 -179 127 -187 0 -6 4
-12 8 -14 11 -4 102 -146 102 -158 0 -6 4 -10 9 -10 5 0 11 -8 15 -18 3 -9 13
-31 23 -47 10 -17 31 -52 46 -78 65 -111 241 -482 238 -504 0 -2 7 -20 16 -40
16 -40 82 -227 89 -253 2 -8 10 -40 19 -70 30 -105 47 -165 50 -185 2 -11 9
-40 15 -65 6 -25 15 -65 20 -90 4 -25 10 -55 13 -66 3 -12 8 -37 11 -55 3 -19
8 -45 11 -59 2 -14 7 -41 9 -60 3 -19 8 -50 10 -68 21 -141 32 -234 41 -357 4
-44 8 -96 10 -115 10 -94 18 -284 19 -462 0 -109 4 -198 8 -198 4 0 3 -13 -2
-30 -5 -17 -5 -30 0 -30 5 0 5 -12 1 -27 -5 -16 -5 -37 -1 -48 4 -11 5 -23 3
-28 -2 -4 -6 -78 -9 -165 -4 -161 -9 -258 -19 -372 -3 -36 -7 -87 -10 -115 -2
-27 -4 -52 -6 -55 -1 -3 -1 -8 0 -12 0 -5 -4 -39 -9 -78 -6 -39 -12 -92 -15
-118 -3 -26 -8 -60 -11 -77 -3 -16 -7 -43 -9 -60 -2 -16 -9 -50 -14 -75 -6
-25 -12 -58 -15 -75 -2 -16 -7 -37 -10 -45 -3 -8 -7 -28 -10 -45 -11 -70 -50
-208 -97 -349 -50 -151 -191 -456 -210 -456 -6 0 -7 -4 -4 -10 3 -5 2 -10 -2
-10 -5 0 -17 -16 -27 -35 -11 -19 -23 -35 -28 -35 -4 0 -8 -5 -8 -12 0 -31
-189 -224 -280 -286 -30 -20 -57 -39 -60 -42 -3 -3 -23 -14 -45 -25 -22 -11
-42 -23 -45 -26 -7 -8 -171 -71 -195 -74 -11 -1 -20 -3 -20 -4 0 -2 -7 -4 -15
-6 -8 -1 -40 -8 -70 -14 -118 -24 -395 -29 -495 -8 -16 4 -49 9 -73 12 -23 3
-75 15 -115 26 -39 11 -76 21 -82 22 -5 1 -16 6 -22 10 -7 5 -13 6 -13 3 0
-17 -217 91 -314 157 -84 56 -207 170 -276 256 -19 24 -40 48 -45 55 -67 74
-214 353 -275 524 -23 65 -46 126 -51 137 -5 11 -11 29 -12 40 -2 11 -6 27 -9
35 -11 30 -37 126 -43 153 -3 15 -7 39 -10 55 -3 15 -11 45 -16 66 -6 22 -12
51 -14 65 -2 14 -4 26 -5 26 -1 0 -3 9 -5 20 -2 11 -6 31 -9 44 -3 12 -8 42
-11 65 -3 22 -10 70 -15 106 -11 68 -16 106 -25 180 -3 25 -8 68 -11 95 -3 28
-7 75 -10 105 -2 30 -5 78 -8 105 -24 294 -25 378 -27 1868 -1 1019 -4 1367
-13 1368 -6 1 -539 2 -1184 2 l-1173 2 4 -1505 c3 -828 7 -1541 10 -1585 13
-217 25 -371 32 -435 3 -25 8 -72 10 -105 2 -33 5 -60 6 -60 1 0 3 -22 4 -50
2 -27 4 -50 5 -50 1 0 3 -13 5 -30 1 -16 3 -30 4 -30 2 0 4 -16 5 -35 2 -33
15 -125 21 -161 2 -9 6 -40 10 -69 4 -29 9 -62 11 -74 2 -12 9 -48 14 -81 5
-33 12 -71 15 -85 4 -14 8 -36 11 -50 2 -14 9 -47 14 -75 5 -27 12 -61 14 -75
2 -14 9 -45 16 -70 6 -25 13 -58 17 -75 7 -40 9 -47 16 -65 5 -13 21 -82 31
-131 2 -8 6 -21 9 -29 5 -12 30 -101 41 -145 6 -25 49 -162 56 -180 5 -11 18
-49 30 -85 27 -80 79 -214 132 -340 41 -95 168 -361 178 -370 5 -5 13 -20 42
-72 77 -141 297 -465 363 -534 5 -6 30 -35 55 -64 48 -58 262 -275 320 -325
171 -147 462 -355 498 -355 6 0 12 -4 12 -9 0 -14 352 -185 475 -231 61 -23
118 -46 127 -51 10 -5 27 -9 37 -9 11 0 22 -4 25 -9 3 -5 23 -12 43 -17 39 -8
47 -10 61 -14 4 -1 11 -2 16 -1 4 1 14 -3 20 -8 13 -11 278 -77 345 -87 20 -3
43 -7 51 -10 8 -3 29 -7 45 -10 28 -3 92 -13 125 -19 14 -3 142 -18 247 -31
234 -27 672 -31 943 -9 47 3 96 8 110 10 14 2 72 11 130 20 109 16 123 18 205
35 28 6 59 12 70 14 38 8 220 57 265 72 25 9 53 17 62 19 9 2 38 13 63 24 25
11 45 17 45 13 0 -3 5 -1 12 6 7 7 18 12 25 12 26 0 298 127 413 193 19 11 55
32 80 46 25 14 50 29 55 33 6 5 57 41 115 80 58 40 110 77 117 82 7 6 18 16
25 21 149 115 381 341 483 469 17 20 37 45 46 54 24 25 169 220 169 227 0 3 8
15 18 26 11 10 25 32 33 47 8 15 16 29 19 32 15 15 50 71 50 80 0 5 5 10 10
10 6 0 10 5 10 10 0 6 11 27 23 48 68 108 257 478 257 502 0 9 4 20 9 25 13
14 133 311 145 360 2 6 6 17 9 25 36 93 108 330 164 540 3 8 5 22 7 30 1 9 5
21 10 28 4 6 5 12 2 12 -3 0 -1 11 4 26 6 14 13 39 16 57 3 18 7 37 8 42 2 6
7 28 11 50 5 22 10 42 10 45 3 11 16 76 20 95 2 11 4 20 5 20 1 0 3 9 5 20 1
11 5 36 9 55 40 216 68 394 81 510 2 25 7 61 9 80 3 19 7 62 11 95 3 33 8 74
10 90 4 27 10 92 19 225 29 388 29 1102 0 1560 -10 167 -14 220 -19 260 -6 48
-14 130 -20 195 -2 22 -6 63 -10 90 -4 28 -8 66 -10 85 -2 19 -6 51 -9 70 -9
56 -18 113 -21 140 -2 14 -4 25 -5 25 -1 0 -3 9 -4 20 -3 22 -17 111 -22 135
-2 8 -5 31 -8 50 -3 19 -10 53 -15 75 -5 22 -12 51 -15 65 -2 14 -10 48 -16
75 -5 28 -13 61 -16 75 -3 14 -16 66 -29 115 -13 50 -27 101 -31 115 -63 241
-202 629 -292 820 -15 30 -27 58 -27 61 0 3 -10 25 -21 50 -43 88 -81 165 -94
189 -7 14 -17 33 -22 43 -8 16 -22 43 -91 172 -12 22 -24 42 -28 45 -3 3 -13
21 -22 40 -34 69 -310 503 -360 565 -4 6 -37 51 -73 100 -35 50 -71 98 -79
108 -8 9 -15 21 -15 25 0 4 -9 14 -20 22 -11 8 -20 19 -20 25 0 5 -13 24 -28
40 -15 17 -39 46 -52 65 -13 19 -29 40 -35 46 -27 30 -76 93 -74 96 1 2 -11
17 -27 33 -16 17 -45 51 -65 75 -111 137 -222 267 -299 351 -19 21 -48 55 -65
75 -16 19 -55 62 -86 95 -31 32 -55 59 -52 59 2 0 -16 20 -39 43 -24 24 -84
88 -135 143 -51 54 -156 164 -234 244 -773 792 -1008 1035 -1190 1234 -30 33
-65 71 -79 86 -14 14 -59 64 -100 110 -41 47 -78 87 -81 90 -9 8 -221 251
-269 309 -25 30 -49 59 -55 65 -5 7 -26 32 -45 56 -19 25 -40 52 -47 60 -34
41 -110 139 -128 164 -11 16 -30 39 -42 52 -13 13 -23 26 -23 29 0 4 -20 33
-45 65 -25 32 -45 63 -45 68 0 6 -4 12 -9 14 -5 2 -48 62 -95 133 -47 72 -90
135 -96 142 -5 7 -10 14 -10 16 0 3 -30 56 -66 118 -58 98 -152 285 -221 439
-30 65 -123 328 -123 345 0 9 -4 23 -10 33 -9 16 -55 181 -64 232 -2 14 -7 32
-10 40 -3 8 -7 31 -10 50 -3 19 -8 46 -11 60 -14 62 -24 115 -30 170 -3 25 -8
56 -10 70 -17 95 -35 266 -50 490 -20 284 -25 947 -10 1210 5 80 9 155 9 168
1 12 3 22 6 22 3 0 6 24 6 53 1 52 10 141 19 187 3 14 7 41 9 60 4 29 37 202
51 262 21 94 66 242 97 318 35 86 99 222 109 230 3 3 9 12 13 20 47 99 208
279 313 351 26 18 50 35 53 38 8 10 84 45 93 43 4 -1 7 2 7 6 0 12 158 72 229
87 11 3 30 7 41 10 105 26 190 34 375 35 141 0 155 -1 255 -15 30 -5 62 -9 70
-10 38 -4 201 -60 255 -87 233 -118 387 -303 538 -648 30 -68 83 -234 113
-352 20 -81 53 -233 63 -293 6 -33 12 -69 14 -80 3 -11 8 -40 11 -65 3 -25 8
-55 10 -67 8 -39 42 -329 51 -438 21 -237 48 -695 45 -760 -1 -11 -1 -24 0
-30 1 -5 4 -518 7 -1140 2 -621 6 -1131 8 -1133 3 -3 2138 -5 2268 -3 l28 1
-4 1493 c-2 820 -8 1539 -12 1597 -4 58 -8 124 -9 147 0 24 -3 43 -6 43 -3 0
-5 21 -5 48 1 41 -8 131 -30 317 -3 28 -8 68 -10 90 -3 22 -7 54 -9 70 -16
111 -19 132 -23 150 -7 34 -12 59 -17 95 -8 47 -24 139 -30 170 -3 14 -10 48
-16 75 -6 28 -13 61 -16 75 -3 14 -8 39 -10 55 -3 17 -10 32 -15 33 -5 2 -7 8
-4 13 3 5 1 28 -6 51 -6 24 -13 54 -16 67 -2 14 -6 28 -9 33 -3 4 -7 17 -10
28 -5 23 -7 32 -31 120 -10 36 -22 68 -26 71 -5 3 -8 9 -7 13 5 19 -112 353
-165 471 -12 27 -35 79 -51 115 -109 250 -349 644 -496 815 -9 11 -26 31 -38
45 -102 121 -184 206 -302 315 -307 282 -670 495 -1088 638 -81 28 -203 64
-235 70 -11 2 -27 7 -35 10 -18 7 -104 26 -145 32 -16 3 -52 9 -80 15 -27 6
-66 13 -85 15 -19 3 -48 7 -65 10 -88 14 -126 18 -245 30 -57 6 -697 15 -702
10z"/>
</g>
</svg>
