<svg width="143" height="62" viewBox="0 0 143 62" fill="none" xmlns="http://www.w3.org/2000/svg">
<g clip-path="url(#clip0)">
<path d="M33.6041 29.9362L32.7391 29.0277C29.7003 25.9033 29.2789 25.0834 29.2789 22.1363C29.2789 19.5881 30.0108 19.3665 30.765 19.3665C31.5857 19.3665 32.2511 19.6989 32.2511 23.7982V26.7232H36.6651V22.6017C36.6651 17.7267 34.5136 14.9126 30.765 14.9126C26.8833 14.9126 24.6431 17.7046 24.6431 22.5573C24.6431 27.4544 26.4175 29.3379 29.7003 32.8168C31.8075 35.0105 32.6725 36.0298 32.6725 39.0877C32.6725 41.4144 32.1402 42.611 31.0977 42.611C30.521 42.611 29.1458 42.6109 29.1458 38.6445V34.5673H24.6431V38.6445C24.6431 44.2064 26.839 47.0205 31.1642 47.0205C35.0015 47.0205 37.2862 43.9626 37.2862 38.844C37.2862 34.944 36.4655 32.9498 33.6041 29.9362Z" fill="white"/>
<path d="M76.0579 0.376465H73.7068V18.5466H76.0579V0.376465Z" fill="white"/>
<path d="M80.8048 8.30927L83.2668 18.4358L83.289 18.5687H85.2631V0.376465H83.2225V10.7024L80.7604 0.376465H78.7419V18.5687H80.8048V8.30927Z" fill="white"/>
<path d="M77.256 40.373C80.4057 40.373 80.6497 36.8276 80.6497 35.7418C80.6497 33.526 80.1839 32.3737 78.5203 30.6232L78.0102 30.0914C76.1692 28.1857 75.903 27.6761 75.903 25.8812C75.903 24.2636 76.4353 24.042 76.9899 24.042C77.7218 24.042 78.0767 24.4852 78.0767 26.8562V28.3851H80.2726V26.1471C80.2726 23.3551 79.097 21.8262 76.9899 21.8262C74.794 21.8262 73.5962 23.3551 73.5962 26.125C73.5962 28.9391 74.5722 29.9584 76.5241 32.0413C77.7884 33.3487 78.3429 34.0134 78.3429 35.8969C78.3429 37.4037 77.9658 38.1793 77.2117 38.1793C76.5684 38.1793 75.8586 37.8912 75.8586 35.631V33.4152H73.6184V35.631C73.6184 38.7776 74.8383 40.373 77.256 40.373Z" fill="white"/>
<path d="M89.766 35.9636V26.103C89.766 23.3331 88.546 21.8042 86.3279 21.8042C84.132 21.8042 82.8677 23.3775 82.8677 26.1251V35.9636C82.8677 38.7556 84.132 40.351 86.3501 40.351C88.546 40.351 89.766 38.7556 89.766 35.9636ZM85.2632 26.0808C85.2632 24.3524 85.6625 24.0201 86.3279 24.0201C87.0377 24.0201 87.4148 24.3524 87.4148 26.0365V36.2073C87.4148 37.8914 86.8824 38.1352 86.3723 38.1352C85.6625 38.1352 85.2632 37.7806 85.2632 35.9414V26.0808Z" fill="white"/>
<path d="M99.0598 36.318V32.4402H96.7308V36.5174C96.7308 37.2708 96.5533 38.135 95.7105 38.135C95.0228 38.135 94.6236 37.5367 94.6236 36.5174V26.9891C94.6236 25.15 94.668 24.0199 95.6439 24.0199C96.5533 24.0199 96.6199 25.0392 96.6199 26.4795V28.9834H98.9489V26.413C98.9489 23.3108 97.8176 21.8262 95.4886 21.8262C93.4036 21.8262 92.2502 23.4216 92.2502 26.3022V36.3401C92.2502 38.8219 93.5589 40.373 95.6883 40.373C97.7289 40.373 99.0598 38.7776 99.0598 36.318Z" fill="white"/>
<path d="M103.917 22.0254H101.566V40.1955H103.917V22.0254Z" fill="white"/>
<path d="M113.012 37.9796H109.019V31.9525H112.235V29.7809H109.019V24.2413H112.746V22.0254H106.668V40.1955H113.012V37.9796Z" fill="white"/>
<path d="M117.204 40.1955H119.533V24.1748H122.372V22.0254H114.387V24.1748H117.204V40.1955Z" fill="white"/>
<path d="M126.564 40.1955H128.893V32.4621L131.599 22.0254H129.248L127.717 28.8724L126.098 22.0254H123.725L126.564 32.5286V40.1955Z" fill="white"/>
<path d="M81.8474 56.1277L80.45 43.7853L80.4278 43.6523H77.7661L76.3244 56.1055L75.3484 43.7853V43.6523H73.1082L74.9492 61.6895L74.9713 61.8225H77.6331L79.0748 49.2806L80.5609 61.8225H83.2226L85.0415 43.8296L85.0637 43.6523H82.8234L81.8474 56.1277Z" fill="white"/>
<path d="M89.5665 53.5794H92.7605V51.4079H89.5665V45.8682H93.2707V43.6523H87.1931V61.8225H93.5368V59.6066H89.5665V53.5794Z" fill="white"/>
<path d="M97.8621 45.8239H100.679V61.8225H103.008V45.8239H105.847V43.6523H97.8621V45.8239Z" fill="white"/>
<path d="M114.675 49.7903V47.9733C114.675 45.0927 113.522 43.6523 111.215 43.6523H107.888V61.8225H110.239V53.9561H110.971L112.923 61.8225H115.252L113.145 53.3357C114.254 52.6045 114.675 51.6295 114.675 49.7903ZM110.261 45.8904H110.794C112.058 45.8904 112.28 46.1341 112.28 49.2585C112.28 51.4965 111.947 51.7846 110.661 51.7846H110.283V45.8904H110.261Z" fill="white"/>
<path d="M121.374 58.0555C121.374 59.5401 120.93 59.7395 120.487 59.7395C119.865 59.7395 119.488 59.4515 119.488 58.0333V43.6523H117.159V57.9004C117.159 59.518 117.426 60.4043 118.113 61.0912C118.668 61.6452 119.621 62.0219 120.464 62.0219C121.352 62.0219 122.194 61.6673 122.838 61.0469C123.481 60.3821 123.703 59.5623 123.703 58.0112V43.6523H121.374V58.0555Z" fill="white"/>
<path d="M130.712 51.7403C128.871 49.8346 128.605 49.325 128.605 47.5301C128.605 45.9126 129.137 45.691 129.692 45.691C130.423 45.691 130.778 46.1341 130.778 48.5051V50.0341H132.974V47.796C132.974 45.004 131.799 43.4751 129.692 43.4751C127.496 43.4751 126.298 45.004 126.298 47.7739C126.298 50.588 127.274 51.6073 129.226 53.6902C130.49 54.9976 131.045 55.6624 131.045 57.5459C131.045 59.0526 130.667 59.8282 129.913 59.8282C129.27 59.8282 128.56 59.5401 128.56 57.28V55.0641H126.32V57.28C126.32 60.4265 127.54 62.0219 129.958 62.0219C133.107 62.0219 133.351 58.4765 133.351 57.3907C133.351 55.1749 132.886 54.0226 131.222 52.2721L130.712 51.7403Z" fill="white"/>
<path d="M135.015 43.6523V45.8239H137.81V61.8225H140.161V45.8239H143V43.6523H135.015Z" fill="white"/>
<path d="M43.6966 2.68115L39.948 12.3423C41.301 13.0071 42.5875 13.8048 43.7631 14.7355L50.7501 7.09073C48.6207 5.29588 46.2474 3.81125 43.6966 2.68115Z" fill="white"/>
<path d="M39.948 12.3423L43.6966 2.68115C46.2252 3.8334 48.5985 5.29588 50.7501 7.06857L43.7631 14.7133C42.5875 13.8048 41.3232 12.9849 39.948 12.3423Z" fill="white"/>
<path d="M40.5244 2.10508L40.7463 1.52895C38.1289 0.664761 35.3785 0.132952 32.5615 0V10.3481C34.0698 10.4589 35.5559 10.747 36.9977 11.168L40.5244 2.10508Z" fill="white"/>
<path d="M32.5615 10.3706V0.0224609C35.3563 0.155413 38.1067 0.665063 40.7463 1.55141L40.5244 2.12754L36.9977 11.2126C35.5781 10.7473 34.0698 10.4814 32.5615 10.3706Z" fill="white"/>
<path d="M29.4118 10.3703V0.642602H29.3896L29.4118 0C26.617 0.132952 23.8666 0.664761 21.2271 1.52895L24.9756 11.1901C26.4174 10.747 27.9035 10.4811 29.4118 10.3703Z" fill="white"/>
<path d="M29.4118 0L29.3896 0.642602H29.4118V10.3481C27.9035 10.4589 26.4174 10.747 24.9756 11.168L21.2271 1.52895C23.8666 0.664761 26.617 0.132952 29.4118 0Z" fill="white"/>
<path d="M22.0257 12.3423L18.2771 2.68115C15.7485 3.81125 13.3752 5.29588 11.2236 7.06857L18.2106 14.7133C19.3862 13.8048 20.6727 12.9849 22.0257 12.3423Z" fill="white"/>
<path d="M18.2771 2.68115L22.0257 12.3423C20.6727 13.0071 19.3862 13.8048 18.2106 14.7355L11.2236 7.06857C13.3752 5.29588 15.7485 3.81125 18.2771 2.68115Z" fill="white"/>
<path d="M10.3363 30.756L0.0221809 29.8032C0 30.1799 0 30.5566 0 30.9112C0 33.3043 0.26617 35.6753 0.820692 38.0019L10.7799 35.1656C10.4915 33.7696 10.3363 32.3293 10.3363 30.9112C10.3363 30.8668 10.3363 30.8004 10.3363 30.756Z" fill="white"/>
<path d="M10.7799 35.1878L0.820692 38.0241C0.26617 35.6974 0 33.3265 0 30.9333C0 30.5566 0 30.1799 0.0221809 29.8032L10.3363 30.756C10.3363 30.8225 10.3363 30.889 10.3363 30.9333C10.3363 32.3515 10.4915 33.7696 10.7799 35.1878Z" fill="white"/>
<path d="M2.52863 18.6797C1.41959 21.2279 0.687622 23.9091 0.310547 26.6568L10.6246 27.6096C10.8686 26.125 11.2679 24.6847 11.8224 23.2887L2.52863 18.6797Z" fill="white"/>
<path d="M10.6024 27.6096L0.28833 26.6568C0.665405 23.9091 1.41955 21.2279 2.50642 18.6797L11.778 23.2887C11.2457 24.6847 10.8464 26.125 10.6024 27.6096Z" fill="white"/>
<path d="M58.0695 15.8434C56.7164 13.4281 55.0307 11.1901 53.0788 9.1958L46.0918 16.8627C47.1121 17.9706 48.0215 19.1672 48.7757 20.4524L58.0695 15.8434Z" fill="white"/>
<path d="M53.0786 9.21826C55.0305 11.2125 56.7162 13.4284 58.0693 15.8659L48.7977 20.4527C48.0435 19.1675 47.1341 17.9488 46.1138 16.863L53.0786 9.21826Z" fill="white"/>
<path d="M8.8945 9.21826C6.94259 11.2125 5.25684 13.4284 3.90381 15.8659L13.1754 20.4749C13.9296 19.1897 14.839 17.9709 15.8593 16.8852L8.8945 9.21826Z" fill="white"/>
<path d="M13.1976 20.4524L3.92603 15.8434C5.27906 13.4281 6.9648 11.1901 8.91672 9.1958L15.9037 16.8627C14.8612 17.9706 13.9518 19.1672 13.1976 20.4524Z" fill="white"/>
<path d="M61.685 26.6568C61.3079 23.9091 60.5538 21.2279 59.4669 18.6797L50.1953 23.2887C50.7498 24.6847 51.1491 26.125 51.3931 27.6096L61.685 26.6568Z" fill="white"/>
<path d="M59.4669 18.6797C60.5759 21.2279 61.3079 23.9091 61.685 26.6568L51.3709 27.6096C51.1269 26.125 50.7276 24.6847 50.1731 23.2887L59.4669 18.6797Z" fill="white"/>
<path d="M48.5539 56.438C50.8164 54.8647 52.8792 53.0255 54.6536 50.9204L46.3802 44.6938C45.4042 45.8018 44.2952 46.7989 43.0974 47.6631L48.5539 56.438Z" fill="white"/>
<path d="M46.4024 44.6719L54.6759 50.8985C52.9014 53.0035 50.8386 54.8649 48.5761 56.416L43.1196 47.6411C44.3174 46.777 45.4043 45.7798 46.4024 44.6719Z" fill="white"/>
<path d="M1.68579 41.038C2.59521 43.6527 3.83733 46.1123 5.38999 48.3947L13.6413 42.1681C12.8428 40.9272 12.1552 39.5977 11.645 38.2017L1.68579 41.038Z" fill="white"/>
<path d="M5.41197 48.3947C3.83713 46.1123 2.595 43.6527 1.70776 41.038L11.667 38.2017C12.1993 39.5977 12.8647 40.9272 13.6632 42.1681L5.41197 48.3947Z" fill="white"/>
<path d="M51.637 30.756C51.637 30.8225 51.637 30.889 51.637 30.9333C51.637 32.3515 51.4817 33.7696 51.1934 35.1878L61.1526 38.0241C61.7071 35.6974 61.9733 33.3265 61.9733 30.9333C61.9733 30.5566 61.9733 30.1799 61.9511 29.8032L51.637 30.756Z" fill="white"/>
<path d="M61.1748 38.0241L51.2156 35.1878C51.5039 33.7918 51.6592 32.3515 51.6592 30.9333C51.6592 30.8668 51.6592 30.8004 51.6592 30.756L61.9733 29.8032C61.9955 30.1799 61.9955 30.5566 61.9955 30.9333C61.9955 33.3043 61.7071 35.6974 61.1748 38.0241Z" fill="white"/>
<path d="M36.3101 50.8765L38.2176 61.0473C40.9015 60.4047 43.4745 59.4076 45.8922 58.1002L40.4357 49.3032C39.1048 49.968 37.7296 50.4998 36.3101 50.8765Z" fill="white"/>
<path d="M38.1956 61.0473L36.2881 50.8765C37.7077 50.4998 39.1051 49.968 40.4137 49.3032L45.8702 58.1002C43.4525 59.4076 40.8795 60.4047 38.1956 61.0473Z" fill="white"/>
<path d="M56.5833 48.3947C58.1582 46.1123 59.4003 43.6527 60.2875 41.038L50.3283 38.2017C49.796 39.5977 49.1305 40.9272 48.332 42.1681L56.5833 48.3947Z" fill="white"/>
<path d="M50.3283 38.2017L60.2875 41.038C59.3781 43.6527 58.136 46.1123 56.5833 48.3947L48.332 42.1681C49.1305 40.9272 49.796 39.5977 50.3283 38.2017Z" fill="white"/>
<path d="M28.7906 51.4526L26.8831 61.6235C29.6113 61.978 32.3839 61.978 35.09 61.6235L33.1824 51.4526C31.6741 51.6077 30.2989 51.6077 28.7906 51.4526Z" fill="white"/>
<path d="M26.8831 61.601L28.7906 51.4302C30.2989 51.5853 31.6741 51.5853 33.2046 51.4302L35.1122 61.601C32.3839 61.9777 29.6113 61.9777 26.8831 61.601Z" fill="white"/>
<path d="M15.5933 44.6719L7.31982 50.9206C9.09429 53.0257 11.1571 54.887 13.4196 56.4381L18.876 47.6411C17.6783 46.777 16.5692 45.7798 15.5933 44.6719Z" fill="white"/>
<path d="M13.4196 56.438C11.1571 54.8647 9.09429 53.0034 7.31982 50.9204L15.5933 44.6938C16.5692 45.8018 17.6783 46.7989 18.876 47.6631L13.4196 56.438Z" fill="white"/>
<path d="M23.7778 61.0473L25.6854 50.8765C24.2658 50.4998 22.8684 49.968 21.5598 49.3032L16.1033 58.1002C18.521 59.4076 21.094 60.4047 23.7778 61.0473Z" fill="white"/>
<path d="M25.6854 50.8765L23.7778 61.0473C21.094 60.4047 18.521 59.4076 16.1033 58.1002L21.5598 49.3032C22.8684 49.968 24.2436 50.4998 25.6854 50.8765Z" fill="white"/>
</g>
<defs>
<clipPath id="clip0">
<rect width="143" height="62" fill="white"/>
</clipPath>
</defs>
</svg>
