<svg width="110" height="48" viewBox="0 0 110 48" fill="none" xmlns="http://www.w3.org/2000/svg">
<g clip-path="url(#clip0)">
<path d="M7.79861 18.3622C4.36193 14.8584 3.83321 13.8046 3.83321 10.4588C3.83321 7.92973 4.49411 6.82325 6.08027 6.82325C7.53425 6.82325 8.32732 7.69263 8.32732 12.2503V14.832H11.9226V10.933C11.9226 5.92753 9.83417 3.18769 6.08027 3.18769C2.16775 3.16134 0 5.90119 0 10.8803C0 15.9649 1.77121 17.8353 5.28719 21.5763L5.34006 21.629C7.69286 24.079 8.7503 25.3172 8.7503 28.8737C8.7503 31.8243 7.95722 33.2997 6.42394 33.2997C4.54698 33.2997 3.70103 31.7453 3.70103 28.3732V24.5269H0V28.3732C0 34.0373 2.19418 36.9089 6.52968 36.9089C12.1605 36.9089 12.6099 30.5598 12.6099 28.6103C12.6099 24.5796 11.7376 22.4983 8.7503 19.337L7.79861 18.3622Z" fill="white"/>
<path d="M21.6772 3.13501C17.7646 3.13501 15.5176 5.95389 15.5176 10.8803V29.0055C15.5176 33.9846 17.7911 36.8562 21.73 36.8562C25.5897 36.8562 27.8103 33.9846 27.8103 29.0055V10.8277C27.8103 5.87486 25.6425 3.13501 21.6772 3.13501ZM19.4565 10.8013C19.4565 7.87705 20.0381 6.77058 21.6507 6.77058C23.2897 6.77058 23.8978 7.79802 23.8978 10.6959V29.4534C23.8978 32.0615 23.2369 33.2206 21.7565 33.2206C20.091 33.2206 19.483 32.0615 19.483 28.9791V10.8013H19.4565Z" fill="white"/>
<path d="M39.4424 30.0066C39.4424 32.6674 38.3057 33.2206 37.354 33.2206C35.9529 33.2206 35.1069 32.0088 35.1069 30.0066V12.461C35.1069 9.40504 35.1069 6.77058 37.1954 6.77058C39.0459 6.77058 39.2045 8.82546 39.2045 11.5126V15.8858H43.0906V11.3809C43.0906 5.82217 41.0815 3.13501 36.931 3.13501C33.1771 3.13501 31.168 5.9012 31.168 11.1701V29.7168C31.168 34.169 33.5208 36.9352 37.2747 36.9352C40.9228 36.9352 43.3021 34.09 43.3021 29.6641V22.6828H39.416V30.0066H39.4424Z" fill="white"/>
<path d="M50.6781 3.53021H46.7656V36.5928H50.6781V3.53021Z" fill="white"/>
<path d="M58.5024 21.3919H64.3977V17.8354H58.5024V7.16578H65.3494V3.53021H54.5635V36.5928H65.8516V32.9572H58.5024V21.3919Z" fill="white"/>
<path d="M67.4648 7.08674H72.6727V36.5928H76.5324V7.08674H81.7931V3.53021H67.4648V7.08674Z" fill="white"/>
<path d="M87.6352 17.8617H93.5304V14.3052H87.6352V3.63556H94.4821V0H83.6963V33.0626H94.9844V29.427H87.6352V17.8617Z" fill="white"/>
<path d="M106.167 21.0758C108.229 19.7585 108.995 17.9934 108.995 14.6213V11.2755C108.995 6.13834 106.933 3.53021 102.836 3.53021H96.9141V36.5928H100.827V22.1032H102.571L106.167 36.5401V36.5928H110L106.167 21.0758ZM100.827 7.21847H102.016C104.607 7.21847 104.977 8.00881 104.977 13.6202C104.977 17.6246 104.395 18.494 101.752 18.494H100.827V7.21847Z" fill="white"/>
<path d="M91.6004 37.3568L90.9131 39.0955C91.151 39.2009 91.3889 39.3589 91.6004 39.517L92.8693 38.1471C92.4728 37.831 92.0498 37.5675 91.6004 37.3568Z" fill="white"/>
<path d="M90.9131 39.0955L91.6004 37.3568C92.0498 37.5675 92.4992 37.831 92.8693 38.1471L91.6004 39.517C91.3889 39.3589 91.1774 39.2272 90.9131 39.0955Z" fill="white"/>
<path d="M91.0193 37.2514L91.0722 37.146C90.5964 36.9879 90.0941 36.9089 89.5918 36.8826V38.753C89.8562 38.7794 90.1205 38.8321 90.3849 38.9111L91.0193 37.2514Z" fill="white"/>
<path d="M89.5918 38.753V36.8826C90.0941 36.9089 90.5964 36.9879 91.0722 37.146L91.0193 37.2514L90.3849 38.8848C90.1205 38.8057 89.8562 38.753 89.5918 38.753Z" fill="white"/>
<path d="M89.0097 38.7531V37.0143V36.9089C88.5074 36.9353 88.0051 37.0143 87.5293 37.1724L88.2166 38.9111C88.481 38.8058 88.7453 38.7531 89.0097 38.7531Z" fill="white"/>
<path d="M89.0097 36.8826V36.9879V38.7267C88.7453 38.753 88.481 38.8057 88.2166 38.8848L87.5293 37.146C88.0316 36.9879 88.5074 36.9089 89.0097 36.8826Z" fill="white"/>
<path d="M87.6877 39.0955L87.0004 37.3568C86.551 37.5675 86.1016 37.831 85.7314 38.1471L87.0004 39.517C87.2119 39.3589 87.4498 39.2272 87.6877 39.0955Z" fill="white"/>
<path d="M87.0004 37.3568L87.6877 39.0955C87.4498 39.2009 87.2119 39.3589 87.0004 39.517L85.7314 38.1471C86.128 37.831 86.551 37.5675 87.0004 37.3568Z" fill="white"/>
<path d="M85.5732 42.4149L83.7227 42.2305C83.7227 42.3096 83.7227 42.3623 83.7227 42.4413C83.7227 42.8628 83.7755 43.3107 83.8813 43.7058L85.6789 43.2053C85.626 42.9418 85.5996 42.7047 85.5996 42.4413C85.5732 42.4413 85.5732 42.4149 85.5732 42.4149Z" fill="white"/>
<path d="M85.6525 43.2053L83.8549 43.7058C83.7492 43.2843 83.6963 42.8628 83.6963 42.4413C83.6963 42.3623 83.6963 42.3096 83.6963 42.2305L85.5468 42.4149V42.4413C85.5732 42.7047 85.5997 42.9682 85.6525 43.2053Z" fill="white"/>
<path d="M84.1719 40.2283C83.9604 40.6762 83.8283 41.1767 83.7754 41.6509L85.6259 41.8354C85.6788 41.5719 85.7316 41.3085 85.8374 41.0714L84.1719 40.2283Z" fill="white"/>
<path d="M85.6259 41.8354L83.7754 41.6509C83.8547 41.1504 83.9869 40.6762 84.1719 40.2283L85.8374 41.0714C85.7316 41.3085 85.6788 41.5719 85.6259 41.8354Z" fill="white"/>
<path d="M94.1912 39.7278C93.9533 39.2799 93.636 38.8848 93.2924 38.5423L92.0234 39.9122C92.2085 40.123 92.3671 40.3337 92.4993 40.5708L94.1912 39.7278Z" fill="white"/>
<path d="M93.2923 38.5423C93.636 38.9111 93.9532 39.3063 94.1911 39.7278L92.5256 40.5708C92.3935 40.3337 92.2349 40.123 92.0498 39.9122L93.2923 38.5423Z" fill="white"/>
<path d="M85.309 38.5423C84.9653 38.9111 84.6481 39.3063 84.4102 39.7278L86.0756 40.5708C86.2078 40.3337 86.3664 40.123 86.5515 39.9122L85.309 38.5423Z" fill="white"/>
<path d="M86.102 40.5708L84.4365 39.7278C84.6744 39.2799 84.9917 38.8848 85.3353 38.5423L86.6043 39.9122C86.3928 40.0966 86.2342 40.3337 86.102 40.5708Z" fill="white"/>
<path d="M94.852 41.6773C94.7727 41.1768 94.6405 40.7026 94.4555 40.2547L92.79 41.0977C92.8958 41.3348 92.9751 41.5983 93.0015 41.8617L94.852 41.6773Z" fill="white"/>
<path d="M94.4291 40.2283C94.6406 40.6762 94.7728 41.1767 94.8257 41.6509L92.9752 41.8354C92.9223 41.5719 92.8694 41.3085 92.7637 41.0714L94.4291 40.2283Z" fill="white"/>
<path d="M92.4732 47.0253C92.8697 46.7355 93.2398 46.4194 93.5835 46.0242L92.1031 44.8914C91.918 45.1021 91.733 45.2602 91.5215 45.4183L92.4732 47.0253Z" fill="white"/>
<path d="M92.0768 44.9177L93.5572 46.0505C93.24 46.4194 92.8699 46.7619 92.4469 47.0517L91.4688 45.471C91.7067 45.2866 91.9182 45.1021 92.0768 44.9177Z" fill="white"/>
<path d="M84.0137 44.2591C84.1723 44.7333 84.4102 45.1811 84.6746 45.5763L86.155 44.4435C85.9964 44.2327 85.8906 43.9693 85.7849 43.7322L84.0137 44.2591Z" fill="white"/>
<path d="M84.7009 45.5763C84.4101 45.1548 84.1987 44.7333 84.04 44.2591L85.8377 43.7585C85.9434 43.9956 86.0492 44.2591 86.2078 44.4698L84.7009 45.5763Z" fill="white"/>
<path d="M93.0285 42.4149V42.4413C93.0285 42.7047 93.0021 42.9418 92.9492 43.2053L94.7469 43.7058C94.8526 43.2843 94.9055 42.8628 94.9055 42.4413C94.9055 42.3623 94.9055 42.3096 94.9055 42.2305L93.0285 42.4149Z" fill="white"/>
<path d="M94.7468 43.7058L92.9492 43.2053C93.0021 42.9418 93.0285 42.7047 93.0285 42.4413V42.4149L94.879 42.2305C94.879 42.3096 94.879 42.3623 94.879 42.4413C94.9055 42.8628 94.8526 43.3107 94.7468 43.7058Z" fill="white"/>
<path d="M90.252 46.0242L90.5956 47.842C91.0715 47.7366 91.5473 47.5522 91.9703 47.3151L90.9922 45.7344C90.7807 45.8661 90.5163 45.9715 90.252 46.0242Z" fill="white"/>
<path d="M90.5956 47.8683L90.252 46.0505C90.5163 45.9715 90.7542 45.8925 90.9922 45.7607L91.9703 47.3414C91.5473 47.5785 91.0979 47.7366 90.5956 47.8683Z" fill="white"/>
<path d="M93.9268 45.5763C94.2176 45.1548 94.429 44.7333 94.5877 44.2591L92.79 43.7585C92.6843 43.9956 92.5785 44.2591 92.4199 44.4698L93.9268 45.5763Z" fill="white"/>
<path d="M92.79 43.7585L94.5876 44.2591C94.429 44.7333 94.1911 45.1812 93.9267 45.5763L92.4463 44.4435C92.5785 44.2327 92.7106 43.9956 92.79 43.7585Z" fill="white"/>
<path d="M88.9042 46.1296L88.5605 47.9474C89.0628 48.0001 89.5387 48.0001 90.041 47.9474L89.6973 46.1296C89.4329 46.1559 89.1686 46.1559 88.9042 46.1296Z" fill="white"/>
<path d="M88.5605 47.9737L88.9042 46.1559C89.1686 46.1822 89.4329 46.1822 89.6973 46.1559L90.041 47.9737C89.5651 48.0264 89.0628 48.0264 88.5605 47.9737Z" fill="white"/>
<path d="M86.5253 44.9177L85.0449 46.0505C85.3622 46.4194 85.7322 46.7619 86.1552 47.0517L87.1334 45.471C86.8954 45.2866 86.7104 45.1021 86.5253 44.9177Z" fill="white"/>
<path d="M86.1289 47.0253C85.7323 46.7355 85.3622 46.4194 85.0186 46.0242L86.499 44.8914C86.684 45.1021 86.8691 45.2602 87.0806 45.4183L86.1289 47.0253Z" fill="white"/>
<path d="M88.0055 47.8683L88.3492 46.0505C88.0848 45.9715 87.8469 45.8925 87.609 45.7607L86.6309 47.3414C87.0538 47.5785 87.5297 47.7366 88.0055 47.8683Z" fill="white"/>
<path d="M88.3492 46.0242L88.0055 47.842C87.5297 47.7366 87.0538 47.5522 86.6309 47.3151L87.609 45.7344C87.8469 45.8661 88.0848 45.9715 88.3492 46.0242Z" fill="white"/>
</g>
<defs>
<clipPath id="clip0">
<rect width="110" height="48" fill="white"/>
</clipPath>
</defs>
</svg>
