<svg width="68" height="30" viewBox="0 0 68 30" fill="none" xmlns="http://www.w3.org/2000/svg">
<g clip-path="url(#clip0)">
<path d="M4.82096 11.4764C2.69647 9.28649 2.36962 8.62787 2.36962 6.53676C2.36962 4.95608 2.77818 4.26453 3.75871 4.26453C4.65753 4.26453 5.1478 4.80789 5.1478 7.65641V9.27002H7.37034V6.83314C7.37034 3.70471 6.07931 1.99231 3.75871 1.99231C1.34006 1.97584 0 3.68824 0 6.80021C0 9.97803 1.09493 11.1471 3.26844 13.4852L3.30113 13.5181C4.75559 15.0494 5.40928 15.8233 5.40928 18.0461C5.40928 19.8902 4.91901 20.8123 3.97116 20.8123C2.81086 20.8123 2.28791 19.8408 2.28791 17.7332V15.3293H0V17.7332C0 21.2733 1.3564 23.068 4.03653 23.068C7.51742 23.068 7.79524 19.0999 7.79524 17.8814C7.79524 15.3622 7.25595 14.0615 5.40928 12.0856L4.82096 11.4764Z" fill="#101010"/>
<path d="M13.4008 1.95947C10.9821 1.95947 9.59302 3.72127 9.59302 6.80031V18.1285C9.59302 21.2405 10.9984 23.0352 13.4334 23.0352C15.8194 23.0352 17.1921 21.2405 17.1921 18.1285V6.76738C17.1921 3.67188 15.8521 1.95947 13.4008 1.95947ZM12.028 6.75091C12.028 4.92325 12.3875 4.2317 13.3844 4.2317C14.3976 4.2317 14.7735 4.87385 14.7735 6.68505V18.4084C14.7735 20.0385 14.3649 20.763 13.4498 20.763C12.4202 20.763 12.0444 20.0385 12.0444 18.1121V6.75091H12.028Z" fill="#101010"/>
<path d="M24.3824 18.7542C24.3824 20.4172 23.6797 20.763 23.0914 20.763C22.2253 20.763 21.7023 20.0056 21.7023 18.7542V7.78823C21.7023 5.87824 21.7023 4.2317 22.9934 4.2317C24.1373 4.2317 24.2354 5.516 24.2354 7.19548V9.92874H26.6377V7.11315C26.6377 3.63895 25.3957 1.95947 22.8299 1.95947C20.5093 1.95947 19.2673 3.68834 19.2673 6.98143V18.5731C19.2673 21.3557 20.7218 23.0846 23.0424 23.0846C25.2976 23.0846 26.7684 21.3063 26.7684 18.5402V14.1768H24.3661V18.7542H24.3824Z" fill="#101010"/>
<path d="M31.3281 2.20654H28.9094V22.8706H31.3281V2.20654Z" fill="#101010"/>
<path d="M36.1652 13.3701H39.8095V11.1473H36.1652V4.47877H40.3979V2.20654H33.7302V22.8706H40.7084V20.5984H36.1652V13.3701Z" fill="#101010"/>
<path d="M41.7053 4.42937H44.9247V22.8706H47.3107V4.42937H50.5628V2.20654H41.7053V4.42937Z" fill="#101010"/>
<path d="M54.1745 11.1636H57.8188V8.94072H54.1745V2.27223H58.4071V0H51.7395V20.6641H58.7176V18.3919H54.1745V11.1636Z" fill="#101010"/>
<path d="M65.6304 13.1725C66.9051 12.3492 67.379 11.2461 67.379 9.13849V7.04738C67.379 3.83662 66.1043 2.20654 63.5713 2.20654H59.9106V22.8706H62.3293V13.8147H63.4079L65.6304 22.8377V22.8706H68L65.6304 13.1725ZM62.3293 4.5117H63.0647C64.6662 4.5117 64.895 5.00567 64.895 8.5128C64.895 11.0155 64.5355 11.5589 62.9013 11.5589H62.3293V4.5117Z" fill="#101010"/>
<path d="M56.6258 23.3481L56.2009 24.4349C56.348 24.5007 56.4951 24.5995 56.6258 24.6983L57.4102 23.8421C57.1651 23.6445 56.9036 23.4799 56.6258 23.3481Z" fill="#101010"/>
<path d="M56.2009 24.4349L56.6258 23.3481C56.9036 23.4799 57.1815 23.6445 57.4102 23.8421L56.6258 24.6983C56.4951 24.5995 56.3643 24.5172 56.2009 24.4349Z" fill="#101010"/>
<path d="M56.2663 23.2823L56.299 23.2164C56.0048 23.1176 55.6943 23.0682 55.3838 23.0518V24.2208C55.5472 24.2373 55.7106 24.2702 55.8741 24.3196L56.2663 23.2823Z" fill="#101010"/>
<path d="M55.3838 24.2208V23.0518C55.6943 23.0682 56.0048 23.1176 56.299 23.2164L56.2663 23.2823L55.8741 24.3031C55.7106 24.2537 55.5472 24.2208 55.3838 24.2208Z" fill="#101010"/>
<path d="M55.0243 24.2209V23.1342V23.0684C54.7138 23.0848 54.4033 23.1342 54.1091 23.233L54.534 24.3197C54.6974 24.2539 54.8609 24.2209 55.0243 24.2209Z" fill="#101010"/>
<path d="M55.0243 23.0518V23.1176V24.2043C54.8609 24.2208 54.6974 24.2537 54.534 24.3031L54.1091 23.2164C54.4196 23.1176 54.7138 23.0682 55.0243 23.0518Z" fill="#101010"/>
<path d="M54.2071 24.4349L53.7822 23.3481C53.5044 23.4799 53.2266 23.6445 52.9978 23.8421L53.7822 24.6983C53.913 24.5995 54.0601 24.5172 54.2071 24.4349Z" fill="#101010"/>
<path d="M53.7822 23.3481L54.2071 24.4349C54.0601 24.5007 53.913 24.5995 53.7822 24.6983L52.9978 23.8421C53.2429 23.6445 53.5044 23.4799 53.7822 23.3481Z" fill="#101010"/>
<path d="M52.8998 26.5093L51.7559 26.394C51.7559 26.4434 51.7559 26.4764 51.7559 26.5258C51.7559 26.7892 51.7885 27.0691 51.8539 27.3161L52.9652 27.0033C52.9325 26.8386 52.9161 26.6904 52.9161 26.5258C52.8998 26.5258 52.8998 26.5093 52.8998 26.5093Z" fill="#101010"/>
<path d="M52.9488 27.0033L51.8376 27.3161C51.7722 27.0527 51.7395 26.7892 51.7395 26.5258C51.7395 26.4764 51.7395 26.4434 51.7395 26.394L52.8835 26.5093V26.5258C52.8998 26.6904 52.9161 26.8551 52.9488 27.0033Z" fill="#101010"/>
<path d="M52.0337 25.1431C51.903 25.423 51.8213 25.7358 51.7886 26.0322L52.9325 26.1475C52.9652 25.9828 52.9979 25.8181 53.0633 25.67L52.0337 25.1431Z" fill="#101010"/>
<path d="M52.9325 26.1475L51.7886 26.0322C51.8376 25.7194 51.9193 25.423 52.0337 25.1431L53.0633 25.67C52.9979 25.8181 52.9652 25.9828 52.9325 26.1475Z" fill="#101010"/>
<path d="M58.2273 24.8298C58.0802 24.5499 57.8841 24.3029 57.6716 24.0889L56.8872 24.9451C57.0016 25.0768 57.0997 25.2085 57.1814 25.3567L58.2273 24.8298Z" fill="#101010"/>
<path d="M57.6716 24.0889C57.8841 24.3194 58.0802 24.5664 58.2273 24.8298L57.1977 25.3567C57.116 25.2085 57.018 25.0768 56.9036 24.9451L57.6716 24.0889Z" fill="#101010"/>
<path d="M52.7363 24.0889C52.5239 24.3194 52.3277 24.5664 52.1807 24.8298L53.2102 25.3567C53.2919 25.2085 53.39 25.0768 53.5044 24.9451L52.7363 24.0889Z" fill="#101010"/>
<path d="M53.2266 25.3567L52.197 24.8298C52.3441 24.5499 52.5402 24.3029 52.7527 24.0889L53.5371 24.9451C53.4063 25.0603 53.3083 25.2085 53.2266 25.3567Z" fill="#101010"/>
<path d="M58.6358 26.0483C58.5867 25.7355 58.505 25.4391 58.3906 25.1592L57.3611 25.6861C57.4265 25.8343 57.4755 25.9989 57.4918 26.1636L58.6358 26.0483Z" fill="#101010"/>
<path d="M58.3745 25.1431C58.5053 25.423 58.587 25.7358 58.6197 26.0322L57.4757 26.1475C57.443 25.9828 57.4103 25.8181 57.345 25.67L58.3745 25.1431Z" fill="#101010"/>
<path d="M57.165 29.3908C57.4101 29.2097 57.6389 29.0121 57.8513 28.7651L56.9362 28.0571C56.8218 28.1889 56.7074 28.2876 56.5767 28.3864L57.165 29.3908Z" fill="#101010"/>
<path d="M56.9201 28.0737L57.8352 28.7817C57.6391 29.0123 57.4103 29.2263 57.1489 29.4074L56.5442 28.4195C56.6913 28.3042 56.822 28.189 56.9201 28.0737Z" fill="#101010"/>
<path d="M51.9355 27.6623C52.0336 27.9587 52.1807 28.2386 52.3441 28.4856L53.2593 27.7776C53.1612 27.6459 53.0959 27.4812 53.0305 27.333L51.9355 27.6623Z" fill="#101010"/>
<path d="M52.3605 28.4852C52.1807 28.2218 52.05 27.9583 51.9519 27.662L53.0632 27.3491C53.1286 27.4973 53.1939 27.662 53.292 27.7937L52.3605 28.4852Z" fill="#101010"/>
<path d="M57.5083 26.5093V26.5258C57.5083 26.6904 57.4919 26.8386 57.4592 27.0033L58.5705 27.3161C58.6359 27.0527 58.6686 26.7892 58.6686 26.5258C58.6686 26.4764 58.6686 26.4434 58.6686 26.394L57.5083 26.5093Z" fill="#101010"/>
<path d="M58.5705 27.3161L57.4592 27.0033C57.4919 26.8386 57.5083 26.6904 57.5083 26.5258V26.5093L58.6522 26.394C58.6522 26.4434 58.6522 26.4764 58.6522 26.5258C58.6685 26.7892 58.6359 27.0691 58.5705 27.3161Z" fill="#101010"/>
<path d="M55.7922 28.7651L56.0047 29.9012C56.2988 29.8354 56.593 29.7201 56.8545 29.5719L56.2498 28.584C56.1191 28.6663 55.9557 28.7322 55.7922 28.7651Z" fill="#101010"/>
<path d="M56.0047 29.9178L55.7922 28.7817C55.9557 28.7323 56.1027 28.6829 56.2498 28.6006L56.8545 29.5885C56.593 29.7367 56.3152 29.8355 56.0047 29.9178Z" fill="#101010"/>
<path d="M58.0638 28.4852C58.2436 28.2218 58.3743 27.9583 58.4724 27.662L57.3611 27.3491C57.2957 27.4973 57.2304 27.662 57.1323 27.7937L58.0638 28.4852Z" fill="#101010"/>
<path d="M57.3611 27.3491L58.4724 27.662C58.3743 27.9583 58.2273 28.2383 58.0638 28.4852L57.1487 27.7772C57.2304 27.6455 57.3121 27.4973 57.3611 27.3491Z" fill="#101010"/>
<path d="M54.9588 28.8311L54.7463 29.9672C55.0568 30.0001 55.351 30.0001 55.6615 29.9672L55.449 28.8311C55.2856 28.8475 55.1222 28.8475 54.9588 28.8311Z" fill="#101010"/>
<path d="M54.7463 29.9838L54.9588 28.8477C55.1222 28.8641 55.2856 28.8641 55.449 28.8477L55.6615 29.9838C55.3673 30.0167 55.0568 30.0167 54.7463 29.9838Z" fill="#101010"/>
<path d="M53.4882 28.0737L52.573 28.7817C52.7691 29.0123 52.9979 29.2263 53.2594 29.4074L53.864 28.4195C53.7169 28.3042 53.6026 28.189 53.4882 28.0737Z" fill="#101010"/>
<path d="M53.243 29.3908C52.9979 29.2097 52.7691 29.0121 52.5566 28.7651L53.4718 28.0571C53.5862 28.1889 53.7006 28.2876 53.8313 28.3864L53.243 29.3908Z" fill="#101010"/>
<path d="M54.4033 29.9178L54.6157 28.7817C54.4523 28.7323 54.3052 28.6829 54.1581 28.6006L53.5535 29.5885C53.8149 29.7367 54.1091 29.8355 54.4033 29.9178Z" fill="#101010"/>
<path d="M54.6157 28.7651L54.4033 29.9012C54.1091 29.8354 53.8149 29.7201 53.5535 29.5719L54.1581 28.584C54.3052 28.6663 54.4523 28.7322 54.6157 28.7651Z" fill="#101010"/>
</g>
<defs>
<clipPath id="clip0">
<rect width="68" height="30" fill="white"/>
</clipPath>
</defs>
</svg>
