<svg width="267" height="116" viewBox="0 0 267 116" fill="none" xmlns="http://www.w3.org/2000/svg">
<g clip-path="url(#clip0)">
<path d="M62.7432 56.01L61.1281 54.3102C55.4543 48.4646 54.6674 46.9307 54.6674 41.4167C54.6674 36.649 56.0341 36.2345 57.4422 36.2345C58.9745 36.2345 60.2169 36.8563 60.2169 44.5261V49.9986H68.4584V42.2874C68.4584 33.1666 64.4412 27.9014 57.4422 27.9014C50.1946 27.9014 46.0117 33.1251 46.0117 42.2044C46.0117 51.3667 49.3249 54.8906 55.4543 61.3996C59.3886 65.5039 61.0038 67.411 61.0038 73.1322C61.0038 77.4854 60.0099 79.7241 58.0634 79.7241C56.9866 79.7241 54.4189 79.7241 54.4189 72.3031V64.6748H46.0117V72.3031C46.0117 82.7091 50.1118 87.9743 58.1876 87.9743C65.3523 87.9743 69.6181 82.2531 69.6181 72.6762C69.6181 65.3796 68.0857 61.6483 62.7432 56.01Z" fill="#101010"/>
<path d="M142.011 0.704773H137.621V34.7005H142.011V0.704773Z" fill="#101010"/>
<path d="M150.874 15.5468L155.471 34.4932L155.512 34.742H159.198V0.704773H155.388V20.0243L150.791 0.704773H147.022V34.742H150.874V15.5468Z" fill="#101010"/>
<path d="M144.247 75.5368C150.128 75.5368 150.584 68.9035 150.584 66.872C150.584 62.7262 149.714 60.5704 146.608 57.2952L145.656 56.3002C142.218 52.7348 141.721 51.7813 141.721 48.4232C141.721 45.3967 142.715 44.9821 143.751 44.9821C145.117 44.9821 145.78 45.8113 145.78 50.2473V53.1079H149.88V48.9207C149.88 43.6969 147.685 40.8363 143.751 40.8363C139.65 40.8363 137.414 43.6969 137.414 48.8792C137.414 54.1444 139.236 56.0515 142.881 59.9485C145.241 62.3946 146.277 63.6383 146.277 67.1623C146.277 69.9814 145.573 71.4324 144.165 71.4324C142.964 71.4324 141.638 70.8935 141.638 66.6648V62.5189H137.455V66.6648C137.455 72.5518 139.733 75.5368 144.247 75.5368Z" fill="#101010"/>
<path d="M167.606 67.2866V48.8377C167.606 43.6554 165.328 40.7948 161.186 40.7948C157.086 40.7948 154.726 43.7384 154.726 48.8792V67.2866C154.726 72.5103 157.086 75.4953 161.228 75.4953C165.328 75.4953 167.606 72.5103 167.606 67.2866ZM159.198 48.7963C159.198 45.5625 159.944 44.9406 161.186 44.9406C162.512 44.9406 163.216 45.5625 163.216 48.7133V67.7426C163.216 70.8935 162.222 71.3495 161.269 71.3495C159.944 71.3495 159.198 70.6862 159.198 67.2452V48.7963Z" fill="#101010"/>
<path d="M184.958 67.95V60.6948H180.61V68.3231C180.61 69.7327 180.279 71.3495 178.705 71.3495C177.421 71.3495 176.676 70.2302 176.676 68.3231V50.4961C176.676 47.055 176.758 44.9407 178.581 44.9407C180.279 44.9407 180.403 46.8477 180.403 49.5425V54.2273H184.751V49.4181C184.751 43.614 182.639 40.8363 178.291 40.8363C174.398 40.8363 172.244 43.8213 172.244 49.2109V67.9914C172.244 72.6347 174.688 75.5368 178.663 75.5368C182.474 75.5368 184.958 72.5518 184.958 67.95Z" fill="#101010"/>
<path d="M194.028 41.2094H189.638V75.2051H194.028V41.2094Z" fill="#101010"/>
<path d="M211.008 71.0593H203.553V59.7827H209.558V55.7198H203.553V45.3552H210.511V41.2094H199.163V75.2051H211.008V71.0593Z" fill="#101010"/>
<path d="M218.836 75.2051H223.184V45.2309H228.485V41.2094H213.576V45.2309H218.836V75.2051Z" fill="#101010"/>
<path d="M236.312 75.2051H240.66V60.7362L245.713 41.2094H241.323L238.465 54.02L235.442 41.2094H231.011L236.312 60.8606V75.2051Z" fill="#101010"/>
<path d="M152.82 105.014L150.211 81.9214L150.17 81.6726H145.2L142.508 104.972L140.686 81.9214V81.6726H136.503L139.94 115.42L139.982 115.668H144.952L147.643 92.203L150.418 115.668H155.388L158.784 82.0043L158.825 81.6726H154.643L152.82 105.014Z" fill="#101010"/>
<path d="M167.233 100.246H173.197V96.183H167.233V85.8184H174.149V81.6726H162.802V115.668H174.646V111.523H167.233V100.246Z" fill="#101010"/>
<path d="M182.722 85.7355H187.981V115.668H192.33V85.7355H197.631V81.6726H182.722V85.7355Z" fill="#101010"/>
<path d="M214.114 93.1565V89.757C214.114 84.3674 211.961 81.6726 207.654 81.6726H201.441V115.668H205.831V100.951H207.198L210.843 115.668H215.191L211.257 99.7898C213.327 98.4217 214.114 96.5976 214.114 93.1565ZM205.873 85.8599H206.867C209.227 85.8599 209.641 86.3159 209.641 92.1615C209.641 96.3488 209.02 96.8878 206.618 96.8878H205.914V85.8599H205.873Z" fill="#101010"/>
<path d="M226.622 108.62C226.622 111.398 225.793 111.771 224.965 111.771C223.806 111.771 223.101 111.232 223.101 108.579V81.6726H218.753V108.33C218.753 111.357 219.25 113.015 220.534 114.3C221.569 115.337 223.35 116.041 224.924 116.041C226.58 116.041 228.154 115.378 229.355 114.217C230.556 112.974 230.97 111.44 230.97 108.538V81.6726H226.622V108.62Z" fill="#101010"/>
<path d="M244.057 96.8048C240.62 93.2394 240.123 92.2859 240.123 88.9278C240.123 85.9013 241.116 85.4868 242.152 85.4868C243.519 85.4868 244.181 86.3159 244.181 90.7519V93.6126H248.281V89.4253C248.281 84.2016 246.086 81.3409 242.152 81.3409C238.052 81.3409 235.815 84.2016 235.815 89.3838C235.815 94.649 237.638 96.5561 241.282 100.453C243.643 102.899 244.678 104.143 244.678 107.667C244.678 110.486 243.974 111.937 242.566 111.937C241.365 111.937 240.04 111.398 240.04 107.169V103.024H235.857V107.169C235.857 113.056 238.135 116.041 242.649 116.041C248.53 116.041 248.985 109.408 248.985 107.377C248.985 103.231 248.116 101.075 245.009 97.7998L244.057 96.8048Z" fill="#101010"/>
<path d="M252.091 81.6726V85.7355H257.309V115.668H261.699V85.7355H267V81.6726H252.091Z" fill="#101010"/>
<path d="M81.587 5.01645L74.5879 23.0922C77.1142 24.336 79.5162 25.8285 81.7112 27.5697L94.7568 13.2666C90.781 9.90851 86.3496 7.13082 81.587 5.01645Z" fill="#101010"/>
<path d="M74.5879 23.0922L81.587 5.01645C86.3082 7.17227 90.7396 9.90851 94.7568 13.2252L81.7112 27.5282C79.5162 25.8285 77.1556 24.2945 74.5879 23.0922Z" fill="#101010"/>
<path d="M75.6647 3.93853L76.0789 2.86062C71.1919 1.24375 66.0565 0.248749 60.7969 0V19.361C63.6131 19.5683 66.3878 20.1072 69.0798 20.8949L75.6647 3.93853Z" fill="#101010"/>
<path d="M60.7969 19.4024V0.0414734C66.0151 0.290223 71.1505 1.24376 76.0789 2.90209L75.6647 3.98L69.0798 20.9779C66.4293 20.1072 63.6131 19.6097 60.7969 19.4024Z" fill="#101010"/>
<path d="M54.9158 19.4024V1.20229H54.8744L54.9158 0C49.6975 0.248749 44.5621 1.24375 39.6338 2.86062L46.6329 20.9364C49.3248 20.1072 52.0996 19.6097 54.9158 19.4024Z" fill="#101010"/>
<path d="M54.9158 0L54.8744 1.20229H54.9158V19.361C52.0996 19.5683 49.3248 20.1072 46.6329 20.8949L39.6338 2.86062C44.5621 1.24375 49.6975 0.248749 54.9158 0Z" fill="#101010"/>
<path d="M41.125 23.0922L34.1259 5.01645C29.4046 7.13082 24.9733 9.90851 20.9561 13.2252L34.0017 27.5282C36.1966 25.8285 38.5987 24.2945 41.125 23.0922Z" fill="#101010"/>
<path d="M34.1259 5.01645L41.125 23.0922C38.5987 24.336 36.1966 25.8285 34.0017 27.5697L20.9561 13.2252C24.9733 9.90851 29.4046 7.13082 34.1259 5.01645Z" fill="#101010"/>
<path d="M19.2992 57.544L0.0414146 55.7613C0 56.466 0 57.1708 0 57.8342C0 62.3116 0.496975 66.7477 1.53234 71.1008L20.1275 65.7941C19.5891 63.1823 19.2992 60.4875 19.2992 57.8342C19.2992 57.7513 19.2992 57.6269 19.2992 57.544Z" fill="#101010"/>
<path d="M20.1275 65.8356L1.53234 71.1423C0.496975 66.7891 0 62.3531 0 57.8756C0 57.1708 0 56.4661 0.0414146 55.7613L19.2992 57.544C19.2992 57.6683 19.2992 57.7927 19.2992 57.8756C19.2992 60.529 19.5891 63.1823 20.1275 65.8356Z" fill="#101010"/>
<path d="M4.72154 34.9492C2.65081 39.7169 1.28413 44.7334 0.580078 49.8742L19.8379 51.6569C20.2934 48.8792 21.0389 46.1844 22.0743 43.5725L4.72154 34.9492Z" fill="#101010"/>
<path d="M19.7969 51.6569L0.539062 49.8742C1.24311 44.7334 2.65121 39.7169 4.68052 34.9492L21.9918 43.5725C20.9979 46.1844 20.2524 48.8792 19.7969 51.6569Z" fill="#101010"/>
<path d="M108.423 29.6426C105.897 25.1237 102.75 20.9364 99.1052 17.2052L86.0596 31.5497C87.9646 33.6226 89.6626 35.8614 91.0707 38.2659L108.423 29.6426Z" fill="#101010"/>
<path d="M99.1048 17.2466C102.749 20.9778 105.897 25.1237 108.423 29.6841L91.1118 38.2659C89.7037 35.8613 88.0057 33.5811 86.1006 31.5497L99.1048 17.2466Z" fill="#101010"/>
<path d="M16.6074 17.2466C12.9629 20.9778 9.81535 25.1237 7.28906 29.6841L24.6004 38.3074C26.0085 35.9028 27.7065 33.6226 29.6115 31.5911L16.6074 17.2466Z" fill="#101010"/>
<path d="M24.6414 38.2659L7.33008 29.6426C9.85637 25.1237 13.0039 20.9364 16.6484 17.2052L29.694 31.5497C27.7475 33.6226 26.0495 35.8614 24.6414 38.2659Z" fill="#101010"/>
<path d="M115.174 49.8742C114.47 44.7334 113.062 39.7169 111.033 34.9492L93.7217 43.5725C94.757 46.1844 95.5025 48.8792 95.9581 51.6569L115.174 49.8742Z" fill="#101010"/>
<path d="M111.032 34.9492C113.103 39.7169 114.47 44.7334 115.174 49.8742L95.9161 51.6569C95.4605 48.8792 94.7151 46.1844 93.6797 43.5725L111.032 34.9492Z" fill="#101010"/>
<path d="M90.6567 105.594C94.881 102.65 98.7326 99.2094 102.046 95.2709L86.5981 83.6212C84.7759 85.6941 82.7051 87.5597 80.4688 89.1766L90.6567 105.594Z" fill="#101010"/>
<path d="M86.6391 83.5797L102.087 95.2295C98.7736 99.168 94.9221 102.65 90.6978 105.553L80.5098 89.1351C82.7462 87.5182 84.7755 85.6526 86.6391 83.5797Z" fill="#101010"/>
<path d="M3.14746 76.7805C4.84546 81.6726 7.16468 86.2744 10.0637 90.5446L25.4699 78.8949C23.979 76.5732 22.6952 74.0857 21.7426 71.4739L3.14746 76.7805Z" fill="#101010"/>
<path d="M10.1047 90.5446C7.16428 86.2744 4.84506 81.6726 3.18848 76.7805L21.7836 71.4739C22.7776 74.0857 24.02 76.5732 25.511 78.8949L10.1047 90.5446Z" fill="#101010"/>
<path d="M96.4133 57.544C96.4133 57.6683 96.4133 57.7927 96.4133 57.8756C96.4133 60.529 96.1234 63.1823 95.585 65.8356L114.18 71.1423C115.216 66.7891 115.712 62.3531 115.712 57.8756C115.712 57.1708 115.712 56.4661 115.671 55.7613L96.4133 57.544Z" fill="#101010"/>
<path d="M114.221 71.1423L95.626 65.8356C96.1644 63.2237 96.4543 60.529 96.4543 57.8756C96.4543 57.7513 96.4543 57.6269 96.4543 57.544L115.712 55.7613C115.753 56.4661 115.753 57.1708 115.753 57.8756C115.753 62.3117 115.215 66.7891 114.221 71.1423Z" fill="#101010"/>
<path d="M67.7959 95.188L71.3576 114.217C76.3687 113.015 81.1728 111.149 85.687 108.703L75.499 92.2444C73.0141 93.4882 70.4464 94.4832 67.7959 95.188Z" fill="#101010"/>
<path d="M71.3165 114.217L67.7549 95.188C70.4054 94.4832 73.0145 93.4882 75.458 92.2444L85.646 108.703C81.1318 111.149 76.3277 113.015 71.3165 114.217Z" fill="#101010"/>
<path d="M105.648 90.5446C108.589 86.2744 110.908 81.6726 112.565 76.7805L93.9695 71.4739C92.9756 74.0857 91.7331 76.5732 90.2422 78.8949L105.648 90.5446Z" fill="#101010"/>
<path d="M93.9695 71.4739L112.565 76.7805C110.867 81.6726 108.547 86.2744 105.648 90.5446L90.2422 78.8949C91.7331 76.5732 92.9756 74.0857 93.9695 71.4739Z" fill="#101010"/>
<path d="M53.756 96.2659L50.1943 115.295C55.2883 115.959 60.4652 115.959 65.5177 115.295L61.9561 96.2659C59.1399 96.5561 56.5722 96.5561 53.756 96.2659Z" fill="#101010"/>
<path d="M50.1943 115.254L53.756 96.2245C56.5722 96.5147 59.1399 96.5147 61.9975 96.2245L65.5592 115.254C60.4652 115.959 55.2883 115.959 50.1943 115.254Z" fill="#101010"/>
<path d="M29.1146 83.5797L13.667 95.2709C16.9802 99.2095 20.8317 102.692 25.056 105.594L35.244 89.1351C33.0076 87.5182 30.9369 85.6526 29.1146 83.5797Z" fill="#101010"/>
<path d="M25.056 105.594C20.8317 102.65 16.9802 99.168 13.667 95.2709L29.1146 83.6212C30.9369 85.6941 33.0076 87.5597 35.244 89.1766L25.056 105.594Z" fill="#101010"/>
<path d="M44.3968 114.217L47.9585 95.188C45.308 94.4832 42.6988 93.4882 40.2554 92.2444L30.0674 108.703C34.5816 111.149 39.3857 113.015 44.3968 114.217Z" fill="#101010"/>
<path d="M47.9585 95.188L44.3968 114.217C39.3857 113.015 34.5816 111.149 30.0674 108.703L40.2554 92.2444C42.6988 93.4882 45.2665 94.4832 47.9585 95.188Z" fill="#101010"/>
</g>
<defs>
<clipPath id="clip0">
<rect width="267" height="116" fill="white"/>
</clipPath>
</defs>
</svg>
