<svg width="40" height="40" viewBox="0 0 40 40" fill="none" xmlns="http://www.w3.org/2000/svg">
<path d="M11.663 22.9998V16.9626H13.7534C14.4554 16.9626 14.9884 17.1082 15.3524 17.3994C15.7216 17.6906 15.9062 18.1118 15.9062 18.663C15.9062 19.2662 15.7112 19.7238 15.3212 20.0358C14.9364 20.3478 14.3722 20.5038 13.6286 20.5038H12.404V22.9998H11.663ZM15.1496 18.6864C15.1496 18.3068 15.03 18.0286 14.7908 17.8518C14.5568 17.6698 14.1928 17.5788 13.6988 17.5788H12.404V19.9032H13.5818C14.1434 19.9032 14.5438 19.8096 14.783 19.6224C15.0274 19.4352 15.1496 19.1232 15.1496 18.6864ZM17.6151 22.9998V16.9626H19.4559C20.5011 16.9626 21.3071 17.2252 21.8739 17.7504C22.4459 18.2704 22.7319 19.0088 22.7319 19.9656C22.7319 20.9172 22.4433 21.6608 21.8661 22.1964C21.2941 22.732 20.4959 22.9998 19.4715 22.9998H17.6151ZM21.9753 19.9656C21.9753 19.1908 21.7621 18.6032 21.3357 18.2028C20.9093 17.7972 20.2827 17.5944 19.4559 17.5944H18.3561V22.368H19.3545C20.2385 22.368 20.8963 22.1704 21.3279 21.7752C21.7595 21.38 21.9753 20.7768 21.9753 19.9656ZM24.5421 22.9998V16.9626H28.3797V17.5866H25.2831V19.7472H28.1067V20.3634H25.2831V22.9998H24.5421Z" fill="#101010"/>
<circle cx="20" cy="20" r="19.61" stroke="black" stroke-width="0.78"/>
</svg>
