<svg width="93" height="235" viewBox="0 0 93 235" fill="none" xmlns="http://www.w3.org/2000/svg">
<path d="M65.9158 109.959L59.5526 103.309C37.2 80.4417 34.1 74.441 34.1 52.8709C34.1 34.2201 39.4842 32.5983 45.0316 32.5983C51.0684 32.5983 55.9631 35.0311 55.9631 65.0345V86.4424H88.4316V56.2767C88.4316 20.597 72.6052 0 45.0316 0C16.4789 0 0 20.4348 0 55.9524C0 91.7943 13.0526 105.58 37.2 131.042C52.7 147.098 59.0632 154.558 59.0632 176.939C59.0632 193.968 55.1474 202.726 47.4789 202.726C43.2368 202.726 33.121 202.726 33.121 173.696V143.854H0V173.696C0 214.403 16.1526 235 47.9684 235C76.1947 235 93 212.619 93 175.155C93 146.611 86.9631 132.015 65.9158 109.959Z" fill="white"/>
</svg>
