<svg width="79" height="18" viewBox="0 0 79 18" fill="none" xmlns="http://www.w3.org/2000/svg">
<g clip-path="url(#clip0)">
<path fill-rule="evenodd" clip-rule="evenodd" d="M4.75205 3.04615V12.24C4.75205 13.1262 5.0316 13.5138 6.14979 13.5138H7.49161C9.00117 13.5138 9.72799 12.9046 10.2871 11.7969L10.7903 10.7446L11.573 10.9662L10.958 14.4554H0.0556641V13.68C1.95658 13.2923 2.0684 13.2369 2.0684 12.4615V3.04615C2.0684 2.27077 1.95658 2.21538 0.0556641 1.82769V1.10769H6.87661V1.88308C4.86387 2.27077 4.75205 2.32615 4.75205 3.04615ZM20.0712 7.14462C20.0712 8.36308 19.3444 9.80308 14.648 10.0246C14.7598 11.9077 15.7662 13.1815 17.3876 13.1815C18.2821 13.1815 19.1208 12.7938 19.9035 12.1292L20.3508 12.6277C19.5121 13.9015 18.1144 14.7323 16.4371 14.7323C13.8094 14.7323 11.9085 12.8492 11.9085 9.91385C11.9085 7.08923 14.2567 4.81846 16.9403 4.81846C19.1767 4.87385 20.0712 6.20308 20.0712 7.14462ZM16.8285 5.64923C15.3189 5.64923 14.7039 7.2 14.648 9.24923C17.8908 8.75077 18.0026 7.53231 18.0026 6.81231C17.9467 5.98154 17.2758 5.64923 16.8285 5.64923ZM24.1526 14.7323C21.8044 14.7323 20.9099 13.7908 20.9099 12.7938C20.9099 12.0185 21.6367 11.3538 22.6431 11.5754L22.9226 11.9077C22.3076 12.96 22.7549 13.9015 24.3203 13.9015C25.3267 13.9015 25.9976 13.4031 25.9976 12.5723C25.9976 11.6308 25.2149 11.2431 23.9849 10.7446C22.2517 10.08 21.2453 9.24923 21.2453 7.69846C21.2453 6.14769 22.6431 4.81846 24.7117 4.81846C26.9481 4.81846 27.9545 5.87077 27.9545 6.75692C27.9545 7.47692 27.2835 8.19692 26.1654 7.97538L25.9417 7.64308C26.6126 6.70154 26.2772 5.64923 24.7676 5.64923C23.8731 5.64923 23.2581 6.20308 23.2581 6.97846C23.2581 7.86462 24.2085 8.30769 25.3267 8.69538C27.0599 9.30462 28.4576 10.08 28.4576 11.7969C28.3458 13.5138 27.0599 14.7323 24.1526 14.7323ZM30.4145 1.10769H41.3168L41.4286 4.65231H40.7018L40.3104 3.54462C39.9191 2.43692 39.1363 2.10462 38.0182 2.10462H35.1668V7.08923H37.9622C38.5772 7.08923 38.5772 6.97846 39.0245 5.26154H39.8073V10.1354H39.0245C38.6332 8.47385 38.5772 8.19692 37.9622 8.19692H35.1668V12.2954C35.1668 13.1815 35.4463 13.5692 36.5645 13.5692H37.9063C39.4159 13.5692 40.1427 12.96 40.7018 11.8523L41.205 10.8L41.9877 11.0215L41.3727 14.5108H30.4145V13.7354C32.3154 13.3477 32.4272 13.2923 32.4272 12.5169V3.04615C32.4272 2.27077 32.3154 2.21538 30.4145 1.82769V1.10769ZM50.3182 12.1292L50.7655 12.6277C49.9269 13.9015 48.5291 14.7323 46.8518 14.7323C44.2241 14.7323 42.3232 12.8492 42.3232 9.91385C42.3232 7.08923 44.4477 4.81846 47.2432 4.81846C49.4237 4.81846 50.43 5.98154 50.43 6.92308C50.43 7.69846 49.9269 8.47385 48.5291 8.25231L48.3055 7.92C48.6968 7.03385 48.8087 5.64923 47.2991 5.64923C45.7337 5.64923 45.1186 7.42154 45.1186 9.58154C45.1186 11.7415 46.125 13.1815 47.9141 13.1815C48.6968 13.1815 49.5355 12.8492 50.3182 12.1292ZM57.4746 13.4585V8.25231C57.4746 7.14462 57.0833 6.70154 56.2446 6.70154C55.0146 6.70154 54.0082 8.58462 54.0082 11.4646V14.5662H51.4364V1.93846C51.4364 1.21846 51.3805 1.16308 50.1505 0.72V0H54.1201C54.0082 0.830769 54.0082 7.08923 54.0082 7.53231H54.0642C54.7351 5.92615 55.9092 4.87385 57.5305 4.87385C58.9842 4.87385 60.0465 5.87077 60.0465 7.80923V12.5169C60.0465 13.4031 60.2142 13.5138 61.556 13.7908V14.5662C60.3819 14.6769 59.4874 14.7877 58.9283 14.7877C57.9219 14.7323 57.4746 14.3446 57.4746 13.4585ZM66.1406 13.9569C67.8738 13.9569 68.3211 11.9631 68.3211 9.96923C68.3211 7.75385 67.9856 5.70462 66.1406 5.70462C64.4074 5.70462 63.9601 7.69846 63.9601 9.69231C63.9601 11.8523 64.3515 13.9569 66.1406 13.9569ZM65.9729 14.7323C63.1774 14.7323 61.2765 12.9046 61.2765 10.08C61.2765 6.92308 63.2892 4.81846 66.4201 4.81846C69.2156 4.81846 71.1165 6.64615 71.1165 9.47077C71.0606 12.6277 69.0479 14.7323 65.9729 14.7323ZM74.8065 14.7323C72.4583 14.7323 71.5638 13.7908 71.5638 12.7938C71.5638 12.0185 72.2906 11.3538 73.297 11.5754L73.5765 11.9077C72.9615 12.96 73.4088 13.9015 74.9743 13.9015C75.9806 13.9015 76.6516 13.4031 76.6516 12.5723C76.6516 11.6308 75.8688 11.2431 74.6388 10.7446C72.9056 10.08 71.8993 9.24923 71.8993 7.69846C71.8993 6.14769 73.297 4.81846 75.3656 4.81846C77.602 4.81846 78.6084 5.87077 78.6084 6.75692C78.6084 7.47692 77.9375 8.19692 76.8193 7.97538L76.5956 7.64308C77.2665 6.70154 76.9311 5.64923 75.4215 5.64923C74.527 5.64923 73.912 6.20308 73.912 6.97846C73.912 7.86462 74.8624 8.30769 75.9806 8.69538C77.7138 9.30462 79.1116 10.08 79.1116 11.7969C78.9997 13.5138 77.7138 14.7323 74.8065 14.7323Z" fill="black"/>
<path d="M79 17.0029H0V17.9999H79V17.0029Z" fill="black"/>
</g>
<defs>
<clipPath id="clip0">
<rect width="79" height="18" fill="white"/>
</clipPath>
</defs>
</svg>
